<svg width="88" height="84" viewBox="0 0 88 84" fill="none" xmlns="http://www.w3.org/2000/svg">
<path d="M38.1399 8.66281C56.1888 4.16271 74.4969 15.1633 78.997 33.2122C83.4971 51.2612 72.4965 69.5692 54.4476 74.0693C36.3987 78.5694 18.0906 67.5688 13.5905 49.5199C9.09038 31.471 20.091 13.1629 38.1399 8.66281Z" fill="#F2F8FF"/>
<path d="M69.6023 52.8717C70.2399 55.4292 68.898 57.9658 66.6052 58.5375C64.3124 59.1091 61.9367 57.4994 61.2991 54.9419C60.6615 52.3845 62.0033 49.8479 64.2961 49.2762C66.589 48.7046 68.9646 50.3143 69.6023 52.8717Z" fill="#4C4686"/>
<path d="M66.7606 53.7341C67.3187 55.3682 66.8648 57.0027 65.7467 57.3846C64.6287 57.7664 63.2698 56.7511 62.7117 55.117C62.1534 53.4828 62.6075 51.8487 63.7256 51.4668C64.8437 51.0849 66.2025 52.1 66.7606 53.7341Z" fill="#E6E6E6"/>
<path d="M18.3582 38.7501L15.008 33.4246L7.44798 29.1487L8.07652 28.0373L15.9171 32.472L19.4388 38.0703L18.3582 38.7501Z" fill="#465282"/>
<path d="M31.6109 32.0604L28.2736 26.7555L19.7828 22.7187L20.331 21.5657L29.1568 25.7618L32.6915 31.3806L31.6109 32.0604Z" fill="#465282"/>
<path d="M22.5562 21.7997L6.45708 30.2598C5.53082 30.7465 4.38541 30.3901 3.89871 29.464C3.41214 28.5378 3.76827 27.3925 4.6944 26.9058L20.7937 18.4457C21.7199 17.9589 22.8654 18.3153 23.3521 19.2414C23.8386 20.1676 23.4824 21.313 22.5562 21.7997Z" fill="#F65585"/>
<path d="M6.54428 28.0213C7.03911 28.9183 6.8438 29.9746 6.10781 30.3806C5.37194 30.7866 4.37428 30.3885 3.87942 29.4914C3.38447 28.5944 3.57993 27.5382 4.3158 27.1322C5.05167 26.7262 6.04946 27.1243 6.54428 28.0213Z" fill="#A82049"/>
<path d="M65.2554 54.4593L43.5447 51.7315L35.8958 29.2161L68.0636 31.711L65.2554 54.4593Z" fill="#A8C0E3"/>
<path d="M43.79 51.3399L28.1367 63.3837L14.9799 40.5455L35.9012 29.2236L43.79 51.3399Z" fill="#93A8C7"/>
<g opacity="0.999995">
<path d="M27.2243 25.3831L30.3589 30.3657L28.4935 39.5103L25.3263 34.6568L27.2243 25.3831Z" fill="#B0D9F7"/>
<path d="M42.568 32.2178L30.3279 30.2818L28.4781 39.5138L40.6699 41.4915L42.568 32.2178Z" fill="#4B4786"/>
<path d="M39.4219 27.2337L27.2079 25.398L25.3115 34.6628L37.5256 36.4986L39.4219 27.2337Z" fill="#F9CDE5"/>
<path d="M39.4379 27.2299L42.5724 32.2123L40.6741 41.486L37.5397 36.5034L39.4379 27.2299Z" fill="#F399C3"/>
<path d="M37.5299 36.5129L31.3565 35.55L34.0892 40.4187L40.6556 41.5391L37.5299 36.5129Z" fill="#F5B9D7"/>
<path d="M31.3857 35.5772L25.2802 34.6706L28.4075 39.5004L34.111 40.4244L31.3857 35.5772Z" fill="#F399C3"/>
<path d="M31.3038 32.6355L32.5689 32.8499L31.9494 35.5924L34.5631 40.545L33.2981 40.3306L30.6507 35.5012L31.3038 32.6355Z" fill="#F42E69"/>
</g>
<g opacity="0.999993">
<path d="M51.3089 17.8625L46.5258 21.2938L37.2848 19.9869L41.9371 16.5309L51.3089 17.8625Z" fill="#B0D9F7"/>
<path d="M45.4229 33.6012L46.6123 21.2662L37.285 19.9802L36.0511 32.2697L45.4229 33.6012Z" fill="#4B4786"/>
<path d="M50.2013 30.1634L51.2922 17.8606L41.9293 16.5301L40.8384 28.8331L50.2013 30.1634Z" fill="#F9CDE5"/>
<path d="M50.2095 30.172L45.4265 33.6032L36.0547 32.2714L40.8378 28.8404L50.2095 30.172Z" fill="#F399C3"/>
<path d="M40.8332 28.8474L41.4195 22.627L36.7257 25.6502L36.006 32.2725L40.8332 28.8474Z" fill="#F5B9D7"/>
<path d="M41.3767 22.6465L41.9109 16.4972L37.2798 19.912L36.7038 25.661L41.3767 22.6465Z" fill="#F399C3"/>
<path d="M44.3059 22.3809L44.1687 23.6566L41.3936 23.2048L36.6088 26.1144L36.746 24.8387L41.4059 21.9029L44.3059 22.3809Z" fill="#F42E69"/>
</g>
<path d="M65.3166 54.7717L48.4681 63.3822L44.5692 43.6631L68.0452 31.7042L65.3166 54.7717Z" fill="#D3E5FF"/>
<path d="M48.4749 63.391L28.1195 63.3781L14.9628 40.5399L44.5758 43.6718L48.4749 63.391Z" fill="#A9CAF9"/>
<path d="M50.8147 61.9476C51.4523 64.505 50.1104 67.0417 47.8176 67.6133C45.5248 68.185 43.1491 66.5752 42.5115 64.0178C41.8739 61.4604 43.2157 58.9238 45.5085 58.3521C47.8014 57.7804 50.177 59.3902 50.8147 61.9476Z" fill="#4C4686"/>
<path d="M47.981 62.8159C48.539 64.45 48.0851 66.0845 46.9671 66.4664C45.849 66.8482 44.4901 65.8329 43.932 64.1988C43.3738 62.5646 43.8278 60.9305 44.946 60.5486C46.064 60.1666 47.4229 61.1818 47.981 62.8159Z" fill="#E6E6E6"/>
<path d="M32.5574 62.1098C33.195 64.6673 31.8532 67.2039 29.5603 67.7755C27.2675 68.3472 24.8918 66.7375 24.2542 64.18C23.6166 61.6226 24.9584 59.086 27.2512 58.5143C29.5441 57.9427 31.9197 59.5524 32.5574 62.1098Z" fill="#465282"/>
<path d="M29.7118 62.9623C30.2699 64.5964 29.816 66.2309 28.6979 66.6128C27.5799 66.9946 26.221 65.9793 25.6629 64.3452C25.1046 62.711 25.5587 61.0769 26.6768 60.695C27.7949 60.3131 29.1537 61.3282 29.7118 62.9623Z" fill="#E6E6E6"/>
<path d="M29.752 42.0659L44.5768 43.6799" stroke="#465282" stroke-width="0.510673" stroke-linecap="round" stroke-linejoin="round"/>
<path d="M44.9817 45.1092L47.2038 56.6602" stroke="#465282" stroke-width="0.510673" stroke-linecap="round" stroke-linejoin="round"/>
<path d="M68.0652 31.7635L57.5063 36.9471" stroke="#4C4686" stroke-width="0.510673" stroke-linecap="round" stroke-linejoin="round"/>
</svg>
