<svg width="104" height="104" viewBox="0 0 104 104" fill="none" xmlns="http://www.w3.org/2000/svg">
<g clip-path="url(#clip0_339_8837)">
<path d="M70.3331 78.9124C70.5445 79.8396 64.5879 82.0516 57.0248 83.8542C49.4634 85.6562 43.1611 86.3634 42.9473 85.4338C42.735 84.5037 48.6917 82.2917 56.2555 80.4919C63.8169 78.6899 70.1192 77.9828 70.3331 78.9124Z" fill="#F9CDE5"/>
<path d="M30.6371 23.9015C25.078 24.1126 13.4751 29.1421 24.2604 40.8795C31.1932 48.4303 26.562 52.2107 24.235 54.2518C15.003 62.3376 9.57869 99.4262 70.1121 60.8499C120.035 29.0392 43.38 23.4209 30.6371 23.9015Z" fill="#D3E5FF"/>
<mask id="mask0_339_8837" style="mask-type:luminance" maskUnits="userSpaceOnUse" x="12" y="56" width="22" height="20">
<path d="M12.9661 61.1935L30.1691 56.9043L33.835 71.6072L16.6319 75.8964L12.9661 61.1935Z" fill="white"/>
</mask>
<g mask="url(#mask0_339_8837)">
<path d="M21.1477 66.4771L17.8419 65.5306L17.4346 66.9482C17.0609 68.2508 17.8168 69.6109 19.1194 69.9845L25.729 71.8795C27.0337 72.2553 28.394 71.4994 28.7677 70.1968L29.1749 68.7793L25.867 67.8307L25.5962 68.7778C25.5202 69.0371 25.2486 69.1878 24.9893 69.1119L21.2234 68.0397C21.0958 68.0059 20.988 67.92 20.9269 67.8055C20.8617 67.6909 20.8472 67.5561 20.8831 67.4307L21.1477 66.4771Z" fill="#F52F6A"/>
<path d="M17.8584 65.5334L17.9928 65.0609C18.1427 64.5403 18.6859 64.2388 19.2087 64.3866L20.6264 64.7937C21.147 64.9436 21.4485 65.4868 21.2986 66.0074L21.1643 66.4799L17.8584 65.5334Z" fill="#F52F6A"/>
<mask id="mask1_339_8837" style="mask-type:alpha" maskUnits="userSpaceOnUse" x="25" y="65" width="5" height="5">
<path d="M25.6038 67.5349L27.499 65.7048L29.8294 68.1177L27.9341 69.9478L25.6038 67.5349Z" fill="#FF0000"/>
</mask>
<g mask="url(#mask1_339_8837)">
<path d="M25.8739 67.8363L26.0082 67.3637C26.1581 66.8431 26.7013 66.5416 27.2241 66.6894L28.6418 67.0966C29.1624 67.2464 29.464 67.7896 29.3141 68.3102L29.1797 68.7828L25.8739 67.8363Z" fill="#F52F6A"/>
</g>
<path d="M28.1085 69.1258C27.7347 70.4326 26.3745 71.1843 25.0718 70.8106L18.4602 68.9135C18.0922 68.8104 17.7529 68.6217 17.4716 68.3646C17.7207 69.1444 18.3448 69.7478 19.1309 69.9758L25.7469 71.8646C27.0496 72.2383 28.4119 71.4845 28.7856 70.182L29.1928 68.7644L28.2853 68.5048L28.1085 69.1258Z" fill="#F52F6A"/>
<path d="M21.2492 63.4752C21.2342 63.4938 21.2192 63.5083 21.2022 63.5206C21.1449 63.5511 21.0776 63.5583 21.0148 63.5404C20.95 63.5246 20.8982 63.4796 20.8656 63.4244C20.6679 63.07 20.2183 62.9424 19.8639 63.1442C19.7873 63.1933 19.6886 63.1937 19.6095 63.1503C19.5304 63.1027 19.4836 63.0199 19.4852 62.9275C19.4889 62.8372 19.5428 62.7562 19.6255 62.7135C20.2155 62.3834 20.9641 62.594 21.2942 63.1839C21.3472 63.2815 21.3262 63.4009 21.2492 63.4752Z" fill="#F52F6A"/>
<path d="M22.5185 62.7688C22.5056 62.7854 22.4907 62.7998 22.4736 62.8122C22.3569 62.8795 22.2084 62.837 22.1411 62.7202C21.8537 62.2088 21.377 61.8307 20.8124 61.6737C20.2478 61.5126 19.6413 61.5861 19.1298 61.8734C19.0089 61.9407 18.8541 61.9001 18.7848 61.7771C18.7154 61.6582 18.7581 61.5013 18.879 61.4341C19.5051 61.0815 20.2421 60.9935 20.9343 61.1884C21.6244 61.3811 22.209 61.841 22.5574 62.4669C22.6166 62.5667 22.5997 62.6904 22.5185 62.7688Z" fill="#F52F6A"/>
</g>
<mask id="mask2_339_8837" style="mask-type:luminance" maskUnits="userSpaceOnUse" x="14" y="32" width="18" height="17">
<path d="M14.2026 36.705L29.0991 32.9909L31.9503 44.4265L17.0538 48.1407L14.2026 36.705Z" fill="white"/>
</mask>
<g mask="url(#mask2_339_8837)">
<mask id="mask3_339_8837" style="mask-type:alpha" maskUnits="userSpaceOnUse" x="16" y="34" width="15" height="14">
<path d="M16.2291 37.4053L27.6552 34.5564L30.0502 44.1624L18.6241 47.0112L16.2291 37.4053Z" fill="#FF0000"/>
</mask>
<g mask="url(#mask3_339_8837)">
<path d="M26.6143 34.8159L17.267 37.1465C16.6933 37.2895 16.3448 37.8694 16.4878 38.4431L17.7824 43.6353C17.9254 44.209 18.5061 44.5603 19.0798 44.4172L20.6396 44.0283L21.2219 46.3635L24.2725 43.1226L28.4271 42.0867C29.0009 41.9436 29.3515 41.3601 29.2085 40.7864L27.9139 35.5943C27.7709 35.0206 27.1881 34.6729 26.6143 34.8159Z" fill="#F52F6A"/>
</g>
<path d="M25.8386 38.3115L21.1649 39.4768C20.8795 39.5479 20.5885 39.3755 20.5166 39.0872C20.4454 38.8018 20.6207 38.5101 20.9062 38.4389L25.5798 37.2736C25.8682 37.2017 26.157 37.3778 26.2282 37.6632C26.3001 37.9515 26.1269 38.2396 25.8386 38.3115Z" fill="white"/>
<path d="M26.3271 40.3864L20.0937 41.9406C19.8082 42.0118 19.5172 41.8394 19.4453 41.5511C19.3741 41.2657 19.5495 40.9739 19.8349 40.9028L26.0684 39.3486C26.3538 39.2774 26.6456 39.4527 26.7167 39.7381C26.7886 40.0264 26.6126 40.3153 26.3271 40.3864Z" fill="#F4F6FF"/>
<path d="M26.7335 39.7347C26.6624 39.4493 26.3706 39.274 26.0852 39.3452L20.7455 40.6765C21.6705 41.1563 22.7371 41.2823 23.7462 41.0307L26.3439 40.383C26.6294 40.3119 26.8054 40.023 26.7335 39.7347Z" fill="white"/>
</g>
<mask id="mask4_339_8837" style="mask-type:luminance" maskUnits="userSpaceOnUse" x="63" y="29" width="19" height="17">
<path d="M78.8756 29.9643L63.4025 33.8222L66.2537 45.2578L81.7268 41.3999L78.8756 29.9643Z" fill="white"/>
</mask>
<g mask="url(#mask4_339_8837)">
<mask id="mask5_339_8837" style="mask-type:alpha" maskUnits="userSpaceOnUse" x="65" y="31" width="15" height="14">
<path d="M77.3459 31.5457L65.4775 34.5048L67.8725 44.1107L79.7409 41.1516L77.3459 31.5457Z" fill="#FF0000"/>
</mask>
<g mask="url(#mask5_339_8837)">
<path d="M66.5586 34.2352L76.2678 31.8145C76.8637 31.6659 77.4616 32.0098 77.6047 32.5835L78.8992 37.7757C79.0422 38.3494 78.6765 38.9366 78.0806 39.0852L76.4604 39.4892L77.0426 41.8244L72.6869 40.43L68.3714 41.506C67.7754 41.6546 67.1738 41.3085 67.0308 40.7348L65.7362 35.5426C65.5932 34.9689 65.9626 34.3838 66.5586 34.2352Z" fill="#F52F6A"/>
</g>
<path d="M68.9587 36.94L73.8133 35.7296C74.1098 35.6557 74.2949 35.3646 74.223 35.0763C74.1519 34.7909 73.851 34.6179 73.5546 34.6918L68.7 35.9022C68.4005 35.9768 68.2191 36.2701 68.2903 36.5555C68.3622 36.8438 68.6593 37.0147 68.9587 36.94Z" fill="white"/>
<path d="M69.4663 39.0135L75.9411 37.3991C76.2376 37.3252 76.4226 37.0341 76.3508 36.7458C76.2796 36.4604 75.9788 36.2873 75.6823 36.3613L69.2075 37.9756C68.9111 38.0495 68.7267 38.3435 68.7979 38.6289C68.8697 38.9172 69.1698 39.0874 69.4663 39.0135Z" fill="#F4F6FF"/>
<path d="M68.8019 38.6287C68.7307 38.3433 68.9151 38.0493 69.2116 37.9754L74.7579 36.5925C74.1371 37.4577 73.2168 38.0791 72.1686 38.3405L69.4703 39.0133C69.1738 39.0872 68.8738 38.917 68.8019 38.6287Z" fill="white"/>
</g>
<mask id="mask6_339_8837" style="mask-type:luminance" maskUnits="userSpaceOnUse" x="68" y="46" width="14" height="13">
<path d="M68.7394 48.9225L78.9267 46.3825L81.2508 55.704L71.0635 58.244L68.7394 48.9225Z" fill="white"/>
</mask>
<g mask="url(#mask6_339_8837)">
<path d="M75.4013 53.5769C74.6546 53.7631 73.891 53.3043 73.7041 52.5547C73.5179 51.808 73.9768 51.0444 74.7235 50.8583C75.4732 50.6714 76.2368 51.1301 76.4229 51.8768C76.6098 52.6264 76.151 53.39 75.4013 53.5769ZM77.8467 51.8966C77.8302 51.7813 77.8123 51.6603 77.7821 51.5392C77.7512 51.4152 77.7109 51.3028 77.6648 51.1918L78.283 50.4038C78.3356 50.3325 78.3314 50.2294 78.2687 50.1624L77.2324 49.0887C77.1654 49.0166 77.0638 49.0144 76.9895 49.0605L76.1776 49.6487C75.9514 49.552 75.723 49.4834 75.478 49.4465L75.1031 48.5203C75.0664 48.4345 74.9756 48.3898 74.8834 48.4128L73.436 48.7736C73.3438 48.7966 73.2875 48.878 73.2954 48.971L73.3992 49.9648C73.2002 50.1124 73.0257 50.2845 72.8764 50.4718L71.8834 50.3336C71.7947 50.322 71.7075 50.3774 71.6822 50.4725L71.2712 51.907C71.2452 51.9993 71.2891 52.0894 71.3748 52.1262L72.2877 52.5324C72.2991 52.6521 72.3149 52.7767 72.3444 52.8949C72.3738 53.0131 72.4127 53.1321 72.4609 53.2395L71.8435 54.0303C71.7908 54.1017 71.7951 54.2047 71.8548 54.2725L72.8941 55.3454C72.9603 55.4146 73.0627 55.4197 73.1362 55.3708L73.9459 54.7861C74.1722 54.8828 74.4035 54.9507 74.6477 54.9847L75.0226 55.911C75.0629 55.9989 75.1508 56.0443 75.2431 56.0213L76.6904 55.6605C76.7827 55.6375 76.8418 55.5554 76.8304 55.4602L76.7265 54.4664C76.9263 54.3217 77.0972 54.1474 77.2501 53.9623L78.2395 54.0984C78.331 54.1093 78.4182 54.0538 78.4414 53.9623L78.8552 52.5271C78.8813 52.4349 78.8374 52.3448 78.7516 52.308L77.8467 51.8966Z" fill="#F52F6A"/>
</g>
<mask id="mask7_339_8837" style="mask-type:luminance" maskUnits="userSpaceOnUse" x="27" y="23" width="46" height="63">
<path d="M27.91 30.8687L58.8563 23.1529L72.5374 78.0247L41.5911 85.7405L27.91 30.8687Z" fill="white"/>
</mask>
<g mask="url(#mask7_339_8837)">
<path d="M49.1436 50.7687C54.4679 49.4412 58.3582 46.6285 57.8254 44.4916C57.2927 42.3548 56.3555 38.9646 55.7339 36.926L54.6078 33.2321C52.3913 29.415 47.9077 27.5228 43.6139 28.5903C39.3215 29.6636 36.2511 33.4392 36.0861 37.85L36.8259 41.6402C37.2342 43.7321 37.9983 47.1654 38.5311 49.3022C39.0639 51.4391 43.8193 52.0962 49.1436 50.7687Z" fill="#F65585"/>
<path d="M49.3445 30.1576C48.4697 29.9164 47.6213 30.1861 47.4516 30.7582C47.2782 31.3281 47.8493 31.9849 48.7233 32.2233C49.5981 32.4645 50.4465 32.1948 50.6162 31.6227C50.7867 31.0535 50.2185 30.396 49.3445 30.1576Z" fill="#EA1B59"/>
<mask id="mask8_339_8837" style="mask-type:alpha" maskUnits="userSpaceOnUse" x="36" y="47" width="29" height="16">
<path d="M36.3427 53.8146L62.0752 47.3987L64.3387 56.4771L38.6061 62.8929L36.3427 53.8146Z" fill="#FF0000"/>
</mask>
<g mask="url(#mask8_339_8837)">
<path d="M37.9246 60.2273C38.2872 61.7018 39.8182 62.5907 41.3414 62.211L61.4966 57.1857C63.0198 56.8059 63.9537 55.3025 63.5807 53.8305L62.905 51.1634C62.1014 49.0947 59.8861 47.9476 57.7287 48.4824L55.846 48.9518C54.8069 49.2109 53.4667 50.595 52.8551 52.0406L51.3099 55.6927C51.1764 56.0046 50.9067 56.2372 50.5759 56.3228C50.2465 56.4018 49.8963 56.3238 49.6319 56.111L46.5553 53.6119C45.337 52.6222 43.5041 52.029 42.4651 52.2881L40.5823 52.7575C38.4264 53.2981 37.0061 55.3517 37.2677 57.5555L37.9246 60.2273Z" fill="#84ABE6"/>
</g>
<path d="M52.275 49.2195L51.5282 46.2241C49.8198 47.8718 47.3575 48.4857 45.0756 47.8329L45.8224 50.8283C45.8957 51.1223 45.7139 51.4249 45.4169 51.4989L44.3444 51.7663L49.6465 56.045C49.9123 56.2635 50.2683 56.3402 50.6027 56.2568C50.9372 56.1734 51.2155 55.9386 51.3476 55.6209L54.0204 49.3538L52.9479 49.6213C52.6509 49.6953 52.3483 49.5135 52.275 49.2195Z" fill="#E4EFFF"/>
<path d="M51.1595 33.7327L48.8213 34.3157C48.6194 34.366 48.4069 34.2996 48.2722 34.1402L47.6068 33.363C47.4721 33.2037 47.2596 33.1372 47.0578 33.1876C46.8559 33.2379 46.6995 33.3963 46.6554 33.6002L46.4327 34.5989C46.3886 34.8028 46.2321 34.9612 46.0303 35.0115L39.4249 36.6585C39.1308 36.7318 38.9512 37.0307 39.0245 37.3248L40.4362 42.9869C41.2793 46.5401 44.7926 48.7783 48.3655 48.0375C50.0918 47.6408 51.5879 46.5665 52.5128 45.056C53.4384 43.5483 53.7192 41.7267 53.2908 40.0085L51.8259 34.133C51.7526 33.839 51.4536 33.6594 51.1595 33.7327Z" fill="#E4EFFF"/>
<path d="M51.9038 47.8764L51.4941 46.2332C49.8109 47.9083 47.366 48.5179 45.0934 47.829L45.4959 49.4435C46.5717 49.7908 47.711 49.8405 48.803 49.5896C49.9736 49.3223 51.0478 48.7299 51.9038 47.8764Z" fill="#B1CCF7"/>
<path d="M51.1009 33.652L48.7626 34.235C48.5608 34.2853 48.3482 34.2189 48.215 34.0653L47.5518 33.2967C47.4178 33.1403 47.2053 33.0739 47.0034 33.1242C46.8016 33.1745 46.6451 33.3329 46.6003 33.534L46.3755 34.524C46.33 34.7221 46.1735 34.8806 45.9717 34.9309L39.3663 36.5778C39.0722 36.6511 38.8918 36.9472 38.9651 37.2412L39.3598 38.824C39.2872 38.5328 39.4675 38.2367 39.7616 38.1634L46.367 36.5165C46.5688 36.4662 46.7253 36.3077 46.7702 36.1067L46.9949 35.1167C47.0397 34.9157 47.1962 34.7572 47.3981 34.7069C47.5999 34.6566 47.8124 34.723 47.9464 34.8795L48.6096 35.6481C48.7436 35.8045 48.9561 35.871 49.158 35.8206L51.4962 35.2376C51.7903 35.1643 52.0886 35.341 52.1612 35.6322L51.7665 34.0495C51.6932 33.7554 51.395 33.5787 51.1009 33.652Z" fill="#BED5F8"/>
<path d="M42.5483 42.3919L41.138 36.7356C41.0647 36.4415 41.2472 36.1419 41.5471 36.0671L39.3847 36.6063C39.0848 36.681 38.9023 36.9807 38.9756 37.2748L40.3859 42.9311C41.2282 46.4814 44.7812 48.7067 48.4031 47.9537C48.8139 47.8574 49.2154 47.7236 49.6018 47.5537C46.288 47.7492 43.321 45.5768 42.5483 42.3919Z" fill="#BED5F8"/>
<path d="M45.2316 42.7679C45.1813 42.5661 45.3047 42.3608 45.5065 42.3105C45.7083 42.2602 45.9136 42.3835 45.9639 42.5853C46.1149 43.1908 46.7279 43.5615 47.3363 43.4098C47.9418 43.2589 48.3119 42.643 48.1609 42.0376C48.1106 41.8358 48.2311 41.6312 48.4358 41.5801C48.6376 41.5298 48.8401 41.6539 48.8904 41.8557C49.142 42.8647 48.5273 43.8876 47.5189 44.1421C46.5062 44.3916 45.4832 43.777 45.2316 42.7679Z" fill="#465282"/>
<path d="M50.4284 38.7574C50.2266 38.8077 50.0213 38.6844 49.9709 38.4825C49.9206 38.2807 49.7153 38.1574 49.5135 38.2077C49.3117 38.258 49.1883 38.4633 49.2386 38.6651C49.2889 38.8669 49.1656 39.0722 48.9637 39.1226C48.7619 39.1729 48.5566 39.0495 48.5063 38.8477C48.3553 38.2423 48.7254 37.6264 49.3309 37.4754C49.9364 37.3245 50.5523 37.6945 50.7033 38.3C50.7536 38.5018 50.6302 38.7071 50.4284 38.7574Z" fill="#465282"/>
<path d="M43.8512 40.3969C43.6494 40.4472 43.4441 40.3239 43.3937 40.1221C43.3434 39.9203 43.1381 39.7969 42.9363 39.8472C42.7345 39.8976 42.6111 40.1029 42.6614 40.3047C42.7117 40.5065 42.5884 40.7118 42.3865 40.7621C42.1847 40.8124 41.9794 40.6891 41.9291 40.4873C41.7781 39.8818 42.1482 39.2659 42.7537 39.115C43.3592 38.964 43.9751 39.3341 44.1261 39.9395C44.1764 40.1413 44.053 40.3466 43.8512 40.3969Z" fill="#465282"/>
<path d="M41.2894 49.4148C41.1279 49.455 40.9593 49.4174 40.8261 49.3129C39.6707 48.4006 38.7281 47.2362 38.0623 45.9048C37.9162 45.6013 37.7917 45.2863 37.6932 44.9649L37.1646 43.3114C37.12 43.1694 37.1309 43.0167 37.1966 42.887C37.2615 42.7544 37.3755 42.6587 37.511 42.6126C37.7957 42.5263 38.099 42.6865 38.1961 42.9777L38.7219 44.6318C38.8038 44.8992 38.906 45.1616 39.0298 45.4125C39.6185 46.5947 40.4582 47.6285 41.4846 48.4413C41.6517 48.5711 41.7301 48.7874 41.6868 48.9941C41.647 49.2031 41.4948 49.3666 41.293 49.4169L41.2894 49.4148Z" fill="#465282"/>
<path d="M35.8171 37.9699L36.3649 37.8333C36.6648 37.7586 36.9695 37.9368 37.0421 38.2279L38.6328 44.6079C38.7061 44.9019 38.52 45.1994 38.2201 45.2742L37.6723 45.4108C36.4671 45.7113 35.2525 45.0036 34.96 43.8302L34.165 40.6417C33.8717 39.4655 34.6119 38.2704 35.8171 37.9699Z" fill="#465282"/>
<path d="M54.5642 33.287L55.112 33.1505C56.3171 32.85 57.5317 33.5577 57.825 34.7339L58.62 37.9224C58.9125 39.0958 58.1723 40.2908 56.9672 40.5913L56.4194 40.7279C56.1195 40.8027 55.8155 40.6274 55.7422 40.3333L54.1515 33.9534C54.0789 33.6622 54.2643 33.3618 54.5642 33.287Z" fill="#465282"/>
<path d="M43.0949 49.2779C43.2387 49.8545 42.888 50.438 42.3114 50.5817C41.7376 50.7248 41.1541 50.3742 41.0103 49.7976C40.8673 49.2239 41.2179 48.6404 41.7917 48.4974C42.3683 48.3536 42.9519 48.7042 43.0949 49.2779Z" fill="#465282"/>
<path d="M82.9895 7.75242L99.7375 74.9248L23.3328 93.9746L6.58484 26.8022L82.9895 7.75242Z" stroke="#2462A2" stroke-opacity="0.5" stroke-width="0.124998"/>
<path d="M37.804 59.7835L40.6433 71.1711C42.4101 78.2573 49.5852 82.5682 56.6721 80.8012C63.759 79.0343 68.0705 71.8595 66.3037 64.7732L63.4645 53.3856L37.804 59.7835Z" fill="#89ACE1"/>
</g>
<mask id="mask9_339_8837" style="mask-type:luminance" maskUnits="userSpaceOnUse" x="41" y="55" width="26" height="26">
<path d="M41.1584 60.7013L61.9174 55.5255L66.7333 74.8411L45.9743 80.017L41.1584 60.7013Z" fill="white"/>
</mask>
<g mask="url(#mask9_339_8837)">
<path d="M49.2731 58.835L49.2702 58.8357C48.111 59.3452 47.0533 60.0774 46.1677 60.9842C46.1677 60.9842 46.1677 60.9842 46.1648 60.9849C45.2821 61.8909 44.5737 62.9678 44.0965 64.1371C44.0944 64.1407 44.0944 64.1407 44.0951 64.1436C43.5985 65.3575 43.3504 66.6718 43.3676 67.9812C43.3683 67.984 43.3683 67.984 43.3654 67.9848C43.3751 68.6499 43.4489 69.3144 43.5897 69.9652C43.7205 70.5634 43.906 71.1479 44.1471 71.7094C44.1579 71.7404 44.1723 71.7736 44.1867 71.8067L44.1874 71.8096C44.6969 72.9687 45.4291 74.0263 46.3359 74.9118C46.3359 74.9118 46.3359 74.9118 46.3366 74.9146C47.2426 75.7972 48.3196 76.5056 49.4896 76.9855C49.4925 76.9848 49.4925 76.9848 49.4925 76.9848C50.7066 77.4813 52.0238 77.7286 53.3333 77.7113C53.3333 77.7113 53.3362 77.7106 53.3369 77.7135C54.0021 77.7038 54.6666 77.63 55.3175 77.4892C55.9474 77.3505 56.5652 77.1505 57.1592 76.8922L57.1621 76.8914C57.4519 76.7641 57.7352 76.623 58.012 76.4682C58.2889 76.3135 58.5564 76.1457 58.8181 75.9672C59.0762 75.7865 59.3286 75.5949 59.5687 75.3911C59.8117 75.1866 60.0425 74.9699 60.2646 74.743C60.2646 74.743 60.2646 74.743 60.2675 74.7423C60.4867 74.5161 60.6966 74.277 60.8956 74.0314C61.0947 73.7858 61.2815 73.5279 61.4547 73.2643C61.6278 73.0006 61.7894 72.7276 61.9366 72.446C61.9366 72.446 61.9713 72.3761 62.0434 72.2356C62.112 72.093 62.2181 71.8797 62.3379 71.5865C62.1441 71.5093 62.0482 71.4689 62.0482 71.4689C61.9524 71.4284 61.8537 71.3888 61.7586 71.3512C61.6628 71.3108 61.5641 71.2711 61.4683 71.2307C61.4683 71.2307 61.3731 71.1932 61.1786 71.1131C61.074 71.3688 60.983 71.5568 60.9217 71.6793C60.8603 71.8018 60.83 71.8645 60.83 71.8645C60.7009 72.1079 60.558 72.3457 60.408 72.5791C60.2572 72.8096 60.092 73.0314 59.9196 73.2489C59.7465 73.4636 59.5619 73.6688 59.3693 73.8669C59.3701 73.8698 59.3701 73.8698 59.3672 73.8705C59.1746 74.0686 58.9734 74.2565 58.7607 74.4351C58.5509 74.613 58.3324 74.7807 58.1053 74.9384C57.8782 75.0961 57.6417 75.2408 57.4031 75.3768C57.1608 75.5107 56.9128 75.6338 56.6584 75.7432L56.6562 75.7468C56.1393 75.9706 55.6009 76.1446 55.0523 76.2661C54.4858 76.389 53.9049 76.4542 53.3219 76.4618C53.3219 76.4618 53.319 76.4625 53.3183 76.4596C52.1738 76.4755 51.0266 76.2593 49.9661 75.8256C49.9661 75.8256 49.9661 75.8256 49.9632 75.8263C48.943 75.407 48.0022 74.7903 47.2121 74.0166C47.2121 74.0166 47.2092 74.0173 47.2085 74.0144C46.4191 73.2436 45.7783 72.3193 45.3365 71.3088C45.3357 71.3059 45.3329 71.3066 45.3321 71.3037C45.3221 71.2756 45.3091 71.2482 45.2991 71.2201C45.0911 70.7299 44.9271 70.2196 44.8129 69.7C44.69 69.1335 44.6248 68.5527 44.6172 67.9697L44.6194 67.9661C44.6036 66.8217 44.8198 65.6746 45.2536 64.6141L45.2529 64.6112C45.6723 63.5911 46.2891 62.6503 47.0629 61.8603C47.0629 61.8603 47.0622 61.8574 47.0651 61.8567C47.836 61.0673 48.7603 60.4265 49.771 59.9847C49.7739 59.984 49.7739 59.984 49.7761 59.9804C50.2929 59.7566 50.8314 59.5825 51.3799 59.4611C51.9493 59.3375 52.5274 59.273 53.1104 59.2654L53.114 59.2676C53.114 59.2676 53.1839 59.2654 53.3252 59.267C53.4671 59.2714 53.679 59.2737 53.9579 59.2991C54.5186 59.3491 55.3682 59.465 56.4151 59.8807C56.4952 59.6862 56.5327 59.5911 56.5327 59.5911C56.5724 59.4923 56.61 59.3973 56.6504 59.3014C56.6872 59.2035 56.7276 59.1076 56.7673 59.0089C56.7673 59.0089 56.8049 58.9138 56.8821 58.72C55.6789 58.2422 54.7053 58.1083 54.0661 58.0503C53.744 58.0234 53.5011 58.0197 53.3411 58.0167C53.1782 58.0144 53.099 58.0158 53.099 58.0158L53.0961 58.0165C52.4302 58.0233 51.7657 58.0972 51.1148 58.238C51.0196 58.2617 50.9238 58.2826 50.8258 58.307C50.2952 58.4393 49.7755 58.6148 49.2731 58.835Z" fill="white"/>
<path d="M54.6721 61.15L59.6635 61.2589L57.2614 56.8818L54.6721 61.15Z" fill="white"/>
<path d="M50.2051 68.0489C50.2947 67.8184 50.3164 67.6109 50.2711 67.4293C50.2251 67.2447 50.1265 67.107 49.9745 67.0133C49.8232 66.9224 49.6546 66.8971 49.4643 66.9445C49.1183 67.0308 48.8543 67.3599 48.668 67.9269L47.5404 67.5926C47.6978 67.1308 47.9048 66.7576 48.1594 66.4767C48.414 66.1959 48.781 65.9972 49.2538 65.8793C49.7295 65.7607 50.1821 65.8071 50.6151 66.0206C51.0502 66.2306 51.3311 66.5954 51.4605 67.1143C51.5309 67.3969 51.5264 67.6858 51.4469 67.9812C51.3675 68.2767 51.1849 68.6743 50.8991 69.1743L50.1639 70.4508L52.3321 69.9102L52.6067 71.0115L48.7345 71.9769L48.5074 71.0659L49.7044 69.0128C49.9482 68.603 50.1156 68.2795 50.2051 68.0489Z" fill="white"/>
<path d="M54.2742 68.0927L54.0355 67.1355L55.2148 66.8415L55.4534 67.7987L56.0733 67.6441L56.3378 68.705L55.7179 68.8596L56.045 70.1713L54.8657 70.4653L54.5387 69.1536L52.3302 69.7042L52.0973 68.7702L53.2456 65.0359L54.5805 64.703L53.4957 68.2868L54.2742 68.0927Z" fill="white"/>
<path d="M58.3117 62.8809L59.4275 62.6027L57.9225 70.6303L56.8154 70.9063L58.3117 62.8809Z" fill="white"/>
<path d="M60.0339 65.2138L59.5947 63.4523L63.5619 62.4632L63.7934 63.3915L62.7083 68.5094L61.3734 68.8422L62.3885 63.8734L61.0045 64.2185L61.1814 64.9277L60.0339 65.2138Z" fill="white"/>
</g>
</g>
<defs>
<clipPath id="clip0_339_8837">
<rect width="85.6784" height="85.6784" fill="white" transform="translate(0.105469 20.7275) rotate(-14)"/>
</clipPath>
</defs>
</svg>
