<svg width="90" height="85" viewBox="0 0 90 85" fill="none" xmlns="http://www.w3.org/2000/svg">
<path d="M21.5296 19.1332C21.4332 19.1332 21.3548 19.0547 21.3548 18.9583V14.59C21.3548 14.4936 21.4332 14.4151 21.5296 14.4151C21.626 14.4151 21.7045 14.4936 21.7045 14.59V18.9583C21.7045 19.0547 21.626 19.1332 21.5296 19.1332Z" fill="#364F66"/>
<path d="M19.9627 19.7066C19.8663 19.7066 19.7879 19.6282 19.7879 19.5318V10.2217C19.7879 10.1253 19.8663 10.0468 19.9627 10.0468C20.0591 10.0468 20.1376 10.1253 20.1376 10.2217V19.5318C20.1376 19.6282 20.0591 19.7066 19.9627 19.7066Z" fill="#364F66"/>
<path d="M18.3144 20.4437C18.218 20.4437 18.1395 20.3653 18.1395 20.2689V12.7335C18.1395 12.6371 18.218 12.5586 18.3144 12.5586C18.4108 12.5586 18.4892 12.6371 18.4892 12.7335V20.2689C18.4892 20.3653 18.4108 20.4437 18.3144 20.4437Z" fill="#364F66"/>
<path d="M16.5534 21.0627C16.457 21.0627 16.3785 20.9842 16.3785 20.8878V16.7742C16.3785 16.6778 16.457 16.5993 16.5534 16.5993C16.6498 16.5993 16.7283 16.6778 16.7283 16.7742V20.8878C16.7283 20.9842 16.6498 21.0627 16.5534 21.0627Z" fill="#364F66"/>
<path d="M72.867 24.4393C72.7706 24.4393 72.6922 24.3608 72.6922 24.2644V19.8961C72.6922 19.7997 72.7706 19.7212 72.867 19.7212C72.9634 19.7212 73.0419 19.7997 73.0419 19.8961V24.2644C73.0419 24.3608 72.9634 24.4393 72.867 24.4393Z" fill="#364F66"/>
<path d="M74.4327 25.0127C74.3363 25.0127 74.2579 24.9342 74.2579 24.8379V15.5277C74.2579 15.4313 74.3363 15.3529 74.4327 15.3529C74.5291 15.3529 74.6076 15.4313 74.6076 15.5277V24.8379C74.6076 24.9341 74.5291 25.0127 74.4327 25.0127Z" fill="#364F66"/>
<path d="M76.0809 25.7498C75.9846 25.7498 75.9061 25.6713 75.9061 25.5749V18.0395C75.9061 17.9432 75.9846 17.8647 76.0809 17.8647C76.1773 17.8647 76.2558 17.9432 76.2558 18.0395V25.5749C76.256 25.6713 76.1775 25.7498 76.0809 25.7498Z" fill="#364F66"/>
<path d="M77.8421 26.3688C77.7457 26.3688 77.6672 26.2903 77.6672 26.1939V22.0802C77.6672 21.9839 77.7457 21.9054 77.8421 21.9054C77.9385 21.9054 78.017 21.9839 78.017 22.0802V26.1939C78.017 26.2903 77.9385 26.3688 77.8421 26.3688Z" fill="#364F66"/>
<path d="M70.0796 37.9945C70.0736 37.9945 70.0669 37.9941 70.06 37.9932C69.9637 37.9822 69.8954 37.8955 69.9064 37.7999C69.9125 37.7407 70.0804 36.3509 70.9465 35.8598C71.3587 35.626 71.8493 35.6362 72.4021 35.8867C72.449 35.9156 73.8287 36.9258 74.7083 36.5224C75.1554 36.3181 75.4148 35.7677 75.4797 34.8867C75.4866 34.7903 75.5719 34.7092 75.6666 34.7254C75.763 34.7323 75.8356 34.8163 75.8279 34.9123C75.7528 35.9305 75.4252 36.5791 74.8536 36.8401C73.7811 37.3324 72.2889 36.2331 72.2266 36.1862C71.8112 36.0028 71.4281 35.9888 71.1192 36.164C70.4059 36.5679 70.255 37.8269 70.2532 37.8393C70.2435 37.9283 70.1675 37.9945 70.0796 37.9945Z" fill="#364F66"/>
<path d="M68.1669 8.45851C68.1617 8.45851 68.1575 8.45801 68.1523 8.45768C68.0559 8.44948 67.9843 8.36514 67.9929 8.26909L68.2129 5.64551C67.6302 5.60452 65.8154 5.47367 65.4579 5.41042C65.3632 5.39385 65.3002 5.30333 65.3164 5.20828C65.3343 5.11274 65.423 5.04965 65.5194 5.06672C65.9178 5.13717 68.3888 5.30734 68.4134 5.30902C68.4604 5.31236 68.5039 5.33411 68.5337 5.36959C68.5645 5.40506 68.5797 5.45158 68.5755 5.49793L68.3409 8.29804C68.3332 8.3894 68.2573 8.45851 68.1669 8.45851Z" fill="#364F66"/>
<path d="M12.5119 80.4624C11.6782 80.4624 11 79.784 11 78.9501C11 78.1164 11.6782 77.4382 12.5119 77.4382C13.3455 77.4382 14.0237 78.1166 14.0237 78.9501C14.0237 79.7842 13.3453 80.4624 12.5119 80.4624ZM12.5119 77.7881C11.8711 77.7881 11.3497 78.3094 11.3497 78.9502C11.3497 79.5914 11.871 80.1127 12.5119 80.1127C13.1527 80.1127 13.6739 79.5914 13.6739 78.9502C13.6738 78.3094 13.1526 77.7881 12.5119 77.7881Z" fill="#364F66"/>
<path d="M73.2228 77.602C73.1264 77.602 73.0479 77.5236 73.0479 77.4272V73.0588C73.0479 72.9625 73.1264 72.884 73.2228 72.884C73.3191 72.884 73.3976 72.9625 73.3976 73.0588V77.4272C73.3978 77.5236 73.3193 77.602 73.2228 77.602Z" fill="#364F66"/>
<path d="M71.6564 78.1755C71.56 78.1755 71.4815 78.097 71.4815 78.0006V68.6905C71.4815 68.5941 71.56 68.5157 71.6564 68.5157C71.7528 68.5157 71.8312 68.5941 71.8312 68.6905V78.0006C71.8312 78.097 71.7528 78.1755 71.6564 78.1755Z" fill="#364F66"/>
<path d="M70.0092 78.9126C69.9128 78.9126 69.8343 78.8341 69.8343 78.7377V71.2023C69.8343 71.1059 69.9128 71.0274 70.0092 71.0274C70.1056 71.0274 70.1841 71.1059 70.1841 71.2023V78.7377C70.1841 78.8341 70.1056 78.9126 70.0092 78.9126Z" fill="#364F66"/>
<path d="M68.247 79.5315C68.1506 79.5315 68.0721 79.4531 68.0721 79.3567V75.243C68.0721 75.1466 68.1506 75.0682 68.247 75.0682C68.3434 75.0682 68.4219 75.1466 68.4219 75.243V79.3567C68.4219 79.4531 68.3434 79.5315 68.247 79.5315Z" fill="#364F66"/>
<path d="M20.5183 46.9088C20.5131 46.9088 20.5089 46.9084 20.5037 46.9079C20.4074 46.8999 20.3356 46.8154 20.3441 46.7194L20.5643 44.0961C19.9815 44.0548 18.1668 43.9238 17.8094 43.8607C17.7147 43.8441 17.6516 43.7536 17.6678 43.6585C17.6849 43.5633 17.7779 43.4972 17.8709 43.517C18.2702 43.5874 20.7402 43.7579 20.7649 43.7598C20.8118 43.7631 20.8554 43.7849 20.8852 43.8204C20.916 43.8562 20.9312 43.9023 20.9271 43.9487L20.6925 46.7485C20.6846 46.8397 20.6086 46.9088 20.5183 46.9088Z" fill="#364F66"/>
<path d="M54.5336 41.8579C54.2864 41.9017 54.0368 41.7593 53.9553 41.5137C53.8643 41.2431 54.0098 40.9504 54.2806 40.8599C62.5189 38.098 61.0602 25.008 61.0448 24.876C61.0111 24.5942 61.2029 24.3477 61.4959 24.3027C61.7797 24.2688 62.0359 24.471 62.0697 24.7543C62.1376 25.3269 63.635 38.8126 54.6079 41.839C54.5838 41.8468 54.5583 41.8534 54.5336 41.8579Z" fill="#DBE7FE"/>
<path d="M63.6374 15.8605C66.1237 19.8326 64.9193 25.0677 60.9482 27.5536L60.9178 27.5727C59.8577 28.2269 58.368 28.1903 56.6943 27.3078C53.3156 25.5266 50.4659 20.9742 50.3284 17.1378C50.2598 15.22 50.8826 13.844 51.9453 13.1709L51.9739 13.153C55.9411 10.6907 61.1575 11.8988 63.6374 15.8605Z" fill="#DBE7FE"/>
<path d="M64.5324 22.9257C63.9478 24.7796 62.7254 26.4417 60.9487 27.5536L60.9185 27.5732C59.8577 28.2274 58.3682 28.1896 56.694 27.3073C53.3156 25.5259 50.4662 20.9737 50.3286 17.1374C50.2607 15.2202 50.8831 13.8437 51.9452 13.1714L51.9739 13.1533C52.9983 12.5173 54.1074 12.1259 55.2299 11.9642C55.816 12.4221 56.3087 13.0671 57.0309 13.2137C57.7621 13.3633 58.5976 12.9659 59.2293 13.3633C59.8004 13.7214 59.9257 14.5887 60.5408 14.8651C60.9502 15.0495 61.467 14.9074 61.8461 15.1477C62.2783 15.4196 62.3145 16.0285 62.2708 16.5377C62.2285 17.0469 62.1816 17.6316 62.5382 17.9957C62.7587 18.2222 63.0897 18.3084 63.3193 18.5229C63.6215 18.8024 63.7002 19.2497 63.6864 19.6606C63.6729 20.0716 63.5852 20.4826 63.6245 20.892C63.6955 21.6368 64.1698 22.2624 64.5324 22.9257Z" fill="#C6D7F4"/>
<path d="M62.798 25.2314C62.792 27.5581 61.9701 29.196 60.645 29.965L59.2565 30.7719C60.5831 30.0013 56.0866 29.206 56.0926 26.8793C56.1062 22.194 55.2193 22.4075 51.1445 20.055C49.0927 18.8705 50.1412 11.9989 48.7995 12.7785L50.1865 11.9731C51.5297 11.192 53.3881 11.3023 55.44 12.4868C59.5164 14.8408 62.8116 20.5461 62.798 25.2314Z" fill="#162830"/>
<path d="M54.0525 13.2937C49.9757 10.9398 46.6594 12.8285 46.646 17.5131C46.6328 22.1965 49.9275 27.9047 54.0045 30.2585C58.0802 32.6117 61.3979 30.7212 61.4111 26.0378C61.4243 21.353 58.1284 15.6467 54.0525 13.2937Z" fill="#324566"/>
<path d="M54.0418 17.0667C51.7785 15.76 49.9373 16.8085 49.93 19.4091C49.9226 22.0093 51.7519 25.1782 54.0152 26.485C56.278 27.7914 58.1198 26.7419 58.1272 24.1417C58.1345 21.5411 56.3046 18.373 54.0418 17.0667Z" fill="#1C323D"/>
<path d="M57.4751 26.3057C56.7439 27.191 55.4656 27.3225 54.0152 26.4855C51.7519 25.1785 49.9221 22.0088 49.9296 19.41C49.9342 17.8779 50.5749 16.8838 51.5645 16.5936C51.1535 17.0908 50.9147 17.8235 50.9117 18.7572C50.9042 21.3575 52.7339 24.5258 54.9972 25.8328C55.9264 26.3691 56.786 26.5081 57.4751 26.3057Z" fill="#162830"/>
<path d="M62.7934 43.7432C63.9409 43.9803 65.0001 44.288 65.9634 44.6721C69.5103 46.086 71.8056 49.5603 71.8679 53.3781L71.9556 58.7521C71.9807 60.2916 71.4671 61.7937 70.4998 62.9914C53.9439 83.4904 29.431 87.3581 19.8148 81.6083C18.1223 80.5963 17.1029 78.7533 17.1029 76.7812V70.6423C17.1029 67.7798 17.9471 64.9751 19.5647 62.6134C21.5144 59.7668 24.4194 56.8735 28.0318 53.9454C35.1445 48.6577 44.0375 45.1848 54.7438 43.563C57.4162 43.1586 60.1465 43.1964 62.7934 43.7432Z" fill="#324566"/>
<path d="M71.9547 58.7524C71.9817 60.2905 71.4679 61.7937 70.4999 62.9903C53.9439 83.4911 29.4312 87.3578 19.8153 81.6088C18.1211 80.5951 17.1021 78.7531 17.1021 76.7822V70.6431C17.1021 67.7793 17.9464 64.9748 19.5652 62.6138C19.8341 62.2212 20.1219 61.8285 20.4257 61.4332C22.7786 60.2474 25.5832 59.9974 28.2023 60.4383C31.3081 60.96 34.196 62.3663 36.8931 63.985C38.173 64.7514 39.5014 65.5984 40.9937 65.6468C43.6909 65.7328 45.6887 63.2886 47.3506 61.1644C49.015 59.0401 51.4002 56.7893 54.0192 57.4454C55.4042 57.7923 56.5819 58.9352 58.0097 58.9109C60.0157 58.8786 61.2042 56.636 61.5807 54.6651C62.0486 52.21 61.9599 49.6769 62.4467 47.2274C62.6697 46.0927 63.0542 44.9445 63.6324 43.9333C64.4633 44.1376 65.2404 44.3851 65.9638 44.6727C69.5107 46.0872 71.8071 49.5613 71.8687 53.3769L71.9547 58.7524Z" fill="#26404F"/>
<path d="M61.6633 48.3697C61.6633 55.1794 53.7853 60.6936 44.067 60.6936C37.1247 60.6936 31.1202 57.8798 28.2567 53.7844C28.2613 53.782 28.2637 53.7774 28.2662 53.7748C35.3387 48.5829 44.1571 45.1674 54.7447 43.5638C56.5353 43.2914 58.3497 43.2205 60.1499 43.3672C60.1524 43.3696 60.1524 43.3695 60.1524 43.3719C61.1258 44.8996 61.6633 46.5908 61.6633 48.3697Z" fill="#162830"/>
<path d="M58.0653 48.3692C58.0653 48.9726 57.9615 49.568 57.7622 50.1414C56.4079 54.0571 50.6873 57.099 44.0682 57.099C38.4078 57.099 33.3944 54.8708 31.2234 51.7717C32.4714 50.9908 33.7712 50.2589 35.1202 49.5763C36.4554 48.8992 37.2828 47.512 37.2828 46.0157V42.6242C37.2828 42.6242 47.618 42.2529 47.9458 42.3184C48.1016 42.3483 49.4585 43.2877 50.8403 44.2544C52.3421 45.3139 55.8018 43.6891 55.8018 43.6891C57.2296 45.0487 58.0653 46.6653 58.0653 48.3692Z" fill="#F65283"/>
<path d="M58.0653 48.3692C58.0653 48.9726 57.9615 49.568 57.7622 50.1414C56.4079 54.0571 50.6873 57.099 44.0682 57.099C38.4078 57.099 33.3944 54.8709 31.2234 51.7717C31.2263 51.769 31.2291 51.769 31.2318 51.7662C33.8204 53.653 37.6488 54.8682 41.8264 54.8682C48.4455 54.8682 54.166 51.8263 55.5203 47.9106C55.7196 47.3371 55.8234 46.7419 55.8234 46.1384C55.8234 45.3656 55.6514 44.6091 55.3291 43.8883C55.6239 43.7736 55.8014 43.689 55.8014 43.689C57.2296 45.0487 58.0653 46.6653 58.0653 48.3692Z" fill="url(#paint0_linear_2111_4072)"/>
<path d="M57.1204 25.3797C59.8629 32.6922 58.2471 42.1766 53.3838 46.8169C51.6227 48.4972 49.1104 49.1378 46.7176 48.6915C41.9515 47.8026 37.9058 44.794 34.4403 40.078L30.1823 32.9505L33.6997 16.574L46.0109 14.2525C46.0109 14.2525 53.5087 16.1039 53.7864 16.0111C54.0642 15.9186 56.8946 18.9737 56.8946 18.9737L57.1204 25.3797Z" fill="#F986A8"/>
<path d="M53.3837 46.8167C51.624 48.4982 49.1092 49.1381 46.7173 48.6917C41.9518 47.8025 37.9043 44.793 34.4409 40.0797L31.3494 34.905C32.1417 34.9162 32.9379 34.9347 33.7302 34.9496C34.5562 34.9645 35.4007 34.9831 36.1744 35.2769C36.7843 35.5075 37.3238 35.8983 37.9227 36.1586C39.526 36.8505 41.5014 36.4786 42.8258 35.3402C44.1539 34.2019 44.8197 32.3865 44.6785 30.6417C44.6561 30.3924 44.6228 30.1284 44.7269 29.8978C45.0766 29.1277 46.2818 29.615 47.0629 29.2914C48.1903 28.83 47.8481 27.0965 48.5251 26.0809C49.6337 24.4143 52.8999 25.3666 53.7108 23.5364C54.0679 22.729 53.6959 21.7879 53.763 20.9062C53.8599 19.6971 54.8084 18.6853 55.9133 18.1868C55.9691 18.1607 56.0249 18.1384 56.0844 18.1123C56.5494 18.5959 56.8955 18.9717 56.8955 18.9717L57.1187 25.3815C59.8641 32.6915 58.2458 42.1778 53.3837 46.8167Z" fill="url(#paint1_linear_2111_4072)"/>
<path d="M51.4582 6.4892L51.4744 11.8371C51.4754 12.104 52.2395 12.1015 52.2385 11.8346L52.2222 6.4892H51.4582Z" fill="#DBE7FE"/>
<path d="M39.6867 35.6138C39.0465 35.7496 38.3935 35.4458 38.0851 34.8685L37.5475 33.862C36.789 32.4424 34.8025 32.3152 33.8693 33.6267C33.5247 34.111 33.394 34.7154 33.508 35.2987L34.4405 40.078C34.1127 39.8223 33.7889 39.5544 33.471 39.2748C27.7623 34.2532 25.948 26.0314 28.9599 19.0506C29.9045 16.8612 31.3667 14.8539 33.7237 13.1926C35.8227 11.7133 38.2794 10.8231 40.8225 10.4667C46.6841 9.6454 51.8695 10.463 55.3627 14.0447C56.5073 15.2183 57.3128 16.7009 57.5296 18.3258C57.8096 20.4228 58.3926 24.5343 57.1205 25.3808C55.2981 13.581 39.6182 19.9243 40.5628 27.5662C40.5928 27.8088 40.6239 28.0513 40.6331 28.2956L40.8508 34.121C40.8772 34.8354 40.3861 35.4653 39.6867 35.6138Z" fill="#324566"/>
<path d="M57.1187 25.3815C55.2995 13.5813 39.6193 19.9242 40.5642 27.5652C40.594 27.807 40.6237 28.0524 40.6311 28.2942L40.8506 34.12C40.8766 34.8342 40.3856 35.4667 39.6863 35.6154C39.0465 35.7493 38.3954 35.4443 38.0865 34.8676L37.5472 33.8632C36.7882 32.442 34.8016 32.3155 33.8679 33.6251C33.6074 33.997 33.4698 34.4398 33.4698 34.8862C33.4698 35.0239 33.4811 35.1615 33.507 35.2992L34.4409 40.0795C34.1136 39.8228 33.7898 39.5549 33.4698 39.276C28.3361 34.756 26.3496 27.6468 28.2023 21.1813C29.4447 21.2074 30.6947 21.345 31.9372 21.3897C32.3576 21.4046 32.8265 21.3933 33.1389 21.1144C33.4476 20.8391 33.5145 20.3964 33.6336 20.0021C34.0503 18.5922 35.3635 17.491 36.8255 17.3237C37.5099 17.2455 38.2501 17.3423 38.8453 16.9964C39.3699 16.695 39.6564 16.1184 39.9875 15.6126C41.1222 13.8678 43.0975 12.6997 45.1733 12.5472C46.3116 12.4617 47.4574 12.6664 48.5996 12.5956C49.641 12.5323 50.7534 12.1753 51.3858 11.3642C52.8702 11.9818 54.2093 12.8635 55.3626 14.0464C56.5084 15.2182 57.312 16.7026 57.5278 18.3245C57.8106 20.4226 58.3909 24.5333 57.1187 25.3815Z" fill="#26404F"/>
<path d="M62.8827 39.6083L62.878 39.6055L62.8779 39.6049L62.8827 39.6083Z" fill="#AB204A"/>
<path d="M41.5611 37.4928C41.555 39.8195 40.7331 41.4573 39.408 42.2264L38.0195 43.0333C39.3461 42.2627 34.8496 41.4675 34.8558 39.1406C34.8693 34.4554 33.9825 34.6689 29.9075 32.3164C27.8557 31.1319 28.9042 24.2603 27.5625 25.0399L28.9495 24.2345C30.2927 23.4534 32.1511 23.5637 34.2029 24.7482C38.2796 27.1022 41.5746 32.8073 41.5611 37.4928Z" fill="#162830"/>
<path d="M32.8154 25.5549C28.7386 23.201 25.4221 25.0897 25.4089 29.7743C25.3955 34.4577 28.6904 40.1658 32.7672 42.5197C36.8429 44.8728 40.1606 42.9823 40.1738 38.2989C40.1872 33.6143 36.8911 27.908 32.8154 25.5549Z" fill="#324566"/>
<path d="M40.1742 38.2994C40.1605 42.9817 36.8441 44.8734 32.7678 42.5193C28.6913 40.1653 25.396 34.4572 25.4096 29.7749C25.4156 27.7307 26.0501 26.2183 27.1018 25.3616C27.2907 25.5746 27.4614 25.8104 27.7062 25.9524C28.152 26.2093 28.708 26.0885 29.2172 26.0174C29.7279 25.9464 30.3396 25.978 30.6268 26.4042C30.9788 26.9285 30.6465 27.7837 31.139 28.1781C31.3415 28.3398 31.6165 28.3578 31.8747 28.37C32.4248 28.3943 32.9853 28.4169 33.5065 28.6011C34.0263 28.784 34.5099 29.1557 34.6866 29.6784C34.9359 30.4157 34.5385 31.2844 34.8875 31.981C35.1611 32.5295 35.7987 32.7742 36.3848 32.9541C37.2779 33.2275 38.2522 33.5071 38.8007 34.2626C39.322 34.9788 39.3295 35.9563 39.7828 36.7178C39.878 36.8795 39.9898 37.0245 40.1153 37.1576C40.1153 37.1591 40.1153 37.1591 40.1153 37.1591C40.1544 37.5441 40.1755 37.9248 40.1742 38.2994Z" fill="#26404F"/>
<path d="M25.1505 38.5564C27.3559 42.5873 32.4108 44.067 36.4406 41.8621L36.4714 41.8452C37.5391 41.2521 38.222 39.9605 38.2696 38.106C38.3659 34.3623 35.8384 29.7426 32.6232 27.7857C31.0158 26.8076 29.5402 26.6807 28.4551 27.2668L28.4262 27.2827C24.4183 29.4955 22.9509 34.5362 25.1505 38.5564Z" fill="#DBE7FE"/>
<path d="M37.2104 41.2563C36.9918 41.4959 36.7444 41.6935 36.4721 41.845L36.4415 41.8622C32.4107 44.0675 27.356 42.5871 25.1507 38.5563C23.1852 34.9647 24.1479 30.558 27.2331 28.0824C27.6454 28.2032 27.9791 28.4505 28.1632 28.8685C28.2706 29.114 28.2878 29.3957 28.42 29.6317C28.6635 30.0612 29.2197 30.207 29.7125 30.182C30.2053 30.1591 30.6905 30.0114 31.1833 30.0286C31.3655 30.0363 31.5514 30.0689 31.7069 30.1648C32.2572 30.51 32.0809 31.3786 32.4374 31.9213C33.0474 32.8552 34.8555 32.4122 35.2754 33.4438C35.4864 33.9636 35.1815 34.535 35.1335 35.091C35.0568 35.9769 35.6301 36.7632 36.0538 37.5436C36.6793 38.6925 37.0091 39.958 37.2104 41.2563Z" fill="#C6D7F4"/>
<path d="M30.6523 18.9617L30.6686 24.3096C30.6696 24.5763 31.4336 24.574 31.4326 24.3071L31.4164 18.9617H30.6523Z" fill="#DBE7FE"/>
<path d="M32.8691 18.9536L32.8875 24.9732C32.8884 25.2401 33.6524 25.2376 33.6516 24.9707L33.6332 18.9536H32.8691Z" fill="#DBE7FE"/>
<path d="M53.675 6.48116L53.6934 12.5007C53.6944 12.7676 54.4583 12.7651 54.4575 12.4982L54.4391 6.48099H53.675V6.48116Z" fill="#DBE7FE"/>
<path d="M54.2734 9.84283C52.8011 8.18692 53.5843 5.72348 52.577 4.59634C52.2497 4.23005 51.6552 3.67485 51.2457 3.43674L47.3623 2.80891C47.7718 3.04686 48.143 3.35056 48.4703 3.71702C49.4775 4.84432 50.0684 6.55629 50.0747 8.77192C50.0754 9.03915 50.1698 9.22722 50.322 9.31557L53.5264 11.1778C53.5878 11.1517 54.5942 10.2034 54.2734 9.84283Z" fill="url(#paint2_linear_2111_4072)"/>
<path d="M50.6445 3.8375C51.2454 3.95714 51.2595 2.3086 51.7685 2.60444L49.2972 1.16824C48.7882 0.872396 47.4962 0.236547 46.8955 0.116905C45.1397 -0.232816 43.0192 0.193871 40.7432 1.50809C39.2269 2.38222 37.78 3.57262 36.4671 4.97117C34.4958 7.06966 32.8233 9.63868 31.6444 12.3384C30.4648 15.0374 29.7787 17.872 29.7861 20.4854C29.7869 20.7525 29.8811 20.9404 30.0332 21.0289L33.2376 22.8911C33.3464 22.8846 34.7221 21.231 34.3393 20.8442C32.5012 18.9866 34.2832 17.1015 35.4631 14.4023C36.6418 11.7025 38.1513 9.30486 40.1227 7.20637C41.4356 5.80765 43.6312 4.45412 45.1474 3.57981C47.4236 2.26577 48.8889 3.48795 50.6445 3.8375Z" fill="url(#paint3_linear_2111_4072)"/>
<path d="M43.9476 3.37048C46.2238 2.05627 48.3442 1.62958 50.0998 1.9793C51.857 2.32919 53.2555 3.4508 54.0964 5.23739C54.6573 6.42795 54.9703 7.91385 54.9752 9.65476C54.9767 10.1926 54.5984 10.8478 54.1293 11.1187C53.6611 11.389 53.2805 11.1719 53.279 10.6341C53.2726 8.41835 52.6818 6.70639 51.6746 5.57909C50.6674 4.45178 49.2431 3.91665 47.573 4.06942C46.4603 4.17083 45.2382 4.57643 43.9531 5.31838C42.0248 6.43297 40.2419 8.13456 38.7605 10.1434C37.2801 12.1517 36.1043 14.4667 35.4057 16.7884C34.9392 18.3379 34.6827 19.8902 34.6869 21.3682C34.6884 21.906 34.31 22.5613 33.842 22.8315C33.373 23.1025 32.9921 22.8854 32.9906 22.3475C32.9832 19.7341 33.6693 16.8997 34.849 14.2005C36.0279 11.5007 37.7001 8.93189 39.6716 6.83323C40.9845 5.43501 42.4314 4.24462 43.9476 3.37048Z" fill="#F65283"/>
<path d="M32.5334 20.3909C32.5325 20.727 32.4138 20.9636 32.2223 21.0749L32.0217 21.1915C32.2134 21.0803 31.5637 20.9653 31.5645 20.6291C31.5665 19.9521 31.4384 19.9831 30.8495 19.643C30.553 19.4719 30.7046 18.4789 30.5107 18.5917L30.7112 18.4754C30.9053 18.3625 31.1737 18.3785 31.4702 18.5497C32.0593 18.8896 32.5354 19.7138 32.5334 20.3909Z" fill="#AB204A"/>
<path d="M31.2699 18.666C30.6809 18.3258 30.2016 18.5987 30.1996 19.2756C30.1978 19.9523 30.6738 20.777 31.2628 21.1172C31.8518 21.4572 32.3311 21.184 32.3331 20.5073C32.3349 19.8305 31.8587 19.006 31.2699 18.666Z" fill="#324566"/>
<path d="M32.3331 20.5075C32.3311 21.184 31.852 21.4574 31.2628 21.1172C30.6738 20.777 30.1976 19.9523 30.1996 19.2758C30.2005 18.9804 30.2921 18.7619 30.4441 18.6381C30.4714 18.6689 30.4959 18.7028 30.5314 18.7234C30.5958 18.7605 30.6762 18.743 30.7498 18.7328C30.8236 18.7226 30.912 18.7271 30.9535 18.7887C31.0043 18.8645 30.9563 18.988 31.0274 19.045C31.0567 19.0684 31.0964 19.0709 31.1337 19.0728C31.2131 19.0763 31.2941 19.0795 31.3694 19.1063C31.4446 19.1327 31.5143 19.1864 31.5399 19.2619C31.5759 19.3685 31.5185 19.494 31.5691 19.5945C31.6086 19.6738 31.7008 19.7092 31.7854 19.7351C31.9144 19.7746 32.0553 19.8151 32.1345 19.9242C32.2098 20.0276 32.211 20.169 32.2764 20.2789C32.2901 20.3023 32.3063 20.3233 32.3244 20.3425C32.3302 20.3981 32.3333 20.4533 32.3331 20.5075Z" fill="#26404F"/>
<path d="M28.5672 16.1616C28.5552 16.1616 28.5433 16.1602 28.5306 16.1577C28.4367 16.1376 28.3761 16.0446 28.3965 15.9504C28.7173 14.4436 29.2181 12.905 29.8853 11.3768C31.1055 8.583 32.8126 5.97465 34.8235 3.83499C35.2032 3.43005 35.5956 3.04101 35.9898 2.67807C36.0606 2.61315 36.1699 2.61666 36.2373 2.68878C36.3021 2.75956 36.2979 2.87001 36.2271 2.93577C35.8389 3.29235 35.4524 3.67554 35.0779 4.07395C33.095 6.18566 31.41 8.75887 30.206 11.5168C29.5474 13.0236 29.0542 14.5396 28.7377 16.023C28.7208 16.1052 28.6484 16.1616 28.5672 16.1616Z" fill="#364F66"/>
<path d="M37.0216 2.16186C36.9721 2.16186 36.9225 2.14044 36.8876 2.09961C36.8253 2.02581 36.8356 1.91537 36.909 1.85346C37.7366 1.15636 38.5907 0.552799 39.4472 0.058671C39.5309 0.0118184 39.6383 0.0394312 39.6853 0.122595C39.734 0.20626 39.7049 0.313348 39.6213 0.361539C38.7826 0.84479 37.9456 1.43697 37.1342 2.12035C37.1018 2.14813 37.0618 2.16186 37.0216 2.16186Z" fill="#364F66"/>
<path d="M60.4054 33.4366C59.5619 36.586 57.8171 39.674 54.2804 40.8598C54.01 40.9503 53.8643 41.2429 53.9553 41.5135C54.0368 41.7592 54.2863 41.9017 54.5336 41.8577C54.5585 41.8534 54.584 41.8467 54.6082 41.8388C58.9354 40.3879 60.8376 36.5356 61.6445 32.8531C61.3577 33.2835 60.8883 33.4612 60.4054 33.4366Z" fill="#DBE7FE"/>
<path d="M57.7028 39.7375C58.219 40.8557 57.7308 42.1808 56.6125 42.6969L53.9784 43.9127C52.8601 44.4289 51.535 43.9406 51.019 42.8224C50.5029 41.7041 50.991 40.379 52.1093 39.863L54.7434 38.6471C55.8617 38.1311 57.1866 38.6192 57.7028 39.7375Z" fill="#324566"/>
<path d="M56.6152 42.7001L53.9824 43.908C52.857 44.4242 51.5354 43.939 51.0192 42.8239C50.8748 42.5244 50.8127 42.2044 50.8127 41.8947C50.8127 41.7605 50.823 41.6159 50.854 41.4817C51.0709 41.3681 51.2979 41.2856 51.5354 41.2339C52.2067 41.0791 52.8879 41.1307 53.5693 41.0893C53.8481 41.0687 54.1578 41.017 54.3437 40.8106C54.4988 40.6454 54.5401 40.408 54.6947 40.2428C55.1079 39.8402 55.8615 40.2634 56.3675 39.9846C56.739 39.7678 56.8219 39.2516 57.1212 38.9728C57.3587 39.1793 57.5547 39.4374 57.6992 39.7368C58.2154 40.8519 57.7301 42.1838 56.6152 42.7001Z" fill="#26404F"/>
<g opacity="0.1">
<path d="M71.9594 58.7497C71.9768 60.2873 71.4701 61.7901 70.5004 62.987C67.4863 66.7177 64.2187 69.8978 60.8113 72.5626L61.7462 54.0232L70.6751 48.8859C71.4178 50.2401 71.8459 51.769 71.8722 53.3766L71.9594 58.7497Z" fill="white"/>
</g>
<path d="M22.4558 55.4543C22.4088 55.4543 22.3619 55.4351 22.3278 55.3979C22.262 55.3271 22.2664 55.2167 22.3371 55.151C23.3107 54.2512 24.39 53.3204 25.5452 52.384C25.6204 52.3226 25.7303 52.3344 25.791 52.4096C25.8516 52.4847 25.8405 52.5948 25.7654 52.6554C24.6162 53.5871 23.5428 54.5133 22.5744 55.4078C22.5411 55.4389 22.4985 55.4543 22.4558 55.4543Z" fill="#364F66"/>
<path d="M14.7266 75.5302C14.6302 75.5302 14.5518 75.4517 14.5518 75.3553V69.2166C14.5518 66.2799 15.4135 63.4695 17.044 61.0895C18.0329 59.6459 19.3067 58.137 20.8297 56.6047C20.8971 56.5369 21.0072 56.5348 21.0763 56.6042C21.1454 56.672 21.1454 56.7826 21.0772 56.8512C19.5695 58.3682 18.3093 59.8605 17.3325 61.2866C15.7422 63.6085 14.9017 66.3507 14.9017 69.2166V75.3553C14.9017 75.4515 14.8232 75.5302 14.7266 75.5302Z" fill="#364F66"/>
<defs>
<linearGradient id="paint0_linear_2111_4072" x1="29.2103" y1="57.099" x2="44.649" y2="32.3771" gradientUnits="userSpaceOnUse">
<stop stop-color="#EF7C9A"/>
<stop offset="1" stop-color="#EF295A"/>
</linearGradient>
<linearGradient id="paint1_linear_2111_4072" x1="29.2114" y1="54.8024" x2="52.9767" y2="25.5742" gradientUnits="userSpaceOnUse">
<stop stop-color="#F9D5E0"/>
<stop offset="1" stop-color="#EF295A"/>
</linearGradient>
<linearGradient id="paint2_linear_2111_4072" x1="46.8393" y1="11.1778" x2="56.7371" y2="4.57929" gradientUnits="userSpaceOnUse">
<stop stop-color="#EF7C9A"/>
<stop offset="1" stop-color="#EF295A"/>
</linearGradient>
<linearGradient id="paint3_linear_2111_4072" x1="28.1373" y1="22.8911" x2="56.4759" y2="1.12011" gradientUnits="userSpaceOnUse">
<stop stop-color="#EF7C9A"/>
<stop offset="1" stop-color="#EF295A"/>
</linearGradient>
</defs>
</svg>
