<svg width="90" height="84" viewBox="0 0 90 84" fill="none" xmlns="http://www.w3.org/2000/svg">
<path d="M12.9042 12.4255C12.8072 12.4255 12.7286 12.3469 12.7286 12.2499V7.87447C12.7286 7.77746 12.8072 7.69885 12.9042 7.69885C13.0012 7.69885 13.0798 7.77746 13.0798 7.87447V12.2499C13.0798 12.3469 13.0012 12.4255 12.9042 12.4255Z" fill="#364F66"/>
<path d="M11.3354 13.0009C11.2384 13.0009 11.1597 12.9223 11.1597 12.8253V3.50069C11.1597 3.40368 11.2384 3.32507 11.3354 3.32507C11.4324 3.32507 11.511 3.40368 11.511 3.50069V12.8253C11.511 12.9223 11.4324 13.0009 11.3354 13.0009Z" fill="#364F66"/>
<path d="M9.68459 13.7385C9.58758 13.7385 9.50897 13.6599 9.50897 13.5629V6.01626C9.50897 5.91925 9.58758 5.84064 9.68459 5.84064C9.7816 5.84064 9.86021 5.91925 9.86021 6.01626V13.5629C9.86021 13.6599 9.7816 13.7385 9.68459 13.7385Z" fill="#364F66"/>
<path d="M7.91991 14.3574C7.8229 14.3574 7.74429 14.2788 7.74429 14.1818V10.0622C7.74429 9.96519 7.8229 9.88658 7.91991 9.88658C8.01692 9.88658 8.09553 9.96519 8.09553 10.0622V14.1818C8.09553 14.2788 8.01692 14.3574 7.91991 14.3574Z" fill="#364F66"/>
<path d="M49.4567 79.4907C49.3647 79.4907 49.2877 79.4205 49.2827 79.3268C49.2777 79.2683 49.1957 77.8683 49.9601 77.2294C50.3247 76.9267 50.8081 76.8464 51.4002 76.9953C51.4504 77.017 52.9891 77.7646 53.7853 77.2093C54.1884 76.9283 54.3456 76.3396 54.2519 75.4598C54.2419 75.3645 54.3122 75.2775 54.4075 75.2675C54.5179 75.2558 54.5898 75.3277 54.5998 75.423C54.7069 76.44 54.5012 77.1374 53.9843 77.497C53.0193 78.1677 51.35 77.3565 51.2798 77.3214C50.8365 77.2144 50.4569 77.2712 50.1859 77.497C49.557 78.0205 49.6306 79.29 49.6306 79.3034C49.6373 79.4004 49.5637 79.4824 49.4667 79.4891C49.4634 79.4891 49.4583 79.4891 49.455 79.4891L49.4567 79.4907Z" fill="#364F66"/>
<path d="M82.4717 27.5992C81.6354 27.5992 80.9563 26.9201 80.9563 26.0838C80.9563 25.2475 81.6354 24.5685 82.4717 24.5685C83.3079 24.5685 83.9853 25.2475 83.9853 26.0838C83.9853 26.9201 83.3063 27.5992 82.4717 27.5992ZM82.4717 24.9197C81.8294 24.9197 81.3075 25.4415 81.3075 26.0838C81.3075 26.7261 81.8294 27.2479 82.4717 27.2479C83.1139 27.2479 83.6358 26.7261 83.6358 26.0838C83.6358 25.4415 83.1139 24.9197 82.4717 24.9197Z" fill="#364F66"/>
<path d="M76.2982 59.276C76.2011 59.276 76.1225 59.1974 76.1225 59.1004V56.4628C75.5388 56.4711 73.7157 56.4929 73.3528 56.4594C73.2574 56.4511 73.1855 56.3658 73.1939 56.2688C73.2039 56.1734 73.2741 56.1015 73.3845 56.1099C73.7876 56.1467 76.268 56.1099 76.2948 56.1099C76.34 56.1115 76.3868 56.1266 76.4203 56.16C76.4537 56.1935 76.4721 56.237 76.4721 56.2855V59.1004C76.4721 59.1974 76.3935 59.276 76.2965 59.276H76.2982Z" fill="#364F66"/>
<path d="M74.542 12.086C74.4449 12.086 74.3663 12.0074 74.3663 11.9104V9.27442C73.7826 9.28278 71.9595 9.30453 71.5965 9.27108C71.5012 9.26271 71.4293 9.17741 71.4377 9.0804C71.4477 8.98507 71.5196 8.91649 71.6283 8.92151C72.0314 8.9583 74.5118 8.92151 74.5386 8.92151H74.542C74.5888 8.92151 74.6323 8.93991 74.6657 8.97168C74.6992 9.00514 74.7176 9.04862 74.7176 9.09713V11.9104C74.7176 12.0074 74.639 12.086 74.542 12.086Z" fill="#364F66"/>
<path d="M8.51541 75.5719C7.67913 75.5719 7.00006 74.8928 7.00006 74.0565C7.00006 73.2202 7.67913 72.5428 8.51541 72.5428C9.3517 72.5428 10.0291 73.2219 10.0291 74.0565C10.0291 74.8911 9.35003 75.5719 8.51541 75.5719ZM8.51541 72.8941C7.87314 72.8941 7.3513 73.4159 7.3513 74.0582C7.3513 74.7005 7.87314 75.2223 8.51541 75.2223C9.15768 75.2223 9.67952 74.7005 9.67952 74.0582C9.67952 73.4159 9.15768 72.8941 8.51541 72.8941Z" fill="#364F66"/>
<path d="M51.4068 1.16077L32.3829 22.3372C30.1233 23.6452 35.7414 19.5173 35.7481 22.1198L26.7781 73.9177C30.2169 75.7091 22.7974 83.632 21.2135 83.724L19.2198 82.5633C18.4872 82.1368 18.0272 81.2252 18.0239 79.9306L17.865 22.9678C17.8583 20.3619 19.6864 17.1907 21.9461 15.8861L49.4164 0L51.4068 1.16077Z" fill="#1C323D"/>
<path d="M51.4086 1.15909L63.232 8.66393L63.3658 56.0262C63.3725 58.6304 61.5444 61.8016 59.283 63.1095L24.1272 83.438C21.8676 84.7443 20.0261 83.6956 20.0194 81.0914L19.8588 24.1252C19.8521 21.521 21.6802 18.3498 23.9399 17.0435L51.4086 1.15909Z" fill="#324566"/>
<path d="M63.344 48.8224L58.6925 51.5136C58.4433 51.6541 58.2008 51.7277 57.9683 51.7277C57.7944 51.7277 57.6271 51.6842 57.4799 51.6056L57.4565 51.5956L56.8009 51.2109C56.2138 50.873 56.08 50.0334 56.4697 49.1202L63.2988 32.9531L63.3423 48.8208L63.344 48.8224Z" fill="#324566"/>
<path d="M63.364 56.0262C63.374 58.6287 61.5426 61.8033 59.2829 63.1112L24.1271 83.4363C21.8674 84.7443 20.0259 83.6939 20.0192 81.0914L19.857 24.1252C19.857 23.7572 19.8921 23.3776 19.9607 22.9962C21.2988 23.1852 22.6285 23.4428 23.9448 23.7372C26.3098 24.2657 28.6798 24.9113 31.1 24.8595C33.5203 24.8076 36.0609 23.9295 37.4843 21.9693C38.2436 20.9222 38.6735 19.6009 39.7054 18.8282C42.2394 16.9298 46.5229 19.549 48.7992 17.3479C49.786 16.3929 49.9399 14.8876 50.0754 13.5211C50.3062 11.238 50.6909 8.90478 51.4235 6.73378L51.4436 13.2635C51.4469 14.4862 52.31 14.9796 53.3754 14.3657L63.2319 8.66728L63.3657 56.0279L63.364 56.0262Z" fill="#26404F"/>
<path d="M51.4085 1.15909L63.2319 8.66393L53.3754 14.3641C52.31 14.9796 51.447 14.4845 51.4436 13.2618L51.4102 1.15909H51.4085Z" fill="#1C323D"/>
<path d="M38.5566 3.44886C38.4964 3.44886 38.4378 3.41708 38.4061 3.36189C38.3576 3.27826 38.386 3.17121 38.4696 3.12271L42.1024 1.00857C42.1844 0.96007 42.2914 0.988503 42.3416 1.07213C42.3901 1.15576 42.3617 1.26281 42.2781 1.31131L38.6452 3.42544C38.6185 3.44217 38.5867 3.44886 38.5566 3.44886Z" fill="#364F66"/>
<path d="M15.4231 58.0534C15.3261 58.0534 15.2492 57.9748 15.2475 57.8794L15.1455 21.5043C15.1388 18.8466 17.0087 15.6001 19.3152 14.2704L36.5845 4.22158C36.6665 4.17307 36.7735 4.19983 36.8237 4.28513C36.8722 4.36876 36.8438 4.47581 36.7602 4.52431L19.4908 14.5748C17.283 15.8493 15.4917 18.9586 15.4967 21.506L15.5988 57.8811C15.5988 57.9781 15.5218 58.0567 15.4248 58.0567L15.4231 58.0534Z" fill="#364F66"/>
<path d="M15.4799 78.6411C15.3829 78.6411 15.306 78.5625 15.3043 78.4672L15.2542 60.8834C15.2542 60.7864 15.3311 60.7078 15.4281 60.7078C15.5251 60.7078 15.602 60.7864 15.6037 60.8817L15.6539 78.4655C15.6539 78.5625 15.577 78.6411 15.4799 78.6411Z" fill="#364F66"/>
<path d="M53.8472 28.8971C55.2739 28.0725 56.4297 28.7348 56.4347 30.3723C56.4397 32.0114 55.2907 34.0084 53.8639 34.833L37.732 44.1626L37.7152 38.2267L53.8472 28.8971Z" fill="#162830"/>
<path d="M37.7152 38.2267L37.7319 44.1626L28.0979 49.734C26.6745 50.5569 25.5188 49.8945 25.5138 48.2571C25.5088 46.618 26.6578 44.6209 28.0812 43.798L37.7152 38.2267Z" fill="#162830"/>
<path d="M37.7319 44.1626L28.0962 49.7357C26.6729 50.5586 25.5154 49.8962 25.5121 48.2571C25.5087 47.8122 25.5957 47.3389 25.7462 46.8689C26.4186 46.5695 27.1194 46.3587 27.8604 46.3035C28.4073 46.26 28.971 46.3002 29.4878 46.1112C29.9996 45.9222 30.3893 45.5392 30.7104 45.0876C31.065 44.5891 31.5969 44.2496 32.1857 44.1008C32.572 44.0054 32.9333 43.8064 33.2109 43.522C33.6709 43.0554 33.9552 42.3563 34.5791 42.1489C34.9287 42.0351 35.3318 42.102 35.6529 41.9231C36.1313 41.6571 36.1965 41.0115 36.4591 40.5281C36.7183 40.0481 37.19 39.7236 37.7152 39.5447L37.7302 44.161L37.7319 44.1626Z" fill="#162830"/>
<path d="M55.12 29.5511C56.5467 28.7265 57.7024 29.3888 57.7075 31.0263C57.7125 32.6654 56.5634 34.6624 55.1367 35.487L39.0047 44.8166L38.988 38.8807L55.12 29.5511Z" fill="white"/>
<path d="M38.988 38.8807L39.0047 44.8166L29.3707 50.388C27.9473 51.2109 26.7916 50.5485 26.7865 48.9111C26.7815 47.272 27.9306 45.2749 29.3539 44.452L38.988 38.8807Z" fill="#F65283"/>
<path d="M39.0048 44.8166L29.3691 50.3897C27.9457 51.2126 26.7883 50.5502 26.7849 48.9111C26.7816 48.4662 26.8686 47.9929 27.0191 47.5229C27.6915 47.2235 28.3923 47.0127 29.1332 46.9575C29.6802 46.9141 30.2438 46.9542 30.7607 46.7652C31.2725 46.5762 31.6622 46.1932 31.9833 45.7416C32.3379 45.2432 32.8698 44.9036 33.4585 44.7548C33.8449 44.6594 34.2062 44.4604 34.4838 44.176C34.9438 43.7094 35.2281 43.0103 35.852 42.8029C36.2015 42.6891 36.6046 42.756 36.9258 42.5771C37.4041 42.3111 37.4693 41.6655 37.7319 41.1821C37.9912 40.7021 38.4629 40.3776 38.988 40.1987L39.0031 44.815L39.0048 44.8166Z" fill="url(#paint0_linear_2111_3988)"/>
<path d="M53.8473 40.5549C55.274 39.7303 56.4297 40.3927 56.4348 42.0301C56.4398 43.6692 55.2907 45.6663 53.864 46.4909L46.2571 50.8897L46.2404 44.9538L53.8473 40.5549Z" fill="#162830"/>
<path d="M46.2404 44.9537L46.2571 50.8897L28.0963 61.3918C26.6729 62.2147 25.5172 61.5524 25.5122 59.9149C25.5071 58.2758 26.6562 56.2787 28.0796 55.4558L46.2404 44.9537Z" fill="#162830"/>
<path d="M46.2588 50.8897L28.098 61.3935C26.6747 62.2164 25.5172 61.554 25.5139 59.9149C25.5106 59.47 25.5975 58.9967 25.7481 58.5267C26.4204 58.2273 27.1212 58.0165 27.8622 57.9613C28.4091 57.9179 28.9728 57.958 29.4896 57.769C30.0014 57.58 30.3911 57.197 30.7123 56.7454C31.0668 56.247 31.5987 55.9074 32.1875 55.7586C32.5738 55.6632 32.9351 55.4642 33.2128 55.1799C33.6727 54.7132 33.9571 54.0141 34.5809 53.8067C34.9305 53.6929 35.3336 53.7598 35.6547 53.5809C36.1331 53.3149 36.1983 52.6693 36.4609 52.186C36.7201 51.7059 45.7186 46.4507 46.2438 46.2717L46.2588 50.888V50.8897Z" fill="#162830"/>
<path d="M55.1202 41.2089C56.5469 40.3843 57.7027 41.0466 57.7077 42.6841C57.7127 44.3232 56.5636 46.3203 55.1369 47.1449L47.5301 51.5437L47.5133 45.6078L55.1202 41.2089Z" fill="white"/>
<path d="M47.5151 45.6078L47.5318 51.5437L29.371 62.0458C27.9476 62.8687 26.7919 62.2064 26.7869 60.5689C26.7818 58.9298 27.9309 56.9328 29.3543 56.1098L47.5151 45.6078Z" fill="#F65283"/>
<path d="M53.8473 52.2128C55.274 51.3882 56.4297 52.0505 56.4348 53.688C56.4398 55.3271 55.2907 57.3241 53.864 58.1487L37.732 67.4783L37.7153 61.5424L53.8473 52.2128Z" fill="#162830"/>
<path d="M37.7153 61.5424L37.732 67.4783L28.098 73.0497C26.6746 73.8726 25.5189 73.2102 25.5138 71.5728C25.5088 69.9337 26.6579 67.9366 28.0812 67.1137L37.7153 61.5424Z" fill="#162830"/>
<path d="M37.732 67.4783L28.0963 73.0513C26.6729 73.8743 25.5155 73.2119 25.5121 71.5728C25.5088 71.1279 25.5958 70.6545 25.7463 70.1846C26.4187 69.8852 27.1195 69.6744 27.8604 69.6192C28.4074 69.5757 28.971 69.6159 29.4879 69.4269C29.9997 69.2379 30.3894 68.8549 30.7105 68.4033C31.0651 67.9048 31.597 67.5653 32.1857 67.4164C32.5721 67.3211 32.9334 67.1221 33.211 66.8377C33.671 66.3711 33.9553 65.6719 34.5792 65.4646C34.9287 65.3508 35.3318 65.4177 35.653 65.2388C36.1313 64.9728 36.1965 64.3272 36.4591 63.8438C36.7184 63.3638 37.1901 63.0393 37.7152 62.8604L37.7303 67.4767L37.732 67.4783Z" fill="#162830"/>
<path d="M55.12 52.8667C56.5467 52.0421 57.7025 52.7045 57.7075 54.3419C57.7125 55.9811 56.5635 57.9781 55.1368 58.8027L39.0048 68.1323L38.9881 62.1963L55.12 52.8667Z" fill="white"/>
<path d="M38.988 62.1964L39.0048 68.1323L29.3707 73.7037C27.9474 74.5266 26.7916 73.8643 26.7866 72.2268C26.7816 70.5877 27.9306 68.5906 29.354 67.7677L38.988 62.1964Z" fill="#F65283"/>
<path d="M39.0048 68.1323L29.3691 73.7053C27.9458 74.5282 26.7884 73.8659 26.785 72.2268C26.7817 71.7819 26.8686 71.3085 27.0192 70.8385C27.6915 70.5392 28.3923 70.3284 29.1333 70.2732C29.6802 70.2297 30.2439 70.2699 30.7607 70.0809C31.2725 69.8919 31.6622 69.5088 31.9834 69.0573C32.3379 68.5588 32.8698 68.2193 33.4586 68.0704C33.8449 67.9751 34.2062 67.7761 34.4839 67.4917C34.9438 67.0251 35.2282 66.3259 35.852 66.1185C36.2016 66.0048 36.6047 66.0717 36.9258 65.8927C37.4042 65.6268 37.4694 64.9812 37.732 64.4978C37.9913 64.0178 38.4629 63.6933 38.9881 63.5143L39.0032 68.1306L39.0048 68.1323Z" fill="url(#paint1_linear_2111_3988)"/>
<path d="M38.0615 12.3904C38.2923 12.2566 38.4947 12.3202 38.5549 12.5426L38.8894 13.7971C38.9362 13.9744 39.0767 14.053 39.2557 14.0028C39.8729 13.8322 40.4566 13.7753 40.9952 13.8272C41.0755 13.8355 41.1658 13.8104 41.2544 13.7586C41.3431 13.7084 41.43 13.6298 41.5087 13.5328L42.6293 12.1312C42.7096 12.0308 42.7965 11.9539 42.8852 11.9037C43.0173 11.8268 43.1478 11.8117 43.2448 11.8669L44.0744 12.3419C44.2383 12.4356 44.2717 12.7065 44.1563 13.0043L43.5057 14.6752C43.4137 14.9127 43.4154 15.1368 43.5091 15.2673C43.8252 15.7038 44.071 16.2323 44.235 16.8478C44.2818 17.0251 44.4206 17.1071 44.5979 17.0586L45.8557 16.7124C46.0781 16.6521 46.2354 16.7943 46.2354 17.0603L46.2387 18.4083C46.2387 18.6743 46.0848 18.9954 45.8624 19.1928L44.6063 20.3C44.429 20.4573 44.2918 20.6964 44.245 20.9289C44.0844 21.7318 43.8436 22.5446 43.5308 23.3441C43.4388 23.5799 43.4371 23.8074 43.5308 23.9362L44.1898 24.8511C44.3069 25.0133 44.2751 25.3228 44.1112 25.6054L43.2866 27.0372C43.1896 27.2061 43.0591 27.3399 42.927 27.4168C42.84 27.467 42.7514 27.4921 42.6711 27.4854L41.5455 27.3817C41.4668 27.375 41.3782 27.3984 41.2912 27.4503C41.2009 27.5021 41.1123 27.5807 41.032 27.6828C40.4951 28.3551 39.913 28.974 39.2975 29.5159C39.1186 29.6731 38.9797 29.9123 38.9329 30.1448L38.6067 31.7806C38.5482 32.0716 38.3475 32.3677 38.1167 32.5015L36.9459 33.1788C36.7151 33.3127 36.5127 33.2508 36.4541 33.0266L36.1196 31.7722C36.0728 31.5949 35.9323 31.518 35.7533 31.5665C35.1362 31.7388 34.5524 31.794 34.0139 31.7421C33.9336 31.7337 33.8433 31.7588 33.7529 31.8107C33.666 31.8609 33.5773 31.9378 33.4987 32.0365L32.3781 33.4398C32.2978 33.5401 32.2108 33.6171 32.1222 33.6672C31.99 33.7425 31.8596 33.7592 31.7626 33.704L30.933 33.2307C30.7691 33.137 30.7356 32.8644 30.851 32.5684L31.5016 30.8958C31.5936 30.66 31.5903 30.4342 31.4983 30.3054C31.1822 29.8672 30.9363 29.3386 30.7724 28.7231C30.7256 28.5458 30.5868 28.4639 30.4095 28.5124L29.1517 28.8586C28.9276 28.9205 28.772 28.7766 28.772 28.5107L28.7687 27.1626C28.7687 26.8967 28.9225 26.5739 29.145 26.3782L30.4011 25.2709C30.5801 25.1137 30.7172 24.8728 30.7624 24.6404C30.9213 23.8375 31.1638 23.0263 31.4766 22.2268C31.5686 21.9893 31.5702 21.7635 31.4766 21.6331L30.8176 20.7198C30.7005 20.5576 30.7323 20.2482 30.8962 19.9655L31.7208 18.5321C31.8178 18.3632 31.9482 18.2294 32.0804 18.1524C32.1673 18.1023 32.256 18.0772 32.3363 18.0839L33.4619 18.1876C33.5405 18.1943 33.6292 18.1708 33.7178 18.119C33.8081 18.0671 33.8968 17.9885 33.9771 17.8882C34.514 17.2158 35.096 16.597 35.7115 16.055C35.8888 15.8978 36.0293 15.6586 36.0761 15.4262L36.4023 13.7904C36.4608 13.4993 36.6615 13.2033 36.8924 13.0695L38.0632 12.3921L38.0615 12.3904Z" fill="#162830"/>
<path d="M39.1137 12.7183C39.3445 12.5845 39.5469 12.648 39.6071 12.8705L39.9416 14.1249C39.9885 14.3022 40.129 14.3808 40.3079 14.3306C40.9251 14.16 41.5088 14.1032 42.0474 14.155C42.1277 14.1617 42.218 14.1383 42.3067 14.0864C42.3953 14.0363 42.4823 13.9576 42.5609 13.859L43.6815 12.4573C43.7618 12.357 43.8488 12.28 43.9374 12.2299C44.0696 12.1546 44.2 12.1379 44.297 12.1931L45.1266 12.6681C45.2905 12.7618 45.324 13.0327 45.2086 13.3304L44.5579 15.0013C44.466 15.2388 44.4676 15.463 44.5613 15.5934C44.8774 16.03 45.1233 16.5585 45.2872 17.174C45.334 17.3513 45.4728 17.4332 45.6501 17.3847L46.9079 17.0385C47.1304 16.9783 47.2876 17.1205 47.2876 17.3864L47.2909 18.7345C47.2909 19.0005 47.1371 19.3216 46.9146 19.5189L45.6585 20.6262C45.4812 20.7834 45.3441 21.0226 45.2972 21.2551C45.1367 22.0579 44.8958 22.8708 44.583 23.6703C44.491 23.9061 44.4894 24.1336 44.583 24.2624L45.242 25.1773C45.3591 25.3395 45.3273 25.6489 45.1634 25.9316L44.3388 27.3633C44.2418 27.5323 44.1114 27.6661 43.9792 27.743C43.8923 27.7932 43.8036 27.8183 43.7233 27.8116L42.5977 27.7079C42.5191 27.7012 42.4304 27.7246 42.3435 27.7764C42.2531 27.8283 42.1645 27.9069 42.0842 28.0089C41.5473 28.6813 40.9653 29.3002 40.3498 29.8421C40.1708 29.9993 40.032 30.2385 39.9851 30.471L39.659 32.1067C39.6004 32.3978 39.3997 32.6938 39.1689 32.8276L37.9981 33.505C37.7673 33.6388 37.5649 33.5769 37.5047 33.3528L37.1702 32.0984C37.1234 31.9211 36.9829 31.8441 36.8039 31.8926C36.1867 32.0649 35.603 32.1201 35.0644 32.0683C34.9841 32.0599 34.8938 32.085 34.8035 32.1368C34.7165 32.187 34.6279 32.264 34.5493 32.3626L33.4286 33.7659C33.3484 33.8663 33.2614 33.9432 33.1727 33.9934C33.0406 34.0687 32.9101 34.0854 32.8131 34.0302L31.9835 33.5569C31.8196 33.4632 31.7862 33.1906 31.9016 32.8945L32.5522 31.2219C32.6442 30.9861 32.6409 30.7603 32.5489 30.6315C32.2328 30.1933 31.9869 29.6648 31.823 29.0493C31.7761 28.872 31.6373 28.79 31.46 28.8385L30.2022 29.1848C29.9781 29.245 29.8226 29.1028 29.8226 28.8369L29.8192 27.4888C29.8192 27.2228 29.9731 26.9 30.1956 26.7043L31.4517 25.5971C31.6306 25.4399 31.7678 25.199 31.8129 24.9665C31.9718 24.1637 32.2144 23.3525 32.5271 22.553C32.6191 22.3155 32.6208 22.0897 32.5271 21.9592L31.8681 21.046C31.7511 20.8838 31.7828 20.5743 31.9467 20.2917L32.7713 18.8583C32.8683 18.6894 32.9988 18.5555 33.1309 18.4786C33.2179 18.4284 33.3065 18.4033 33.3868 18.41L34.5125 18.5137C34.5911 18.5204 34.6797 18.497 34.7684 18.4452C34.8587 18.3933 34.9473 18.3147 35.0276 18.2143C35.5645 17.542 36.1466 16.9231 36.7621 16.3812C36.9394 16.224 37.0799 15.9848 37.1267 15.7523L37.4529 14.1165C37.5114 13.8255 37.7121 13.5295 37.9429 13.3957L39.1137 12.7183Z" fill="#F65283"/>
<path d="M47.2926 18.7345C47.2926 18.9988 47.1387 19.3216 46.9163 19.5189L45.6602 20.6262C45.4829 20.7834 45.3457 21.0226 45.2989 21.2551C45.1383 22.0579 44.8958 22.8708 44.5847 23.6703C44.4927 23.9061 44.491 24.1336 44.5847 24.2624L45.2437 25.1756C45.3608 25.3378 45.329 25.6473 45.1668 25.9299L44.3422 27.3616C44.2435 27.5306 44.1147 27.6644 43.9826 27.7413C43.8956 27.7915 43.807 27.8166 43.7267 27.8099L42.6027 27.7062C42.5241 27.6995 42.4354 27.7246 42.3485 27.7748C42.2582 27.8283 42.1695 27.9052 42.0892 28.0056C41.5523 28.678 40.9703 29.2968 40.3548 29.8387C40.1758 29.996 40.037 30.2351 39.9901 30.4659L39.664 32.1017C39.6055 32.3927 39.4031 32.6888 39.1739 32.8226L38.0031 33.5C37.7723 33.6338 37.5699 33.5702 37.5114 33.3478L37.1769 32.0934C37.13 31.9161 36.9895 31.8391 36.8106 31.8876C36.1934 32.0582 35.6097 32.1134 35.0694 32.0633C34.9892 32.0549 34.8988 32.08 34.8102 32.1318C34.7215 32.1837 34.6346 32.2589 34.556 32.3576L33.4353 33.7609C33.355 33.8613 33.2664 33.9382 33.1794 33.9884C33.049 34.0637 32.9185 34.0804 32.8198 34.0252L31.9886 33.5518C31.8246 33.4582 31.7912 33.1872 31.9066 32.8895L32.5572 31.2186C32.6492 30.9828 32.6459 30.7586 32.5539 30.6282C32.2378 30.1916 31.9919 29.6614 31.828 29.0459C31.7812 28.8686 31.6423 28.7867 31.465 28.8369L30.2073 29.1814C29.9831 29.2416 29.8276 29.0995 29.8259 28.8352L29.8226 27.4871C29.8226 27.2212 29.9764 26.9 30.1989 26.7027L31.455 25.5954C31.634 25.4382 31.7711 25.1973 31.8163 24.9665C31.9752 24.1637 32.2177 23.3525 32.5305 22.553C32.6225 22.3155 32.6241 22.0897 32.5305 21.9592L32.4937 21.9074C33.33 21.884 34.1662 21.889 35.0009 21.9191C35.7719 21.9492 36.6099 21.9826 37.2371 21.5344C38.2423 20.8169 38.1905 19.2764 38.9481 18.2996C39.6038 17.455 40.7746 17.1723 41.8417 17.2426C42.106 17.2593 42.3803 17.2944 42.6278 17.1974C42.9958 17.0536 43.1998 16.6471 43.2533 16.2541C43.3052 15.861 43.2383 15.463 43.2366 15.0666C43.2299 14.0229 43.6932 12.9859 44.471 12.2901L45.1333 12.6681C45.2972 12.7617 45.3307 13.0327 45.2153 13.3304L44.5646 15.0013C44.4726 15.2388 44.476 15.463 44.568 15.5934C44.8841 16.0283 45.13 16.5585 45.2939 17.174C45.3407 17.3513 45.4795 17.4332 45.6585 17.3847L46.9163 17.0385C47.1404 16.9783 47.2959 17.1205 47.2976 17.3864L47.301 18.7345H47.2926Z" fill="url(#paint2_linear_2111_3988)"/>
<path d="M38.3644 18.1876C40.696 16.8395 42.591 17.92 42.5994 20.6028C42.6077 23.2873 40.7244 26.5521 38.3928 27.9019C36.0629 29.25 34.1679 28.1678 34.1596 25.4834C34.1512 22.8005 36.0345 19.5357 38.3644 18.1876Z" fill="url(#paint3_linear_2111_3988)"/>
<path d="M38.7202 18.3231C41.0518 16.975 42.9468 18.0554 42.9552 20.7383C42.9636 23.4227 41.0802 26.6876 38.7487 28.0374C36.4188 29.3855 34.5237 28.3033 34.5154 25.6188C34.507 22.936 36.3903 19.6712 38.7202 18.3231Z" fill="white"/>
<path d="M42.9536 20.7366C42.9619 23.4227 41.0803 26.6859 38.747 28.0357C36.4171 29.3838 34.5238 28.3033 34.5154 25.6205C34.5121 24.8979 34.6476 24.1336 34.8917 23.3776C35.2463 23.3675 35.6026 23.3776 35.9538 23.3993C36.4941 23.4311 37.0678 23.488 37.5461 23.2371C38.4543 22.757 38.6433 21.3738 39.6067 21.0142C40.1771 20.7968 40.9097 21.0059 41.3562 20.5861C41.7209 20.2415 41.7209 19.6076 42.1273 19.3132C42.2812 19.2028 42.4702 19.1593 42.6592 19.1326C42.8482 19.5708 42.9536 20.1127 42.9536 20.7383V20.7366Z" fill="#DBE7FE"/>
<g opacity="0.1">
<path d="M63.344 48.8224L58.6925 51.5136C58.4433 51.6541 58.2008 51.7277 57.9683 51.7277C57.7944 51.7277 57.6271 51.6842 57.4799 51.6056L57.4565 51.5956L56.8009 51.2109C56.2138 50.873 56.08 50.0334 56.4697 49.1202L63.2988 32.9531L63.3423 48.8208L63.344 48.8224Z" fill="white"/>
</g>
<path d="M78.6364 39.4811L58.4802 51.139C58.1407 51.3363 57.848 51.3397 57.6456 51.2075C57.6523 51.2142 57.6623 51.2209 57.669 51.2243L57.0134 50.8396C56.6571 50.6322 56.5484 50.0234 56.8612 49.2857L66.8899 25.5536C67.1141 25.0267 67.477 24.6153 67.8433 24.4045C68.1393 24.2339 68.4304 24.1904 68.6511 24.3192L69.2549 24.6772C69.265 24.6805 69.2717 24.6839 69.2784 24.6872L69.3051 24.7039C69.3051 24.7039 69.3018 24.7039 69.3001 24.7023C69.357 24.7357 69.4088 24.7759 69.4573 24.831L79.5848 36.9003C80.0798 37.4924 79.5413 38.9576 78.6347 39.4811H78.6364Z" fill="#DBE7FE"/>
<path d="M68.6529 24.3211C68.4321 24.1923 68.1377 24.2341 67.845 24.403C67.4787 24.6155 67.1124 25.0269 66.89 25.5555L56.8612 49.2843C56.5485 50.0235 56.6589 50.6323 57.0151 50.8397L57.6708 51.2211C57.3145 51.0137 57.2041 50.4049 57.5169 49.6656L67.5456 25.9368C67.7698 25.4083 68.1344 24.9968 68.5007 24.7844C68.7934 24.6155 69.0877 24.5737 69.3085 24.7024L68.6529 24.3211Z" fill="#AAC4E8"/>
<path d="M68.4989 24.7859C68.8651 24.5735 69.2314 24.5617 69.4572 24.831L79.588 36.902C80.0814 37.4924 79.5412 38.9593 78.6363 39.4828L58.4768 51.1423C57.5719 51.6658 57.025 50.8278 57.5134 49.6687L67.5421 25.9399C67.7663 25.4097 68.1309 25 68.4972 24.7875L68.4989 24.7859Z" fill="#DBE7FE"/>
<path d="M68.6529 24.3211C68.4321 24.1923 68.1377 24.2341 67.845 24.403C67.4787 24.6155 67.1124 25.0269 66.89 25.5555L56.8612 49.2843C56.5485 50.0235 56.6589 50.6323 57.0151 50.8397L57.6708 51.2211C57.3145 51.0137 57.2041 50.4049 57.5169 49.6656L67.5456 25.9368C67.7698 25.4083 68.1344 24.9968 68.5007 24.7844C68.7934 24.6155 69.0877 24.5737 69.3085 24.7024L68.6529 24.3211Z" fill="#AAC4E8"/>
<path d="M68.4989 24.7859C68.8652 24.5735 69.2315 24.5618 69.4573 24.831L79.5881 36.902C80.0815 37.4924 79.5412 38.9593 78.6364 39.4828L58.4768 51.1423C57.572 51.6658 57.0251 50.8279 57.5134 49.6688L67.5422 25.94C67.7663 25.4098 68.1309 25 68.4972 24.7876L68.4989 24.7859Z" fill="#DBE7FE"/>
<path d="M78.6362 39.4811L58.4801 51.139C57.5735 51.6625 57.0266 50.8229 57.515 49.6671L64.0196 34.2744C64.3625 34.2978 64.7054 34.3263 65.0483 34.3179C66.4465 34.2911 67.8214 33.6505 68.7446 32.6002C69.1594 32.1268 69.5324 31.5464 70.1396 31.3892C70.4523 31.3073 70.7919 31.3524 71.1063 31.2738C71.7854 31.0999 72.1818 30.3924 72.3992 29.7233C72.5113 29.3938 72.5966 29.0459 72.7187 28.7198L79.5846 36.8987C80.0797 37.4908 79.5411 38.9559 78.6346 39.4795L78.6362 39.4811Z" fill="#C6D7F4"/>
<path d="M68.372 40.8894C68.9323 40.565 69.3856 40.8276 69.3872 41.4715C69.3889 42.1154 68.939 42.8965 68.3787 43.221C67.8184 43.5455 67.3634 43.2862 67.3618 42.6423C67.3601 41.9984 67.8117 41.2122 68.372 40.8894Z" fill="#8FB0D8"/>
<path d="M68.3386 29.0326C69.1615 28.5559 69.8171 28.9891 69.7553 29.9742L69.2083 38.8221C69.1765 39.3457 68.8119 39.9494 68.3704 40.2037C67.9288 40.4579 67.5608 40.2806 67.5257 39.7956L66.9303 31.6083C66.8634 30.6968 67.5123 29.5109 68.3386 29.0326Z" fill="#8FB0D8"/>
<path d="M68.7968 40.9747C69.3571 40.6503 69.8104 40.9129 69.8121 41.5568C69.8137 42.2007 69.3638 42.9818 68.8035 43.3063C68.2432 43.6308 67.7882 43.3715 67.7866 42.7276C67.7849 42.0837 68.2365 41.2975 68.7968 40.9747Z" fill="#324566"/>
<path d="M68.7633 29.1179C69.5862 28.6412 70.2419 29.0744 70.18 30.0595L69.6331 38.9074C69.6013 39.431 69.2367 40.0348 68.7951 40.289C68.3535 40.5432 67.9856 40.3659 67.9505 39.8809L67.355 31.6936C67.2881 30.7821 67.9371 29.5962 68.7633 29.1179Z" fill="#324566"/>
<defs>
<linearGradient id="paint0_linear_2111_3988" x1="25.8208" y1="52.7936" x2="33.2798" y2="40.7443" gradientUnits="userSpaceOnUse">
<stop stop-color="#F9D5E0"/>
<stop offset="1" stop-color="#EF295A"/>
</linearGradient>
<linearGradient id="paint1_linear_2111_3988" x1="25.8209" y1="76.1092" x2="33.2799" y2="64.0599" gradientUnits="userSpaceOnUse">
<stop stop-color="#F9D5E0"/>
<stop offset="1" stop-color="#EF295A"/>
</linearGradient>
<linearGradient id="paint2_linear_2111_3988" x1="28.4437" y1="38.2903" x2="45.538" y2="19.1572" gradientUnits="userSpaceOnUse">
<stop stop-color="#F9D5E0"/>
<stop offset="1" stop-color="#EF295A"/>
</linearGradient>
<linearGradient id="paint3_linear_2111_3988" x1="33.5265" y1="28.4818" x2="46.0142" y2="20.7283" gradientUnits="userSpaceOnUse">
<stop stop-color="#EF7C9A"/>
<stop offset="1" stop-color="#EF295A"/>
</linearGradient>
</defs>
</svg>
