<svg width="96" height="96" viewBox="0 0 96 96" fill="none" xmlns="http://www.w3.org/2000/svg">
<g clip-path="url(#clip0_339_9008)">
<ellipse cx="27.4666" cy="56.999" rx="15.3751" ry="14.9757" transform="rotate(-14 27.4666 56.999)" fill="#F895B2"/>
<mask id="mask0_339_9008" style="mask-type:luminance" maskUnits="userSpaceOnUse" x="1" y="5" width="104" height="82">
<path d="M1.85144 27.757L90.1992 5.72946L104.951 64.8957L16.6032 86.9232L1.85144 27.757Z" fill="white"/>
</mask>
<g mask="url(#mask0_339_9008)">
<mask id="mask1_339_9008" style="mask-type:luminance" maskUnits="userSpaceOnUse" x="6" y="7" width="94" height="79">
<path d="M6.25586 26.66L84.5944 7.12804L99.3462 66.2942L21.0077 85.8262L6.25586 26.66Z" fill="white"/>
</mask>
<g mask="url(#mask1_339_9008)">
<path d="M74.5233 17.7281L40.814 26.1327C40.4207 26.2308 40.1915 26.67 40.3021 27.1135L42.0042 33.9403C42.1148 34.3839 42.5234 34.664 42.9166 34.5659L76.6259 26.1613C77.0192 26.0632 77.2484 25.6241 77.1378 25.1805L75.4357 18.3537C75.3251 17.9102 74.9165 17.63 74.5233 17.7281Z" fill="#F42E69"/>
<path d="M46.7084 33.6205L44.3345 34.2124L45.002 36.8896L46.7084 33.6205Z" fill="#F42E69"/>
<path d="M43.8376 28.25L72.265 21.1623" stroke="white" stroke-opacity="0.8" stroke-width="1.37958"/>
<path d="M44.5692 31.1669L74.9865 23.583" stroke="white" stroke-opacity="0.8" stroke-width="1.42705"/>
</g>
<mask id="mask2_339_9008" style="mask-type:luminance" maskUnits="userSpaceOnUse" x="6" y="7" width="94" height="79">
<path d="M6.49341 26.6063L84.8319 7.07433L99.5837 66.2405L21.2452 85.7725L6.49341 26.6063Z" fill="white"/>
</mask>
<g mask="url(#mask2_339_9008)">
<path d="M48.3333 36.0686L82.0426 27.6639C82.4358 27.5659 82.8444 27.846 82.955 28.2895L84.6571 35.1164C84.7677 35.56 84.5384 35.9991 84.1452 36.0971L50.4359 44.5018C50.0427 44.5998 49.6341 44.3198 49.5235 43.8762L47.8213 37.0493C47.7108 36.6058 47.94 36.1666 48.3333 36.0686Z" fill="#A9CAF9"/>
<path d="M80.3496 37.0444L82.7235 36.4525L83.391 39.1297L80.3496 37.0444Z" fill="#A9CAF9"/>
<path d="M51.4792 38.1345L79.9066 31.0467L51.4792 38.1345Z" fill="#A9CAF9"/>
<path d="M51.4792 38.1345L79.9066 31.0467" stroke="#F4F8FF" stroke-width="1.37958"/>
<path d="M52.2178 41.0789L78.9395 34.4164L52.2178 41.0789Z" fill="#A9CAF9"/>
<path d="M52.2178 41.0789L78.9395 34.4164" stroke="#F4F8FF" stroke-width="1.33755"/>
</g>
<mask id="mask3_339_9008" style="mask-type:luminance" maskUnits="userSpaceOnUse" x="6" y="7" width="94" height="79">
<path d="M6.49341 26.6063L84.8319 7.07433L99.5837 66.2405L21.2452 85.7725L6.49341 26.6063Z" fill="white"/>
</mask>
<g mask="url(#mask3_339_9008)">
<path d="M80.2817 39.921L46.5724 48.3257C46.1792 48.4237 45.9499 48.8629 46.0605 49.3064L47.7626 56.1333C47.8732 56.5769 48.2818 56.8569 48.675 56.7589L82.3843 48.3542C82.7776 48.2561 83.0069 47.8171 82.8963 47.3735L81.1941 40.5466C81.0836 40.1031 80.6749 39.823 80.2817 39.921Z" fill="#F42E69"/>
<path d="M52.5359 55.7178L50.0767 56.3309L50.7666 59.0826L52.5359 55.7178Z" fill="#F42E69"/>
<path d="M50.355 53.3466L77.0767 46.6841L50.355 53.3466Z" fill="#F42E69"/>
<path d="M50.355 53.3466L77.0767 46.6841" stroke="white" stroke-opacity="0.8" stroke-width="1.33755"/>
<path d="M49.6243 50.4092L78.0517 43.3214L49.6243 50.4092Z" fill="#F42E69"/>
<path d="M49.6243 50.4092L78.0517 43.3214" stroke="white" stroke-opacity="0.8" stroke-width="1.37958"/>
</g>
<mask id="mask4_339_9008" style="mask-type:luminance" maskUnits="userSpaceOnUse" x="6" y="7" width="94" height="79">
<path d="M6.49341 26.6063L84.8319 7.07433L99.5837 66.2405L21.2452 85.7725L6.49341 26.6063Z" fill="white"/>
</mask>
<g mask="url(#mask4_339_9008)">
<g opacity="0.999999">
<path d="M53.8855 58.3035L87.5948 49.8988C87.9881 49.8007 88.3967 50.0809 88.5072 50.5244L90.2094 57.3512C90.32 57.7949 90.0907 58.2339 89.6975 58.332L55.9881 66.7366C55.5949 66.8347 55.1863 66.5547 55.0757 66.111L53.3736 59.2842C53.263 58.8407 53.4923 58.4015 53.8855 58.3035Z" fill="#A9CAF9"/>
<path d="M85.8878 59.2792L88.2617 58.6874L88.9292 61.3646L85.8878 59.2792Z" fill="#EFF2F4"/>
</g>
<path d="M56.9437 60.5152L85.3711 53.4275" stroke="#F4F8FF" stroke-width="1.37958"/>
<path d="M57.6744 63.4698L77.8579 58.4375" stroke="#F4F8FF" stroke-width="1.16246"/>
</g>
</g>
<path d="M37.6406 65.5683L37.085 63.3398L37.0259 63.103C36.4717 60.8803 34.2209 59.528 31.9982 60.0822L25.0149 61.8233C22.7922 62.3775 21.4396 64.6283 21.9938 66.851L22.5908 69.2453C17.6939 67.7367 13.6839 63.7766 12.3539 58.4423C10.3328 50.3363 15.2657 42.1268 23.3716 40.1058C31.4775 38.0847 39.6871 43.0174 41.7082 51.1235C43.0505 56.5073 41.3258 61.9365 37.6406 65.5683Z" fill="#D3E5FF"/>
<path d="M30.6942 69.4572C28.9492 69.8922 27.1995 70.0049 25.5076 69.8332L24.6605 66.4356L22.0564 67.0849L22.5943 69.2424L21.9974 66.8481C21.4432 64.6254 22.7957 62.3746 25.0184 61.8205L32.0019 60.0793C34.2246 59.5251 36.4755 60.8774 37.0296 63.1001L37.0887 63.3369L34.4847 63.9862L35.3424 67.426C33.9558 68.3369 32.3951 69.0331 30.6942 69.4572Z" fill="white"/>
<path d="M25.5028 69.837C24.5075 69.7361 23.5321 69.5365 22.5897 69.2462L22.0518 67.0886L24.6557 66.4394L25.5028 69.837Z" fill="#D3E5FF"/>
<path d="M35.3417 67.4279L34.484 63.9881L37.088 63.3389L37.6436 65.5673C36.9445 66.256 36.1741 66.881 35.3417 67.4279Z" fill="#D3E5FF"/>
<path d="M25.6107 59.663L30.4635 58.4531L30.9209 60.2877C31.255 61.6278 30.4397 62.9853 29.0996 63.3194C27.7595 63.6536 26.4023 62.8378 26.0681 61.4977L25.6107 59.663Z" fill="#BECEE6"/>
<path d="M37.5962 52.2718C38.134 54.429 36.8212 56.614 34.664 57.1518L21.4073 60.4571C19.2501 60.9949 17.0652 59.6821 16.5273 57.5249L14.0483 47.5822L14.049 47.582C12.6754 41.8028 16.2072 35.9803 21.9857 34.5395C27.7642 33.0988 33.6159 36.5817 35.1165 42.3293L35.1172 42.3291L37.5962 52.2718Z" fill="#F65585"/>
<path d="M34.5167 49.5182C35.6576 54.0941 32.8729 58.7286 28.297 59.8694C23.7212 61.0103 19.0867 58.2257 17.9458 53.6498L16.3227 47.1398L16.3236 47.1395C15.2594 42.6023 18.0353 38.0379 22.5718 36.9069C27.1081 35.7758 31.7021 38.5027 32.8926 43.0084L32.8935 43.0082L34.5167 49.5182Z" fill="#E4EFFF"/>
<path d="M17.1504 50.4632L16.7372 48.8062L27.2144 43.4281C27.1074 46.1369 25.2255 48.4499 22.5953 49.1057L17.1504 50.4632Z" fill="#D3E5FF"/>
<path d="M22.3729 36.081C17.3393 37.336 14.2763 42.434 15.5313 47.4675L15.9445 49.1246L16.7625 48.9207C23.0722 47.3475 26.3438 46.5318 27.0672 43.4598L27.746 46.1822L34.1724 44.5799L33.7593 42.9228C32.5043 37.8893 27.4064 34.826 22.3729 36.081Z" fill="#F65585"/>
<path d="M22.3729 36.081C17.6592 37.2563 14.6249 41.8138 15.2952 46.5207L17.125 53.8593L17.9535 53.6527L16.3304 47.1427L16.3313 47.1424C15.2671 42.6052 18.043 38.0408 22.5795 36.9097C27.1158 35.7787 31.7098 38.5056 32.9005 43.0113L32.9012 43.0111L33.3439 44.7865L34.1724 44.5799L33.6707 42.5677L33.4747 41.988C31.8568 37.5174 27.0866 34.9058 22.3729 36.081Z" fill="#D3E5FF"/>
<path d="M17.3668 54.5518C18.0435 57.2648 20.7905 58.9153 23.5036 58.2392L27.6463 57.2064L27.4397 56.3778L23.297 57.4107C22.1681 57.692 21.036 57.4896 20.1113 56.9344C19.1871 56.3785 18.4771 55.4742 18.1954 54.3452L17.3668 54.5518Z" fill="#A8C1E6"/>
<path d="M16.7707 48.9181L14.7586 49.4197C13.7126 49.6805 13.0761 50.7398 13.3369 51.7856L14.0157 54.508C14.2765 55.5541 15.3357 56.1904 16.3817 55.9296L18.5846 55.3803C18.317 54.8396 18.103 54.262 17.9511 53.6525L16.7707 48.9181Z" fill="#465282"/>
<path d="M33.3355 44.7904L35.42 44.2707C36.4661 44.0099 37.5253 44.6464 37.7861 45.6922L38.4649 48.4146C38.7257 49.4607 38.0891 50.5197 37.0431 50.7806L34.768 51.3478C34.7503 50.7448 34.6679 50.1343 34.516 49.5249L33.3355 44.7904Z" fill="#465282"/>
<path d="M21.829 52.0587C22.1559 51.9772 22.4869 52.1762 22.5684 52.5031C22.6499 52.8299 22.451 53.161 22.1242 53.2425C21.7974 53.324 21.4664 53.125 21.3849 52.7982C21.3034 52.4713 21.5022 52.1402 21.829 52.0587Z" fill="#465282"/>
<path d="M30.2359 49.9635C30.5627 49.8821 30.8937 50.0811 30.9752 50.4079C31.0567 50.7348 30.8579 51.0659 30.5311 51.1474C30.2042 51.2289 29.8732 51.0298 29.7917 50.703C29.7103 50.3762 29.9091 50.045 30.2359 49.9635Z" fill="#465282"/>
<path d="M26.7064 55.9976L27.8902 55.7025C28.4132 55.5721 28.9427 55.8902 29.0731 56.4132C29.2035 56.9362 28.8854 57.4658 28.3624 57.5962L27.1785 57.8913C26.6557 58.0217 26.126 57.7036 25.9956 57.1806C25.8652 56.6576 26.1835 56.128 26.7064 55.9976Z" fill="#465282"/>
</g>
<defs>
<clipPath id="clip0_339_9008">
<rect width="78.4025" height="78.4025" fill="white" transform="translate(0.515625 19.3759) rotate(-14)"/>
</clipPath>
</defs>
</svg>
