<svg width="90" height="84" viewBox="0 0 90 84" fill="none" xmlns="http://www.w3.org/2000/svg">
<g clip-path="url(#clip0_2111_3934)">
<path d="M15.3765 18.565C15.2794 18.565 15.2007 18.4863 15.2007 18.3892V14.0118C15.2007 13.9147 15.2794 13.836 15.3765 13.836C15.4736 13.836 15.5523 13.9147 15.5523 14.0118V18.3892C15.5523 18.4863 15.4736 18.565 15.3765 18.565Z" fill="#364F66"/>
<path d="M13.8063 19.1409C13.7092 19.1409 13.6306 19.0622 13.6306 18.9651V9.63435C13.6306 9.53726 13.7092 9.45859 13.8063 9.45859C13.9034 9.45859 13.9821 9.53726 13.9821 9.63435V18.9651C13.9821 19.0622 13.9034 19.1409 13.8063 19.1409Z" fill="#364F66"/>
<path d="M12.1541 19.8791C12.057 19.8791 11.9783 19.8004 11.9783 19.7033V12.1503C11.9783 12.0532 12.057 11.9746 12.1541 11.9746C12.2512 11.9746 12.3299 12.0532 12.3299 12.1503V19.7033C12.3299 19.8004 12.2512 19.8791 12.1541 19.8791Z" fill="#364F66"/>
<path d="M10.3898 20.5001C10.2927 20.5001 10.214 20.4214 10.214 20.3244V16.2014C10.214 16.1043 10.2927 16.0256 10.3898 16.0256C10.4868 16.0256 10.5655 16.1043 10.5655 16.2014V20.3244C10.5655 20.4214 10.4868 20.5001 10.3898 20.5001Z" fill="#364F66"/>
<path d="M30.7101 10.468C30.6867 10.468 30.6633 10.468 30.6398 10.4663C29.4614 10.4027 28.6461 8.73544 28.611 8.66346C28.3281 8.3069 28.0017 8.10268 27.6384 8.12779C26.8182 8.15457 26.1 9.20248 26.0917 9.21252C26.0381 9.29287 25.9259 9.31296 25.8489 9.25939C25.7686 9.20583 25.7485 9.09534 25.8021 9.01667C25.8355 8.96812 26.629 7.81141 27.6267 7.77793C28.1038 7.76119 28.5306 7.99889 28.9073 8.47932C28.9341 8.52619 29.6873 10.0646 30.6599 10.1165C31.147 10.1382 31.6375 9.7733 32.1046 9.02336C32.1565 8.93966 32.2619 8.91455 32.3456 8.96645C32.4276 9.01834 32.4527 9.12548 32.4025 9.2075C31.8819 10.0445 31.3128 10.468 30.7118 10.468H30.7101Z" fill="#364F66"/>
<path d="M48.7355 80.0467C48.6434 80.0467 48.5664 79.9764 48.5614 79.8827C48.5563 79.8224 48.4726 78.423 49.2393 77.7818C49.6026 77.4789 50.0864 77.4018 50.6806 77.5475C50.7325 77.5692 52.2709 78.3158 53.0677 77.7618C53.4711 77.4805 53.6285 76.8913 53.5347 76.0108C53.5247 75.9137 53.595 75.8283 53.6904 75.8183C53.8076 75.8216 53.8729 75.8785 53.8829 75.9739C53.9901 76.9917 53.7842 77.6898 53.2669 78.0497C52.2993 78.7243 50.6304 77.9091 50.5601 77.8739C50.1148 77.7684 49.7382 77.822 49.4636 78.0513C48.8342 78.577 48.9095 79.8458 48.9095 79.8576C48.9162 79.9547 48.8426 80.0384 48.7472 80.0434C48.7421 80.0434 48.7388 80.0434 48.7355 80.0434V80.0467Z" fill="#364F66"/>
<path d="M82.1329 29.4576C81.2976 29.4576 80.618 28.7779 80.618 27.9426C80.618 27.1073 81.2976 26.4277 82.1329 26.4277C82.9682 26.4277 83.6495 27.1073 83.6495 27.9426C83.6495 28.7779 82.9699 29.4576 82.1329 29.4576ZM82.1329 26.7759C81.4901 26.7759 80.9678 27.2981 80.9678 27.9409C80.9678 28.5838 81.4901 29.106 82.1329 29.106C82.7757 29.106 83.298 28.5838 83.298 27.9409C83.298 27.2981 82.7757 26.7759 82.1329 26.7759Z" fill="#364F66"/>
<path d="M75.5945 66.8859C75.4974 66.8859 75.4187 66.8072 75.4187 66.7102V64.072C74.8328 64.0803 73.0116 64.1021 72.6483 64.0686C72.5529 64.0603 72.4809 63.9749 72.4893 63.8778C72.4993 63.7824 72.5713 63.7137 72.6801 63.7188C73.0835 63.7556 75.566 63.7188 75.5912 63.7188H75.5945C75.6414 63.7188 75.6849 63.7372 75.7184 63.769C75.7519 63.8025 75.7703 63.846 75.7703 63.8945V66.7102C75.7703 66.8072 75.6916 66.8859 75.5945 66.8859Z" fill="#364F66"/>
<path d="M81.6442 10.8045C81.5471 10.8045 81.4685 10.7258 81.4685 10.6287V7.99052C80.8826 7.99889 79.0613 8.02065 78.6964 7.98717C78.601 7.9788 78.529 7.89343 78.5373 7.79634C78.5474 7.70092 78.6127 7.63396 78.7282 7.63731C79.1316 7.67414 81.6141 7.63731 81.6392 7.63731C81.6844 7.62057 81.7313 7.65405 81.7648 7.68753C81.7982 7.72101 81.8167 7.76453 81.8167 7.81308V10.6287C81.8167 10.7258 81.738 10.8045 81.6409 10.8045H81.6442Z" fill="#364F66"/>
<path d="M8.51513 79.5043C7.67982 79.5043 7.00018 78.8247 7.00018 77.9894C7.00018 77.1541 7.67982 76.4728 8.51513 76.4728C9.35044 76.4728 10.0301 77.1524 10.0301 77.9894C10.0301 78.8264 9.35044 79.5043 8.51513 79.5043ZM8.51513 76.8226C7.87232 76.8226 7.35004 77.3449 7.35004 77.9877C7.35004 78.6305 7.87232 79.1528 8.51513 79.1528C9.15794 79.1528 9.68021 78.6305 9.68021 77.9877C9.68021 77.3449 9.15794 76.8226 8.51513 76.8226Z" fill="#364F66"/>
<path d="M14.096 48.72C13.9989 48.72 13.9219 48.6413 13.9202 48.5459L13.9018 42.0827C13.8968 42.0659 13.8934 42.0492 13.8934 42.0308L13.875 34.1765C13.8667 30.7967 16.2521 26.6671 19.1916 24.9696L52.9205 5.49798C53.0042 5.45111 53.1113 5.47957 53.1598 5.56159C53.2084 5.64529 53.1799 5.75242 53.0962 5.80097L19.3673 25.2726C16.5249 26.9131 14.2182 30.9072 14.2266 34.1748L14.245 41.9772C14.25 41.994 14.2533 42.0107 14.2533 42.0291L14.2718 48.5442C14.2718 48.6413 14.1948 48.72 14.0977 48.72H14.096Z" fill="#364F66"/>
<path d="M21.5619 83.8265C21.5435 83.8265 21.5234 83.8232 21.505 83.8165L16.915 82.2346C15.1891 81.6387 14.0207 80.0685 14.0073 78.3225V78.2723L13.9303 51.39C13.9303 51.2929 14.0073 51.2142 14.1044 51.2142C14.2015 51.2142 14.2785 51.2929 14.2802 51.3883L14.3572 78.3208C14.3689 79.9161 15.4419 81.3541 17.0288 81.9015L20.8572 83.2206C20.4019 82.5376 20.2931 81.488 20.2931 80.1103L25.5192 35.0553L22.3403 34.8561C22.2433 34.8494 22.1713 34.7674 22.1763 34.6703C22.347 31.9016 23.2677 30.4218 25.695 29.0123L64.3956 8.07254C64.4659 8.03237 64.5546 8.04911 64.6082 8.10937C65.1874 8.75218 65.6611 9.00327 66.0294 8.84759C67.1041 8.39227 67.3485 4.61914 67.1811 2.02615L64.871 0.680277C63.9302 0.137909 62.668 0.266805 61.3155 1.04855L55.0046 4.69279C54.9226 4.74134 54.8154 4.71288 54.7652 4.62918C54.7167 4.54548 54.7451 4.43835 54.8288 4.3898L61.1397 0.745562C62.6044 -0.101469 63.9905 -0.230365 65.0451 0.377288L67.4355 1.77003C67.4857 1.79849 67.5192 1.85206 67.5226 1.90897C67.5276 1.97426 67.9494 8.41403 66.165 9.169C65.6712 9.37824 65.092 9.13552 64.4408 8.44417L25.8657 29.3153C23.6142 30.6226 22.7287 31.9953 22.5362 34.5146L25.7234 34.7138C25.772 34.7172 25.8155 34.7389 25.8473 34.7758C25.8774 34.8126 25.8925 34.8611 25.8858 34.908L20.6413 80.1254C20.6429 81.7927 20.8137 83.013 21.6473 83.4918C21.726 83.5369 21.7561 83.634 21.7193 83.7161C21.6908 83.7797 21.6272 83.8182 21.5603 83.8182L21.5619 83.8265Z" fill="#364F66"/>
<path d="M20.9879 83.6508L18.5991 82.2597C17.655 81.7107 17.0725 80.5489 17.0691 78.8934L16.9369 34.7942L28.5978 35.5173L23.3566 80.7364C23.3599 82.392 20.0488 83.1034 20.9879 83.6525V83.6508Z" fill="#1C323D"/>
<path d="M19.3474 44.0379L16.9586 42.6485L69.3992 12.3713L71.7896 13.7607L19.3474 44.0379Z" fill="#F65283"/>
<path d="M19.3474 44.0379L71.7896 13.7607L71.9001 50.0073C71.9101 53.3368 69.5682 57.3912 66.6706 59.0635L24.7191 83.2842C21.8232 84.9565 19.4679 83.614 19.4578 80.2844L19.3474 44.0379Z" fill="#324566"/>
<path d="M71.8984 50.0056C71.9068 53.3351 69.5682 57.3895 66.6689 59.0634L24.7174 83.2842C21.8231 84.9548 19.4679 83.6139 19.4578 80.2844L19.3524 46.4417C21.7947 45.3318 24.4864 44.7242 27.1614 44.4011C31.1321 43.9207 35.1496 44.0094 39.1354 43.683C41.7685 43.467 44.9508 42.5798 45.5199 40.0019C45.7827 38.8184 45.381 37.588 45.4864 36.3828C45.6806 34.1849 47.5638 32.4422 49.6329 31.6722C51.6985 30.9039 53.9584 30.8921 56.163 30.7666C56.7389 30.7331 57.3432 30.6796 57.8303 30.3715C58.7343 29.7974 58.9251 28.5586 58.8263 27.4923C58.6606 25.6727 57.9257 23.8916 57.2946 22.1272L71.7846 13.7624L71.895 50.0072L71.8984 50.0056Z" fill="#26404F"/>
<path d="M75.2648 48.0035C75.1677 48.0035 75.0907 47.9248 75.089 47.8294L75.0103 25.199C75.0103 25.1019 75.0873 25.0232 75.1844 25.0232C75.2815 25.0232 75.3585 25.1019 75.3602 25.1973L75.4389 47.8277C75.4389 47.9248 75.3619 48.0035 75.2648 48.0035Z" fill="#364F66"/>
<path d="M75.176 22.5943C75.0789 22.5943 75.0019 22.5156 75.0002 22.4202L74.9768 15.9402C74.9768 15.8431 75.0538 15.7645 75.1509 15.7645C75.248 15.7645 75.325 15.8431 75.3267 15.9385L75.3501 22.4185C75.3501 22.5156 75.2731 22.5943 75.176 22.5943Z" fill="#364F66"/>
<path d="M70.2377 2.54508C70.4202 5.22009 70.2545 12.065 67.3669 8.84759L28.6746 29.7873C25.7803 31.458 25.1961 33.2441 25.2062 36.5703L19.3489 44.0379L16.9602 42.6501L16.9384 34.7942C16.9267 31.468 19.2686 27.4136 22.1645 25.743L64.1143 1.52061C65.5724 0.6786 66.8914 0.601597 67.8473 1.15401L70.236 2.54508H70.2377Z" fill="#AB204A"/>
<path d="M66.5031 2.91001C69.4008 1.23771 71.7561 2.58023 71.7661 5.90642L71.7879 13.759L19.3473 44.0379L19.3255 36.1853C19.3155 32.8574 21.6574 28.803 24.5517 27.1324L66.5031 2.91001Z" fill="#F65283"/>
<path d="M71.7879 13.7607L19.3473 44.0379L19.3255 36.1853C19.3188 34.0426 20.2881 31.5969 21.7545 29.6835C24.2269 28.8884 26.8785 28.6072 29.4531 28.1268C32.801 27.504 36.298 26.3908 38.449 23.746C39.3211 22.6763 39.9221 21.4057 40.7775 20.321C42.1251 18.6169 44.0987 17.4133 46.2347 17.0032C48.836 16.5044 51.9078 17.0216 53.8127 15.1786C54.9259 14.0989 55.3578 12.4031 56.6217 11.5008C58.4496 10.1968 61.2837 11.0656 62.9844 9.60089C64.4492 8.34373 64.2332 6.21611 64.3002 4.18391L66.5015 2.91336C69.3991 1.23939 71.7544 2.58024 71.7644 5.90977L71.7862 13.7624L71.7879 13.7607Z" fill="url(#paint0_linear_2111_3934)"/>
<path d="M24.3107 32.6364C25.2699 32.0823 26.0566 32.5142 26.06 33.6174C26.0633 34.7205 25.2816 36.0731 24.3224 36.6272C23.3699 37.1779 22.5898 36.726 22.5865 35.6228C22.5831 34.5197 23.3582 33.1855 24.3107 32.6364Z" fill="#AB204A"/>
<path d="M25.0438 32.7553C26.003 32.2012 26.7898 32.6331 26.7931 33.7362C26.7965 34.8394 26.0148 36.192 25.0556 36.746C24.1031 37.2968 23.323 36.8448 23.3197 35.7417C23.3163 34.6385 24.0914 33.3043 25.0438 32.7553Z" fill="white"/>
<path d="M29.89 29.409C30.8492 28.8549 31.636 29.2868 31.6393 30.39C31.6427 31.4931 30.8609 32.8457 29.9018 33.3998C28.9493 33.9505 28.1692 33.4985 28.1658 32.3954C28.1625 31.2922 28.9375 29.9581 29.89 29.409Z" fill="#AB204A"/>
<path d="M30.6215 29.5279C31.5807 28.9738 32.3675 29.4057 32.3708 30.5088C32.3742 31.612 31.5924 32.9645 30.6333 33.5186C29.6808 34.0694 28.9007 33.6174 28.8973 32.5142C28.894 31.4111 29.6691 30.0769 30.6215 29.5279Z" fill="white"/>
<path d="M35.4677 26.1816C36.4269 25.6275 37.2137 26.0594 37.217 27.1625C37.2204 28.2657 36.4386 29.6183 35.4795 30.1724C34.527 30.7231 33.7469 30.2711 33.7435 29.168C33.7402 28.0648 34.5152 26.7307 35.4677 26.1816Z" fill="#AB204A"/>
<path d="M36.2009 26.3005C37.1601 25.7464 37.9469 26.1783 37.9503 27.2814C37.9536 28.3846 37.1719 29.7371 36.2127 30.2912C35.2602 30.842 34.4801 30.39 34.4768 29.2868C34.4734 28.1837 35.2485 26.8495 36.2009 26.3005Z" fill="white"/>
<path d="M47.3579 33.8434C46.7503 33.4902 45.9468 33.6023 45.1449 34.066C44.2109 34.605 43.2785 35.6195 42.6591 36.9302L28.1792 67.4986C27.1748 69.6195 27.451 71.4325 28.4755 72.0284L29.2891 72.5004C28.2629 71.9045 34.5135 64.4603 35.5179 62.3377L48.8294 41.1185C49.4504 39.8077 47.3512 40.9645 48.2836 40.4254C49.0855 39.9617 47.5638 33.9605 48.1715 34.3138L47.3579 33.8417V33.8434Z" fill="#AB204A"/>
<path d="M45.9585 34.5381C46.8925 33.999 47.8266 33.9354 48.4527 34.528L63.0581 48.3065C64.6132 49.7746 63.1569 53.998 60.584 55.4828L31.4987 72.2728C28.9258 73.7576 27.4493 71.2265 28.9927 67.9707L43.4726 37.4022C44.0937 36.0915 45.0261 35.0771 45.9585 34.5381Z" fill="#F65283"/>
<path d="M60.584 55.4812L31.4988 72.2761C28.9225 73.7576 27.4477 71.2299 28.9928 67.9723L36.8019 51.4787C37.3259 51.3682 37.8163 51.1774 38.2683 50.8677C40.1398 49.5988 40.8044 46.5405 43.0559 46.3413C43.7054 46.286 44.3716 46.507 45.006 46.3413C46.9244 45.8424 46.8056 42.4811 48.7239 41.9906C49.4923 41.7931 50.3008 42.1731 51.0859 42.0458C52.1405 41.8801 52.8386 40.8724 53.2654 39.8981C53.3525 39.7006 53.4312 39.4947 53.5115 39.2955L63.0565 48.3082C64.6099 49.7746 63.1519 53.9997 60.584 55.4812Z" fill="url(#paint1_linear_2111_3934)"/>
<path d="M45.5785 56.0988C46.4373 55.6034 47.1387 56.0001 47.142 56.9894C47.1454 57.9787 46.4473 59.184 45.5886 59.6778C44.7265 60.175 44.0284 59.7766 44.0251 58.7872C44.0217 57.7979 44.7165 56.596 45.5785 56.0988Z" fill="#AB204A"/>
<path d="M45.5351 40.9695C46.6901 40.3032 47.6041 40.9075 47.5187 42.2819L46.8843 52.6756C46.8374 53.4925 46.2649 54.4349 45.5752 54.8333C44.8856 55.2317 44.3097 54.9522 44.2545 54.1939L43.5665 44.5635C43.4727 43.2913 44.3817 41.6357 45.5367 40.9695H45.5351Z" fill="#AB204A"/>
<path d="M46.8556 56.2428C47.7144 55.7473 48.4158 56.1441 48.4191 57.1334C48.4225 58.1227 47.7244 59.328 46.8657 59.8218C46.0036 60.319 45.3055 59.9206 45.3022 58.9312C45.2988 57.9419 45.9935 56.74 46.8556 56.2428Z" fill="white"/>
<path d="M46.8139 41.1134C47.9689 40.4472 48.8829 41.0515 48.7975 42.4258L48.1631 52.8195C48.1162 53.6364 47.5437 54.5789 46.854 54.9773C46.1644 55.3757 45.5885 55.0961 45.5333 54.3378L44.8453 44.7075C44.7515 43.4352 45.6605 41.7797 46.8155 41.1134H46.8139Z" fill="white"/>
</g>
<defs>
<linearGradient id="paint0_linear_2111_3934" x1="15.1868" y1="52.1743" x2="43.6978" y2="2.34819" gradientUnits="userSpaceOnUse">
<stop stop-color="#F9D5E0"/>
<stop offset="1" stop-color="#EF295A"/>
</linearGradient>
<linearGradient id="paint1_linear_2111_3934" x1="25.5758" y1="79.2073" x2="50.1138" y2="43.0405" gradientUnits="userSpaceOnUse">
<stop stop-color="#F9D5E0"/>
<stop offset="1" stop-color="#EF295A"/>
</linearGradient>
<clipPath id="clip0_2111_3934">
<rect width="90" height="84" fill="white"/>
</clipPath>
</defs>
</svg>
