<svg width="91" height="84" viewBox="0 0 91 84" fill="none" xmlns="http://www.w3.org/2000/svg">
<path d="M42.1284 13.0004C42.0345 13.0004 41.9585 12.9243 41.9585 12.8305V8.59937C41.9585 8.50552 42.0345 8.42947 42.1284 8.42947C42.2222 8.42947 42.2983 8.50552 42.2983 8.59937V12.8305C42.2983 12.9243 42.2222 13.0004 42.1284 13.0004Z" fill="#364F66"/>
<path d="M40.6122 13.5553C40.5183 13.5553 40.4423 13.4793 40.4423 13.3854V4.36988C40.4423 4.27604 40.5183 4.19999 40.6122 4.19999C40.706 4.19999 40.782 4.27604 40.782 4.36988V13.3854C40.782 13.4793 40.706 13.5553 40.6122 13.5553Z" fill="#364F66"/>
<path d="M39.0152 14.2689C38.9214 14.2689 38.8453 14.1928 38.8453 14.099V6.80175C38.8453 6.70791 38.9214 6.63186 39.0152 6.63186C39.109 6.63186 39.1851 6.70791 39.1851 6.80175V14.099C39.1851 14.1928 39.109 14.2689 39.0152 14.2689Z" fill="#364F66"/>
<path d="M37.3097 14.8675C37.2159 14.8675 37.1398 14.7915 37.1398 14.6976V10.7141C37.1398 10.6203 37.2159 10.5442 37.3097 10.5442C37.4036 10.5442 37.4796 10.6203 37.4796 10.7141V14.6976C37.4796 14.7915 37.4036 14.8675 37.3097 14.8675Z" fill="#364F66"/>
<path d="M51.6926 79.8C51.6748 79.8 51.6553 79.7968 51.6375 79.7903C51.5486 79.7596 51.5016 79.6641 51.5324 79.5751C51.5518 79.5217 52.0032 78.2435 52.9239 77.9603C53.364 77.8276 53.8251 77.9377 54.2959 78.292C54.3331 78.3292 55.4253 79.5735 56.3411 79.3793C56.8071 79.2806 57.1679 78.8146 57.4138 77.9959C57.4414 77.9069 57.5352 77.8568 57.6242 77.8827C57.7132 77.9102 57.765 78.004 57.7375 78.093C57.4511 79.0395 57.0061 79.5848 56.4107 79.7094C55.2862 79.9424 54.1147 78.5946 54.0662 78.538C53.7102 78.2775 53.3494 78.1836 53.0242 78.2839C52.2653 78.5169 51.856 79.6738 51.8527 79.6851C51.8285 79.7547 51.7621 79.7984 51.6926 79.7984V79.8Z" fill="#364F66"/>
<path d="M78.7114 8.54112C77.904 8.54112 77.2471 7.8842 77.2471 7.07682C77.2471 6.26943 77.904 5.61251 78.7114 5.61251C79.5188 5.61251 80.1757 6.26943 80.1757 7.07682C80.1757 7.8842 79.5188 8.54112 78.7114 8.54112ZM78.7114 5.95068C78.0901 5.95068 77.5853 6.4555 77.5853 7.07682C77.5853 7.69813 78.0901 8.20295 78.7114 8.20295C79.3327 8.20295 79.8375 7.69813 79.8375 7.07682C79.8375 6.4555 79.3327 5.95068 78.7114 5.95068Z" fill="#364F66"/>
<path d="M15.6967 66.3511C14.8893 66.3511 14.2324 65.6942 14.2324 64.8868C14.2324 64.0794 14.8893 63.4225 15.6967 63.4225C16.5041 63.4225 17.161 64.0794 17.161 64.8868C17.161 65.6942 16.5041 66.3511 15.6967 66.3511ZM15.6967 63.7606C15.0754 63.7606 14.5706 64.2655 14.5706 64.8868C14.5706 65.5081 15.0754 66.0129 15.6967 66.0129C16.318 66.0129 16.8229 65.5081 16.8229 64.8868C16.8229 64.2655 16.318 63.7606 15.6967 63.7606Z" fill="#364F66"/>
<path d="M4.68772 26.2228C4.59388 26.2228 4.51945 26.1467 4.51783 26.0545C4.50974 23.0498 5.67471 19.5695 7.71179 16.5034C8.88323 14.7397 10.2812 13.2188 11.7552 12.1056C11.828 12.049 11.9348 12.0652 11.9914 12.138C12.0481 12.2124 12.0335 12.3192 11.9591 12.3758C10.5158 13.4664 9.14535 14.9582 7.99494 16.6911C5.99184 19.7022 4.84791 23.1146 4.856 26.0545C4.856 26.1483 4.78157 26.2244 4.68772 26.2244V26.2228Z" fill="#364F66"/>
<path d="M9.27322 32.9068C9.2441 32.9068 9.21497 32.8987 9.18747 32.8841C9.18423 32.8841 9.18261 32.8809 9.17938 32.8793L7.08081 31.656C5.73301 30.8745 4.87708 29.407 4.60526 27.4104C4.59231 27.3182 4.65703 27.2324 4.74926 27.2195C4.85281 27.2097 4.92724 27.2712 4.94018 27.3651C5.19583 29.2533 5.99513 30.6367 7.25071 31.3632L8.71339 32.2159C8.66485 31.7062 9.07582 31.1043 9.58711 30.3584C10.2214 29.4329 11.0093 28.2793 11.0061 27.0415C10.9899 22.9382 12.4073 22.0531 15.1272 20.7231L15.4751 20.5549C16.3002 20.1568 17.2355 19.7038 18.2823 19.1003C19.4699 18.4159 19.7806 16.1992 20.0298 14.4161C20.2077 13.1379 20.3404 12.1897 20.7417 11.8726L19.1269 10.9309C17.5639 10.0184 15.4718 10.2303 13.2406 11.5247C13.1581 11.5717 13.0561 11.5442 13.0092 11.4633C12.9623 11.3824 12.9898 11.2788 13.0707 11.2319C15.4152 9.87275 17.6254 9.66241 19.2968 10.6381L21.4018 11.8661C21.4827 11.9131 21.5102 12.0166 21.4633 12.0975C21.4164 12.1784 21.3112 12.2043 21.2319 12.159H21.2303C21.0799 12.07 21.0119 12.104 20.9892 12.1153C20.6705 12.269 20.5152 13.3855 20.3647 14.463C20.1058 16.3173 19.7838 18.6262 18.4522 19.3931C17.394 20.0031 16.454 20.4578 15.6223 20.8591L15.276 21.0273C12.6096 22.3314 11.3281 23.1307 11.3443 27.0399C11.3491 28.3844 10.5256 29.585 9.86541 30.5493C9.38486 31.2515 8.97065 31.8567 9.05964 32.245C9.09038 32.3777 9.18423 32.4909 9.34927 32.5864L9.35574 32.5896C9.43664 32.6366 9.46415 32.7401 9.41722 32.821C9.38648 32.8744 9.32823 32.9052 9.2716 32.9052L9.27322 32.9068Z" fill="#364F66"/>
<path d="M20.2883 20.2054C22.7542 18.7783 21.7559 11.706 23.3723 12.646L21.1685 11.3629C19.5538 10.4245 17.3128 10.5555 14.8453 11.9826C12.7435 13.1961 10.8165 15.1539 9.2988 17.4386C9.10464 21.7522 11.9362 22.9641 16.9779 21.9108C17.9293 21.4464 19.0328 20.9302 20.2883 20.207V20.2054Z" fill="#26404F"/>
<path d="M9.29893 17.4386C7.27641 20.4821 5.982 24.1032 5.99333 27.3214C5.9998 30.1206 6.98841 32.0913 8.58538 33.0184L10.7891 34.3015C9.19214 33.3744 12.7825 31.1496 12.7777 28.344C12.7631 24.1517 14.2144 23.2586 16.9796 21.9091L9.30055 17.437L9.29893 17.4386Z" fill="#1C323D"/>
<path d="M17.0526 13.2657C21.9568 10.4342 25.9468 12.7075 25.963 18.343C25.9792 23.9834 22.0151 30.8503 17.1109 33.6818C12.2067 36.5133 8.21182 34.2416 8.19564 28.6012C8.17946 22.9657 12.1484 16.0972 17.0526 13.2657Z" fill="#324566"/>
<path d="M13.1245 33.6171C10.8512 33.6171 9.48721 31.7402 9.47912 28.598C9.46456 23.3799 13.1504 17.0001 17.6954 14.3757C18.8798 13.6913 20.0367 13.3304 21.0382 13.3304C23.3099 13.3304 24.6723 15.2057 24.682 18.3479C24.6965 23.5676 21.0139 29.949 16.4706 32.5718C15.2846 33.2563 14.1277 33.6187 13.1261 33.6187L13.1245 33.6171Z" fill="#26404F"/>
<path d="M25.133 15.1426L36.5076 19.9238C41.4895 22.3104 46.5199 25.705 51.6344 30.86C58.6566 37.2964 66.182 42.665 74.3513 46.6599C76.3463 47.6355 78.1326 49.0092 79.4804 50.7745C81.3023 53.1594 81.3994 55.0185 79.9092 56.2773C79.4124 56.6964 79.4464 57.4763 79.9577 57.8759C84.6953 61.5796 86.5009 65.3754 82.3475 67.6309C82.0951 67.7668 81.9074 68.0031 81.8395 68.2814C80.7117 72.9202 76.911 72.7293 71.6427 70.1518C70.9713 69.8233 70.1882 70.2796 70.138 71.0255C69.9066 74.4363 67.2822 75.4136 62.5689 74.2696L44.8954 67.9189C44.1139 67.639 43.2305 67.6811 42.5299 68.1244C40.2533 69.5628 35.3151 67.1067 30.5485 64.8544C27.0358 63.1943 23.9276 60.7819 21.4633 57.7805C19.9651 55.9554 18.5655 54.1399 17.2872 52.3375C15.3392 49.5917 14.3198 46.2958 14.3198 42.9287V38.3255C14.3198 36.9502 13.87 35.6105 13.0367 34.5151L13.0222 34.4957C12.7309 34.1122 12.3879 33.7773 12.0287 33.4569C6.00323 28.0997 17.839 11.1235 25.133 15.1426Z" fill="#F65283"/>
<path d="M82.3507 67.6342C82.0982 67.7652 81.9057 68.0015 81.8361 68.2798C80.71 72.9235 76.9141 72.7309 71.6426 70.1469C70.9712 69.8233 70.1945 70.278 70.1411 71.019C69.9049 74.4314 67.2789 75.4087 62.5656 74.2664L44.8921 67.9125C44.1154 67.6325 43.2336 67.6762 42.5265 68.1212C40.2581 69.5612 35.3183 67.1002 30.5516 64.8479C27.034 63.1895 23.9275 60.7803 21.4665 57.7789C19.965 55.9456 18.5686 54.1302 17.2855 52.3326C16.2727 50.9104 15.5138 49.3393 15.0171 47.6889C16.1869 47.6889 17.3567 47.7245 18.5168 47.7844C20.2966 47.8718 22.6363 47.6614 23.0732 45.9334C23.6233 43.7167 20.2287 42.2508 20.219 39.9629C20.2109 38.8627 21.0571 37.9032 22.0425 37.4323C23.0376 36.9615 24.1637 36.8822 25.2542 36.8046C27.4272 36.6557 29.6002 36.5166 31.7732 36.3677C32.8298 36.2981 33.9818 36.1849 34.7228 35.4341C36.1111 34.0378 35.0367 31.5509 33.4139 30.4328C31.791 29.3164 29.7491 28.8795 28.2557 27.5884C26.9807 26.48 26.2574 24.8313 26.0212 23.155C25.8998 22.2732 25.9079 21.3315 26.3173 20.5371C27.068 19.1148 28.9012 18.6084 30.4982 18.7475C32.1033 18.8867 33.6226 19.5242 35.2196 19.7604C35.595 19.8219 35.9784 19.8478 36.3538 19.8559L36.5027 19.9174C41.4861 22.3088 46.5133 25.7034 51.6278 30.8535C58.6532 37.2948 66.177 42.6618 74.3463 46.6599C76.3446 47.6291 78.1341 49.0076 79.4787 50.7712C81.3022 53.1546 81.3993 55.0121 79.9058 56.279C79.4091 56.698 79.4431 57.4747 79.9576 57.8759C84.6968 61.5763 86.5025 65.3722 82.349 67.6325L82.3507 67.6342Z" fill="url(#paint0_linear_2111_3865)"/>
<path d="M70.896 70.0838C69.8426 67.9885 68.2165 66.254 66.3186 65.0081C65.3559 64.4079 64.3511 63.8658 63.2654 63.5277C62.7315 63.3319 62.1813 63.2138 61.6264 63.052C61.052 62.8966 60.4662 62.7704 59.9048 62.5811C57.6363 61.8643 55.4666 60.8968 53.4052 59.7528C51.3358 58.6251 49.3683 57.3161 47.5367 55.8453C49.5722 57.0119 51.6432 58.0944 53.7402 59.0991C55.8404 60.0958 57.981 61.0035 60.1831 61.6831C60.7284 61.874 61.2882 62.0019 61.8416 62.1588C62.4079 62.3336 63.0081 62.4614 63.5647 62.6911C64.7006 63.1005 65.7685 63.6975 66.7377 64.4078C68.6793 65.8285 70.1808 67.8413 70.896 70.0822V70.0838Z" fill="#AB204A"/>
<path d="M82.0454 67.8785C82.0793 66.5469 81.4014 65.3382 80.5196 64.424C79.6507 63.4775 78.5699 62.7478 77.4373 62.1313C75.1575 60.9097 72.6172 60.2382 70.1319 59.2496C67.6645 58.2691 65.252 57.1511 62.9302 55.868C60.6051 54.5946 58.3366 53.2144 56.2251 51.6158C57.3869 52.2485 58.5437 52.8811 59.7249 53.4669C60.8915 54.0768 62.0678 54.669 63.2602 55.224C65.6387 56.3453 68.0318 57.4261 70.4782 58.3759C71.6966 58.8775 72.9214 59.2868 74.1705 59.7706C74.7951 60.0117 75.4196 60.2544 76.0215 60.5554C76.638 60.8191 77.2188 61.167 77.7981 61.5084C78.9339 62.2284 80.0245 63.0617 80.8707 64.1296C81.2914 64.6603 81.6279 65.2654 81.8528 65.9013C82.0761 66.5355 82.1877 67.228 82.0454 67.8785Z" fill="#AB204A"/>
<path d="M79.5633 57.1753C76.0101 56.0055 72.6026 54.4635 69.2824 52.7646C65.9752 51.0414 62.7473 49.1548 59.7313 46.9414C63.1243 48.5125 66.4088 50.2357 69.7144 51.9281C73.0071 53.6465 76.3127 55.3276 79.5633 57.1737V57.1753Z" fill="#AB204A"/>
<path d="M40.9236 68.5467C38.7797 68.6001 35.6909 67.2685 32.5067 65.7751L32.6765 65.1813C33.0406 63.9063 34.0389 62.8869 35.3285 62.5698C36.2863 62.3368 37.5322 62.3368 39.0321 62.9646C42.8312 64.56 40.9252 68.5467 40.9252 68.5467H40.9236Z" fill="white"/>
<path d="M40.9217 68.55C38.7826 68.6017 35.6939 67.2669 32.508 65.7751L32.6747 65.1813C32.8138 64.6845 33.0581 64.2218 33.3817 63.8286C33.4076 63.8367 33.4254 63.8464 33.4513 63.8545C34.4642 64.2994 35.6599 64.4661 36.6889 64.0373C36.8556 63.9678 37.0206 63.8885 37.1954 63.8448C37.8329 63.6878 38.4607 64.0972 38.993 64.4823C39.5334 64.8577 40.1968 65.2411 40.8165 65.0146C40.9217 64.979 41.0171 64.9191 41.1045 64.8577C41.8633 66.5776 40.9217 68.55 40.9217 68.55Z" fill="#DBE7FE"/>
<path d="M44.0878 67.7458C43.6267 67.7151 43.1656 67.796 42.753 67.9999C42.753 67.9643 42.7546 67.927 42.7562 67.8915C42.8808 63.1296 40.4505 58.6558 36.4476 56.0719C36.035 55.8065 35.6127 55.5493 35.179 55.2985C33.5254 54.3455 31.5418 54.0461 29.715 54.5995C29.5726 54.6432 29.4335 54.6901 29.2943 54.7419C29.2134 54.7726 29.1568 54.6658 29.2264 54.6173L30.4868 53.7387C30.7781 53.5348 30.859 53.1384 30.6696 52.8375C29.6454 51.2081 28.9529 49.6484 29.0888 48.2633C29.1147 48.0028 29.4933 47.9915 29.5306 48.2504C29.6746 49.2406 30.1535 50.6467 31.5838 51.9298C32.121 52.4119 32.7423 52.7889 33.4025 53.0785C35.1224 53.8325 39.8616 56.1382 41.6592 59.3225C43.2125 61.7236 43.9098 64.4516 44.0862 67.7442L44.0878 67.7458Z" fill="#AB204A"/>
<path d="M32.139 26.6386C36.6322 31.457 38.9378 36.6476 39.5624 42.123C39.598 42.4401 39.9766 42.5776 40.2015 42.3527L46.6477 35.9211C46.9761 35.5927 47.4906 36.0295 47.2237 36.4098C43.3485 41.945 39.3245 46.621 35.0336 49.7745C34.6986 50.0205 34.2683 49.6241 34.4818 49.2681L36.5319 45.8509C36.5626 45.7991 36.582 45.7408 36.5869 45.6794C37.1483 39.1086 35.2164 32.9569 31.5419 27.0981C31.2992 26.7114 31.8267 26.3037 32.139 26.637V26.6386Z" fill="#AB204A"/>
<path d="M85.8312 21.0014C85.8442 26.8538 81.7004 34.0378 76.6053 36.9825C74.0456 38.4646 71.7108 38.5908 70.0281 37.6136L69.7255 37.4372C67.8907 42.8414 64.0253 48.0708 59.5596 50.6564C56.3252 52.5235 53.3982 52.6433 51.3239 51.3246L49.7916 50.4412C49.6153 50.3409 49.4518 50.226 49.2868 50.1062C48.1008 51.3618 46.8015 52.42 45.4456 53.2031C42.5818 54.8551 39.9913 54.9748 38.1371 53.8341L36.9446 53.1465C35.1227 52.0867 33.9869 49.8425 33.9804 46.6566C33.961 40.2428 38.5076 32.3712 44.0898 29.1497C45.0929 28.5689 46.0702 28.1725 46.9844 27.9702L48.2772 28.721L46.9844 27.9637C47.4455 22.3072 51.4177 15.7785 56.2232 13.0036C58.8023 11.515 61.142 11.3759 62.8377 12.3661L64.0172 13.0538C64.3133 13.2107 64.5916 13.4065 64.844 13.6346C65.386 13.1994 65.9475 12.8143 66.5154 12.4875C69.101 10.9989 71.4471 10.8662 73.1428 11.85L74.2657 12.5053C74.3223 12.5376 74.3789 12.5684 74.4356 12.5991C75.1604 13.0214 75.7656 13.646 76.2267 14.4598C78.4029 13.4566 80.364 13.4631 81.8331 14.3207L82.9997 15.0018C83.0369 15.0213 83.0822 15.0455 83.1259 15.0714C84.7908 16.0422 85.8248 18.0923 85.8312 20.9998V21.0014Z" fill="#324566"/>
<path d="M70.0295 37.6152L68.3225 36.6233C68.2206 36.5651 68.1219 36.502 68.0264 36.434L69.7334 37.4259C69.8305 37.4922 69.9292 37.5553 70.0295 37.6152Z" fill="#1C323D"/>
<path d="M81.8295 14.3239L83.1239 15.0763C81.4784 14.12 79.2164 14.2252 76.7231 15.6118L75.4286 14.8595C77.9236 13.4728 80.184 13.3677 81.8295 14.3239Z" fill="#162830"/>
<path d="M51.4968 51.4314L49.7898 50.4396C49.0746 50.0237 48.455 49.4445 47.9518 48.7148L49.6588 49.7066C50.1636 50.4379 50.7833 51.0156 51.4968 51.4314Z" fill="#1C323D"/>
<path d="M73.1425 11.8516L74.4369 12.604C72.7412 11.6186 70.3935 11.7529 67.8111 13.2431C67.1024 13.6524 66.4115 14.1427 65.7514 14.6993L64.457 13.9469C65.1171 13.3903 65.808 12.9001 66.5167 12.4907C69.099 11.0005 71.4452 10.8662 73.1425 11.8516Z" fill="#1C323D"/>
<path d="M64.1332 13.1169C62.4376 12.1331 60.0914 12.269 57.5139 13.756C52.7084 16.5293 48.7395 23.0612 48.2767 28.721L46.9823 27.9686C47.4451 22.312 51.4157 15.7801 56.2195 13.0036C58.7986 11.5166 61.1431 11.3807 62.8388 12.3677L64.1332 13.1185V13.1169Z" fill="#162830"/>
<path d="M38.2389 53.9005L36.9444 53.1481C35.1209 52.0883 33.9883 49.8409 33.9786 46.6534C33.9608 40.2396 38.5042 32.3696 44.0847 29.1465C45.0895 28.5656 46.0652 28.1725 46.9794 27.967L48.2738 28.7194C47.358 28.9248 46.3839 29.3196 45.3791 29.8989C39.7986 33.122 35.2536 40.992 35.273 47.4058C35.2827 50.5933 36.4154 52.8407 38.2389 53.9005Z" fill="#1C323D"/>
<path d="M57.5143 13.756C61.0659 11.706 64.1757 12.2237 65.75 14.6993C66.4102 14.1427 67.101 13.6524 67.8097 13.2431C71.9696 10.8403 75.5179 11.96 76.7217 15.6118C81.736 12.8256 85.8117 15.2138 85.8279 21.0063C85.8441 26.857 81.6971 34.041 76.6036 36.9809C73.8837 38.552 71.4325 38.6054 69.7303 37.4275C67.8971 42.8349 64.0268 48.0724 59.5562 50.6547C55.3268 53.0963 51.6167 52.5494 49.6573 49.7082C48.3758 51.1337 46.9487 52.3407 45.4456 53.208C39.865 56.4311 35.2909 53.8244 35.2731 47.409C35.2553 40.9952 39.7987 33.1252 45.3792 29.9021C46.384 29.3213 47.3597 28.9281 48.2738 28.7226C48.7366 23.0644 52.7072 16.5325 57.5127 13.7576L57.5143 13.756Z" fill="#324566"/>
<path d="M85.8311 21.0047C85.8441 26.857 81.7004 34.041 76.6052 36.9793C73.887 38.5504 71.4341 38.607 69.7319 37.4275C67.9036 42.8317 64.0317 48.074 59.5595 50.6531C55.3284 53.0931 51.6199 52.5446 49.6589 49.7066C48.379 51.1321 46.9471 52.3359 45.4456 53.2064C39.865 56.4294 35.2925 53.818 35.2731 47.4042C35.2602 42.1634 38.2875 35.9519 42.4441 32.0978C45.0928 32.2046 47.6914 32.1285 49.9614 30.894C52.7104 29.3989 54.7038 26.315 57.8185 25.9558C59.1242 25.7988 60.4866 26.171 61.7535 25.7924C64.4782 24.9785 65.5995 21.0807 68.4262 20.7782C69.7562 20.639 71.2075 21.3703 72.3677 20.7151C73.1686 20.2604 73.5148 19.3025 74.0633 18.5582C75.3998 16.7606 77.9417 16.306 80.1616 16.6037C82.1922 16.8755 83.9769 17.6441 85.5852 18.767C85.7421 19.4417 85.8311 20.1924 85.8311 21.0063V21.0047Z" fill="#26404F"/>
<path d="M59.983 31.7822L66.5538 35.5263C64.884 38.4193 62.5718 40.9467 60.0138 42.4239C57.4557 43.9012 55.1371 44.0468 53.456 43.0889L59.983 31.7839V31.7822Z" fill="#162830"/>
<path d="M66.5522 35.5263C64.8807 38.4193 62.5702 40.9467 60.0138 42.4239C57.4557 43.9012 55.1387 44.0452 53.456 43.0889L56.9315 37.0667C57.289 37.1071 57.6466 37.146 58.0042 37.1799C58.6174 37.2382 59.3455 37.2285 59.708 36.7317C60.038 36.2803 59.9329 35.5797 60.3503 35.2076C60.695 34.9002 61.2742 34.9471 61.5719 34.5944C61.7823 34.3452 61.7742 33.973 61.669 33.6656C61.5638 33.3566 61.3745 33.0831 61.2483 32.7838C61.2014 32.6722 61.1626 32.5573 61.1318 32.4408L66.5489 35.5279L66.5522 35.5263Z" fill="#162830"/>
<path d="M66.8369 19.4692C68.518 20.427 69.5616 22.49 69.5697 25.4299C69.5778 28.3682 68.5488 31.6269 66.879 34.5199L60.3082 30.7758L66.8353 19.4692H66.8369Z" fill="#162830"/>
<path d="M69.5699 25.4299C69.578 28.3682 68.5489 31.6269 66.8792 34.5183L60.31 30.7758L63.258 25.6694C63.3648 25.684 63.4716 25.6969 63.58 25.7066C64.0201 25.7487 64.4732 25.7551 64.8939 25.6241C65.3162 25.4914 65.7045 25.1986 65.8647 24.7876C65.9569 24.5497 65.9698 24.2811 66.0977 24.0611C66.4455 23.4657 67.3807 23.5547 67.871 23.0692C68.3904 22.5563 68.1881 21.6632 68.4244 20.982C69.1508 22.0806 69.5667 23.5838 69.5715 25.4332L69.5699 25.4299Z" fill="#162830"/>
<path d="M60.0624 18.9013C62.6205 17.424 64.9391 17.2784 66.6202 18.2379L60.0931 29.5429L60.0624 18.9013Z" fill="#162830"/>
<path d="M59.5283 20.3801L59.5591 31.0218L53.032 42.3268C51.3509 41.369 50.3073 39.3076 50.2976 36.3693C50.2814 30.4911 54.4138 23.333 59.5283 20.3801Z" fill="#162830"/>
<path d="M59.5591 31.0218L53.032 42.3268C51.3509 41.369 50.3073 39.306 50.2976 36.3693C50.2895 33.7951 51.0791 30.9732 52.3994 28.3682H53.3977C53.7423 28.3682 54.0999 28.3682 54.4154 28.2291C55.2681 27.8586 55.4364 26.7616 55.7956 25.9056C55.9169 25.616 56.0804 25.3296 56.3457 25.163C56.7373 24.9154 57.2696 24.9753 57.6514 24.7132C58.1239 24.3895 58.1805 23.7132 58.0948 23.1469C58.009 22.5806 57.8278 21.9949 57.9961 21.448C58.0009 21.4318 58.0058 21.4173 58.0106 21.4011C58.5041 21.0225 59.0106 20.6811 59.5267 20.3834L59.5558 31.0234L59.5591 31.0218Z" fill="#162830"/>
<path d="M61.2173 32.1269L67.788 35.871C66.1182 38.764 63.8061 41.2913 61.248 42.7685C58.6899 44.2458 56.3713 44.3914 54.6902 43.4336L61.2173 32.1285V32.1269Z" fill="#F65283"/>
<path d="M67.788 35.871C66.1166 38.764 63.806 41.2913 61.2496 42.7685C58.6915 44.2458 56.3745 44.3898 54.6918 43.4336L58.1673 37.4113C58.5248 37.4518 58.8824 37.4906 59.24 37.523C59.8532 37.5812 60.5813 37.5715 60.9438 37.0748C61.2738 36.6233 61.1687 35.9227 61.5861 35.5506C61.9308 35.2432 62.51 35.2901 62.8077 34.9374C63.0181 34.6882 63.01 34.3161 62.9048 34.0086C62.7996 33.6996 62.6119 33.4261 62.4841 33.1268C62.4372 33.0152 62.3984 32.9003 62.3676 32.7838L67.7847 35.871H67.788Z" fill="url(#paint1_linear_2111_3865)"/>
<path d="M68.073 19.8138C69.7541 20.7717 70.7977 22.8346 70.8058 25.7746C70.8139 28.7129 69.7848 31.9716 68.115 34.8646L61.5443 31.1205L68.0713 19.8138H68.073Z" fill="white"/>
<path d="M70.8057 25.7746C70.8138 28.7129 69.7848 31.9716 68.115 34.8629L61.5458 31.1205L64.4939 26.014C64.6006 26.0286 64.7074 26.0415 64.8158 26.0512C65.2559 26.0933 65.709 26.0998 66.1297 25.9687C66.552 25.8361 66.9403 25.5432 67.1005 25.1322C67.1927 24.8944 67.2056 24.6258 67.3335 24.4057C67.6813 23.8103 68.6166 23.8993 69.1068 23.4139C69.6262 22.901 69.4239 22.0062 69.6602 21.3267C70.3867 22.4253 70.8025 23.9268 70.8073 25.7778L70.8057 25.7746Z" fill="#DBE7FE"/>
<path d="M61.2982 19.2459C63.8563 17.7686 66.1749 17.623 67.8544 18.5825L61.3274 29.8876L61.2966 19.2459H61.2982Z" fill="#F65283"/>
<path d="M60.7646 20.7247L60.7953 31.3664L54.2683 42.6715C52.5872 41.7136 51.5435 39.6523 51.5338 36.7139C51.5177 30.8357 55.6501 23.6776 60.7646 20.7247Z" fill="white"/>
<path d="M60.7938 31.3664L54.2667 42.6715C52.5856 41.7136 51.542 39.6506 51.5323 36.7139C51.5242 34.1397 52.3138 31.3179 53.6341 28.7129H54.6324C54.977 28.7129 55.3346 28.7129 55.6501 28.5737C56.5028 28.2032 56.6711 27.1062 57.0303 26.2503C57.1516 25.9606 57.3151 25.6743 57.5804 25.5076C57.972 25.26 58.5043 25.3199 58.8862 25.0578C59.3586 24.7342 59.4152 24.0579 59.3295 23.4916C59.2437 22.9253 59.0625 22.3395 59.2308 21.7926C59.2356 21.7765 59.2405 21.7619 59.2454 21.7457C59.7388 21.3671 60.2453 21.0257 60.7614 20.728L60.7906 31.368L60.7938 31.3664Z" fill="#DBE7FE"/>
<defs>
<linearGradient id="paint0_linear_2111_3865" x1="9.79318" y1="74.7221" x2="81.5381" y2="3.3297" gradientUnits="userSpaceOnUse">
<stop stop-color="#EF7C9A"/>
<stop offset="1" stop-color="#EF295A"/>
</linearGradient>
<linearGradient id="paint1_linear_2111_3865" x1="53.7096" y1="44.039" x2="68.0933" y2="30.6497" gradientUnits="userSpaceOnUse">
<stop stop-color="#EF7C9A"/>
<stop offset="1" stop-color="#EF295A"/>
</linearGradient>
</defs>
</svg>
