<svg width="69" height="74" viewBox="0 0 69 74" fill="none" xmlns="http://www.w3.org/2000/svg">
<path d="M43.6304 2.59723L55.4368 9.69153L67.24 57.0315C67.7014 58.8823 66.5752 60.7567 64.7244 61.2181L25.5819 70.9775C23.7311 71.4389 21.8566 70.3127 21.3952 68.4618L8.07127 15.0226C7.60982 13.1718 8.73613 11.2974 10.5869 10.8359L43.6304 2.59723Z" fill="#E1EDFF"/>
<path d="M45.1537 8.69982L43.6329 2.60052L55.4392 9.69485L49.3402 11.2155C47.4894 11.677 45.6151 10.5506 45.1537 8.69982Z" fill="#B8D3F9"/>
<path d="M19.052 33.0796C11.6872 34.9159 7.20546 42.3751 9.04178 49.7401C10.8781 57.1052 18.3371 61.5871 25.7019 59.7509C33.0667 57.9146 37.5485 50.4555 35.7122 43.0904L22.377 46.4153L19.052 33.0796Z" fill="url(#paint0_linear_339_8724)"/>
<path d="M33.8455 43.5534C34.6563 50.3303 30.3158 56.8105 23.521 58.5047C20.4055 59.2814 17.2733 58.9274 14.5569 57.7029C17.695 59.8776 21.718 60.7418 25.7136 59.7455C33.0784 57.9093 37.5601 50.4501 35.7238 43.0851L33.8455 43.5534Z" fill="#DB295E"/>
<path d="M20.905 30.0153L24.2299 43.3509L37.565 40.0261C35.7287 32.661 28.2698 28.179 20.905 30.0153Z" fill="url(#paint1_linear_339_8724)"/>
<path d="M29.868 30.8095C32.5141 32.6432 34.5313 35.4085 35.3714 38.7778L23.8093 41.6605L24.2288 43.3434L37.5639 40.0186C36.5044 35.7691 33.5731 32.4796 29.868 30.8095Z" fill="#DB295E"/>
<path d="M62.0985 50.5927C63.2597 55.2501 60.4256 59.967 55.7683 61.1282C51.1111 62.2893 46.3942 59.4552 45.2329 54.7977C44.0717 50.1404 46.906 45.4236 51.5632 44.2624C56.2205 43.1012 60.9373 45.9353 62.0985 50.5927Z" fill="#FBACC3"/>
<path d="M49.099 54.091L53.2657 56.1698L57.3447 48.9837" stroke="#F42E69" stroke-width="2.59076" stroke-linecap="round" stroke-linejoin="round"/>
<path d="M39.6843 20.9696L52.8236 17.6936L52.0902 14.7518L38.9509 18.0278L39.6843 20.9696Z" fill="#B8D3F9"/>
<path d="M41.1605 26.8956L54.2998 23.6196L53.5664 20.6779L40.427 23.9539L41.1605 26.8956Z" fill="#B8D3F9"/>
<path d="M42.6229 32.8048L55.7622 29.5288L55.0287 26.5872L41.8894 29.8632L42.6229 32.8048Z" fill="#B8D3F9"/>
<path d="M44.1129 38.735L52.3494 36.6814L51.616 33.7396L43.3794 35.7932L44.1129 38.735Z" fill="#B8D3F9"/>
<defs>
<linearGradient id="paint0_linear_339_8724" x1="19.052" y1="33.0796" x2="25.7019" y2="59.7509" gradientUnits="userSpaceOnUse">
<stop offset="0.687595" stop-color="#F55585"/>
<stop offset="1" stop-color="#F42E69" stop-opacity="0.54"/>
</linearGradient>
<linearGradient id="paint1_linear_339_8724" x1="27.5725" y1="28.3529" x2="30.8975" y2="41.6885" gradientUnits="userSpaceOnUse">
<stop offset="0.687595" stop-color="#F55585"/>
<stop offset="1" stop-color="#F42E69" stop-opacity="0.54"/>
</linearGradient>
</defs>
</svg>
