<svg width="90" height="84" viewBox="0 0 90 84" fill="none" xmlns="http://www.w3.org/2000/svg">
<path d="M17.1569 16.5346C17.0598 16.5346 16.9812 16.456 16.9812 16.3589V12.0872C16.9812 11.9902 17.0598 11.9116 17.1569 11.9116C17.2539 11.9116 17.3325 11.9902 17.3325 12.0872V16.3589C17.3325 16.456 17.2539 16.5346 17.1569 16.5346Z" fill="#364F66"/>
<path d="M15.589 17.0952C15.492 17.0952 15.4133 17.0165 15.4133 16.9195V7.81555C15.4133 7.7185 15.492 7.63986 15.589 7.63986C15.6861 7.63986 15.7647 7.7185 15.7647 7.81555V16.9195C15.7647 17.0165 15.6861 17.0952 15.589 17.0952Z" fill="#364F66"/>
<path d="M13.9393 17.8163C13.8422 17.8163 13.7636 17.7377 13.7636 17.6406V10.2718C13.7636 10.1748 13.8422 10.0961 13.9393 10.0961C14.0363 10.0961 14.1149 10.1748 14.1149 10.2718V17.6406C14.1149 17.7377 14.0363 17.8163 13.9393 17.8163Z" fill="#364F66"/>
<path d="M12.1757 18.422C12.0786 18.422 12 18.3434 12 18.2463V14.2239C12 14.1269 12.0786 14.0482 12.1757 14.0482C12.2727 14.0482 12.3514 14.1269 12.3514 14.2239V18.2463C12.3514 18.3434 12.2727 18.422 12.1757 18.422Z" fill="#364F66"/>
<path d="M28.0461 6.69784C28.026 6.69784 28.0076 6.6945 27.9875 6.6878C27.8972 6.65434 27.8486 6.55562 27.8821 6.46359C27.9022 6.40838 28.3824 5.08989 29.3378 4.80879C29.7912 4.67661 30.2681 4.79541 30.7517 5.16686C30.7885 5.20534 31.9028 6.50542 32.8565 6.31133C33.3384 6.21429 33.7166 5.73575 33.9809 4.89245C34.0094 4.80043 34.1081 4.74521 34.2001 4.777C34.2922 4.80545 34.344 4.90417 34.3139 4.99619C34.0094 5.97167 33.5426 6.53052 32.9251 6.65434C31.7706 6.88524 30.5626 5.47808 30.5124 5.41784C30.1493 5.14511 29.7778 5.04304 29.4382 5.14511C28.6535 5.37601 28.2167 6.57068 28.2117 6.58239C28.1866 6.65434 28.118 6.69784 28.0461 6.69784Z" fill="#364F66"/>
<path d="M14.3408 78.6307C13.5059 78.6307 12.8266 77.9514 12.8266 77.1164C12.8266 76.2815 13.5059 75.6022 14.3408 75.6022C15.1757 75.6022 15.8551 76.2815 15.8551 77.1164C15.8551 77.9514 15.1757 78.6307 14.3408 78.6307ZM14.3408 75.9535C13.6983 75.9535 13.1763 76.4756 13.1763 77.1181C13.1763 77.7606 13.6983 78.2826 14.3408 78.2826C14.9833 78.2826 15.5054 77.7606 15.5054 77.1181C15.5054 76.4756 14.9833 75.9535 14.3408 75.9535Z" fill="#364F66"/>
<path d="M16.2181 53.981C15.3062 53.981 14.6905 53.7267 14.3893 53.223C13.7836 52.2107 14.7089 50.6028 14.7474 50.5359C14.8846 50.1025 14.8545 49.7193 14.647 49.4315C14.1668 48.769 12.8951 48.7556 12.8818 48.7556C12.7847 48.7556 12.7077 48.6769 12.7077 48.5799C12.7077 48.4828 12.7864 48.4059 12.8834 48.4059C12.9437 48.4059 14.3441 48.4193 14.9298 49.2257C15.2075 49.6089 15.2544 50.0975 15.0653 50.6781C15.0419 50.7266 14.1885 52.2107 14.6888 53.044C14.9415 53.4656 15.5104 53.6547 16.4022 53.6296C16.4055 53.6296 16.4072 53.6296 16.4089 53.6296C16.5026 53.6296 16.5795 53.7032 16.5846 53.7986C16.5879 53.8957 16.5126 53.976 16.4156 53.9793C16.3486 53.9827 16.2817 53.9827 16.2181 53.9827V53.981Z" fill="#364F66"/>
<path d="M46.0565 82.1829C46.0364 82.1829 46.018 82.1795 45.9979 82.1728C45.9076 82.1411 45.8591 82.0407 45.8925 81.9486C45.9126 81.8934 46.3928 80.5749 47.3482 80.2938C47.8033 80.16 48.2802 80.2805 48.7638 80.6502C48.8006 80.6887 49.9066 81.9871 50.867 81.7947C51.3489 81.6977 51.727 81.2191 51.9914 80.3758C52.0198 80.2838 52.1185 80.2303 52.2106 80.2604C52.3026 80.2888 52.3545 80.3875 52.3243 80.4796C52.0198 81.455 51.553 82.0139 50.9356 82.1377C49.7961 82.3703 48.5713 80.9614 48.5228 80.9012C48.1597 80.6285 47.79 80.5264 47.4469 80.6285C46.6605 80.8611 46.2255 82.054 46.2222 82.0658C46.1971 82.1377 46.1285 82.1812 46.0565 82.1812V82.1829Z" fill="#364F66"/>
<path d="M71.8672 16.1799C71.7701 16.1799 71.6915 16.1013 71.6915 16.0043V11.7326C71.6915 11.6355 71.7701 11.5569 71.8672 11.5569C71.9642 11.5569 72.0429 11.6355 72.0429 11.7326V16.0043C72.0429 16.1013 71.9642 16.1799 71.8672 16.1799Z" fill="#364F66"/>
<path d="M73.4367 16.7405C73.3396 16.7405 73.261 16.6618 73.261 16.5648V7.46086C73.261 7.36382 73.3396 7.28518 73.4367 7.28518C73.5337 7.28518 73.6124 7.36382 73.6124 7.46086V16.5648C73.6124 16.6618 73.5337 16.7405 73.4367 16.7405Z" fill="#364F66"/>
<path d="M75.0866 17.4616C74.9895 17.4616 74.9109 17.383 74.9109 17.2859V9.91713C74.9109 9.82008 74.9895 9.74144 75.0866 9.74144C75.1836 9.74144 75.2623 9.82008 75.2623 9.91713V17.2859C75.2623 17.383 75.1836 17.4616 75.0866 17.4616Z" fill="#364F66"/>
<path d="M76.8518 18.0656C76.7548 18.0656 76.6761 17.987 76.6761 17.89V13.8676C76.6761 13.7705 76.7548 13.6919 76.8518 13.6919C76.9488 13.6919 77.0275 13.7705 77.0275 13.8676V17.89C77.0275 17.987 76.9488 18.0656 76.8518 18.0656Z" fill="#364F66"/>
<path d="M71.68 41.1559C70.8451 41.1559 70.1657 40.4765 70.1657 39.6416C70.1657 38.8067 70.8451 38.1274 71.68 38.1274C72.5149 38.1274 73.1942 38.8067 73.1942 39.6416C73.1942 40.4765 72.5149 41.1559 71.68 41.1559ZM71.68 38.4771C71.0375 38.4771 70.5154 38.9991 70.5154 39.6416C70.5154 40.2841 71.0375 40.8062 71.68 40.8062C72.3225 40.8062 72.8445 40.2841 72.8445 39.6416C72.8445 38.9991 72.3225 38.4771 71.68 38.4771Z" fill="#364F66"/>
<path d="M24.8402 81.3881C24.8101 81.3881 24.7799 81.3798 24.7515 81.3647L22.6985 80.1717C21.5691 79.5158 20.9433 78.1538 20.9383 76.3401L20.8345 39.9428C20.8345 39.8457 20.9115 39.7671 21.0085 39.7671C21.1056 39.7671 21.1825 39.8457 21.1842 39.9411L21.288 76.3384C21.293 78.0233 21.8568 79.2765 22.8742 79.8672L24.8352 81.0066C28.7538 78.4282 37.5816 65.3655 36.3033 61.9823C36.0473 61.3029 35.3981 61.0553 34.3139 61.2327C34.2185 61.2494 34.1281 61.1841 34.1131 61.0888L29.1671 30.8221C29.1537 27.1043 31.7572 22.5933 34.9681 20.7394L53.2111 11.0147C53.2579 10.9896 53.3115 10.9863 53.3617 11.008C53.6645 11.1369 53.9423 11.1251 54.21 10.9695C55.828 10.0359 56.5023 4.56953 56.7549 2.51148C56.7901 2.217 56.8185 1.99781 56.8403 1.85224L54.8926 0.719478C53.8603 0.118797 52.4732 0.26102 50.9857 1.11937L46.1803 3.89355C46.0983 3.94207 45.9912 3.91363 45.9427 3.82997C45.8941 3.74631 45.9226 3.63922 46.0062 3.5907L50.8117 0.816524C52.4113 -0.107086 53.9239 -0.247635 55.0683 0.418301L57.1214 1.6113C57.1866 1.64811 57.2201 1.7234 57.205 1.79702C57.1833 1.90745 57.1481 2.18019 57.103 2.55499C56.6612 6.13899 55.9535 10.3689 54.3857 11.2741C54.0443 11.4698 53.6812 11.4999 53.3048 11.3627L35.1371 21.0473C32.0283 22.8426 29.5034 27.2164 29.5134 30.7954L34.4293 60.8646C35.5788 60.719 36.3234 61.0536 36.6296 61.8618C38.0836 65.7135 28.5246 79.1042 24.9305 81.363C24.9021 81.3814 24.8703 81.3898 24.8368 81.3898L24.8402 81.3881Z" fill="#364F66"/>
<path d="M21.0002 36.0325C20.9032 36.0325 20.8262 35.9539 20.8245 35.8585L20.7928 24.8505C20.7827 21.1594 23.3862 16.6501 26.5988 14.7962L43.893 4.81047C43.9767 4.76362 44.0821 4.79206 44.1306 4.87405C44.1792 4.95771 44.1507 5.06479 44.0671 5.11332L26.7728 15.099C23.659 16.896 21.1341 21.2715 21.1441 24.8488L21.1759 35.8568C21.1759 35.9539 21.099 36.0325 21.0019 36.0325H21.0002Z" fill="#364F66"/>
<path d="M58.5956 0.774695C57.5248 0.152262 56.0406 0.240942 54.4042 1.18463L29.532 15.5458C26.2776 17.4248 23.6507 21.9759 23.6607 25.7155L23.8113 78.5972C23.8163 80.4545 24.4722 81.7629 25.5297 82.377L27.6396 83.6034C32.3263 80.6553 44.9456 61.6761 37.3409 62.9059L32.261 31.821C32.251 28.0814 34.8779 23.5303 38.1323 21.6513L56.8638 11.6656C59.7552 12.8921 60.5215 2.9164 60.7055 2.00283L58.5973 0.776368L58.5956 0.774695Z" fill="#1C323D"/>
<path d="M56.5124 2.41109C59.7651 0.533752 62.4121 2.03964 62.4222 5.77926L62.5728 58.661C62.5828 62.4006 59.9542 66.9534 56.7015 68.8307L31.8309 83.1902C28.5765 85.0692 25.9312 83.5616 25.9212 79.822L25.7706 26.9403C25.7605 23.2007 28.3875 18.6496 31.6419 16.7706L56.5124 2.41109Z" fill="#DBE7FE"/>
<path d="M56.5174 4.02239C58.9921 2.59347 61.0116 3.74463 61.02 6.58741L61.1706 59.4691C61.1789 62.3152 59.1711 65.7905 56.6981 67.2194L31.8275 81.5789C29.3529 83.0078 27.3333 81.8566 27.3249 79.0105L27.1744 26.1288C27.166 23.286 29.1722 19.8091 31.6468 18.3818L56.5174 4.02239Z" fill="#324566"/>
<path d="M61.1657 59.4674C61.174 62.3152 59.1712 65.7922 56.6982 67.2194L46.5519 73.0823C45.829 71.5413 45.4191 69.6757 45.3589 67.5591C45.3421 67.0805 45.3505 66.5401 45.3756 65.9645C45.568 61.8183 47.0053 57.2019 49.4164 52.9771C51.9245 48.5615 55.2609 44.9641 58.8064 42.8374L59.0758 42.6718H59.0926C59.7719 42.2803 60.4428 41.949 61.1138 41.6796L61.1657 59.4674Z" fill="#324566"/>
<path d="M61.169 59.4708C61.1757 62.3152 59.1695 65.7905 56.6948 67.2211L31.8243 81.5789C29.3529 83.0095 27.3334 81.8583 27.3233 79.0122L27.1945 33.4424C29.7093 33.3989 32.0619 33.0642 33.797 31.3208C34.8946 30.2164 35.5639 28.6553 36.9108 27.8739C39.2968 26.4902 42.7102 28.15 44.9205 26.5069C47.4771 24.6062 46.1469 20.1237 48.3405 17.8146C50.5642 15.4755 55.4516 16.3907 56.5911 13.3689C57.4578 11.0649 55.1538 8.84792 54.6568 6.4385C54.5682 6.01016 54.5414 5.57847 54.5682 5.14678L56.5158 4.02239C58.9905 2.59514 61.01 3.74631 61.0167 6.58909L61.169 59.4708Z" fill="#26404F"/>
<path d="M29.8163 82.3268C29.3646 82.3268 28.948 82.2214 28.5782 82.0089C27.688 81.4969 27.1978 80.4327 27.1928 79.0122L27.0422 26.1305C27.0338 23.2442 29.0701 19.7187 31.5816 18.2697L56.4505 3.90861C57.6937 3.19248 58.8716 3.0787 59.7651 3.59405C60.6536 4.10605 61.1455 5.16854 61.1505 6.58741L61.2994 59.4691C61.3078 62.3554 59.2715 65.8842 56.7617 67.3332L31.8911 81.6926C31.1616 82.1143 30.4572 82.3251 29.8163 82.3251V82.3268ZM56.5174 4.02239L56.5826 4.13617L31.7121 18.4973C29.2742 19.9045 27.2965 23.3295 27.3049 26.1305L27.4555 79.0122C27.4588 80.3357 27.9039 81.3195 28.7087 81.7813C29.5185 82.2482 30.6028 82.1361 31.7606 81.4668L56.6312 67.1073C59.069 65.6985 61.0468 62.2734 61.0384 59.4708L60.8895 6.58909C60.8861 5.26725 60.4411 4.28508 59.6362 3.8216C58.8247 3.35478 57.7422 3.46688 56.5843 4.13617L56.5191 4.02239H56.5174Z" fill="white"/>
<path d="M54.1666 10.8039C55.2023 10.2066 56.0456 10.6868 56.0489 11.8764L56.064 16.9797C56.0673 18.1693 55.2291 19.615 54.195 20.2123L33.0674 32.4117C32.0317 33.009 31.1884 32.5338 31.1851 31.3442L31.17 26.2409C31.1667 25.0512 32.005 23.6006 33.039 23.0032L54.1666 10.8039Z" fill="#162830"/>
<path d="M55.2759 11.5568C56.3116 10.9595 57.1549 11.4397 57.1582 12.6294L57.1733 17.7326C57.1766 18.9223 56.3383 20.3679 55.3043 20.9653L34.1767 33.1646C33.141 33.762 32.2977 33.2868 32.2944 32.0971L32.2793 26.9938C32.2759 25.8042 33.1142 24.3535 34.1483 23.7562L55.2759 11.5568Z" fill="#F65283"/>
<path d="M57.1716 17.7326C57.1716 18.9223 56.3367 20.3696 55.3026 20.9686L34.175 33.1663C33.141 33.7653 32.2994 33.2918 32.291 32.1021L32.2759 26.9972C32.2759 26.7981 32.2977 26.599 32.3429 26.3915C33.6363 26.1556 34.9581 26.0585 36.2649 26.0953C37.2403 26.1171 38.2811 26.2058 39.1378 25.7339C39.7803 25.3792 40.2304 24.7584 40.6001 24.1226C40.7474 23.8633 40.8963 23.5905 41.1322 23.3981C41.922 22.7623 43.1568 23.4282 44.1022 23.0584C45.0626 22.6887 45.3504 21.4405 46.1636 20.8046C47.1608 20.0216 48.7202 20.3395 49.7241 19.5631C50.7582 18.7583 50.9355 16.9998 52.1921 16.6233C52.9752 16.3874 53.9356 16.8224 54.5848 16.3204C55.0065 15.9958 55.0951 15.3968 55.316 14.9099C55.6557 14.1637 56.3567 13.6768 57.1549 13.4542L57.1699 17.731L57.1716 17.7326Z" fill="url(#paint0_linear_2111_3746)"/>
<path d="M45.5227 20.6524C46.2121 20.2542 46.7776 20.5654 46.7793 21.3568C46.781 22.1482 46.2204 23.1204 45.5311 23.5186C44.8467 23.9135 44.2862 23.5889 44.2845 22.7974C44.2829 22.006 44.8384 21.0473 45.5227 20.6524Z" fill="url(#paint1_linear_2111_3746)"/>
<path d="M46.0481 20.7377C46.7375 20.3395 47.303 20.6507 47.3047 21.4421C47.3064 22.2336 46.7458 23.2057 46.0565 23.6039C45.3721 23.9988 44.8116 23.6742 44.8099 22.8828C44.8083 22.0913 45.3638 21.1326 46.0481 20.7377Z" fill="white"/>
<path d="M49.5284 18.3333C50.2178 17.9351 50.7833 18.2463 50.785 19.0377C50.7867 19.8292 50.2261 20.8013 49.5368 21.1995C48.8524 21.5944 48.2919 21.2698 48.2902 20.4784C48.2886 19.6869 48.8441 18.7282 49.5284 18.3333Z" fill="url(#paint2_linear_2111_3746)"/>
<path d="M50.0555 18.4187C50.7448 18.0204 51.3104 18.3316 51.312 19.1231C51.3137 19.9145 50.7532 20.8866 50.0638 21.2849C49.3795 21.6797 48.819 21.3551 48.8173 20.5637C48.8156 19.7723 49.3711 18.8135 50.0555 18.4187Z" fill="white"/>
<path d="M53.5359 16.0159C54.2253 15.6177 54.7908 15.9289 54.7925 16.7204C54.7942 17.5118 54.2336 18.4839 53.5443 18.8821C52.8599 19.277 52.2994 18.9524 52.2977 18.161C52.2961 17.3696 52.8516 16.4108 53.5359 16.0159Z" fill="url(#paint3_linear_2111_3746)"/>
<path d="M54.0613 16.1013C54.7507 15.7031 55.3162 16.0143 55.3179 16.8057C55.3196 17.5971 54.7591 18.5693 54.0697 18.9675C53.3854 19.3624 52.8248 19.0378 52.8232 18.2463C52.8215 17.4549 53.377 16.4962 54.0613 16.1013Z" fill="white"/>
<path d="M34.6134 28.7423C34.4477 28.7423 34.2854 28.657 34.1968 28.5031C34.0646 28.2738 34.1432 27.9794 34.3725 27.8472L41.4618 23.7528C41.6927 23.6207 41.9855 23.6993 42.1177 23.9285C42.2499 24.1577 42.1713 24.4522 41.942 24.5844L34.8527 28.6788C34.7774 28.7223 34.6954 28.7423 34.6134 28.7423Z" fill="url(#paint4_linear_2111_3746)"/>
<path d="M34.918 28.8812C34.7524 28.8812 34.5901 28.7959 34.5014 28.6419C34.3692 28.4127 34.4478 28.1182 34.6771 27.986L41.7664 23.8917C41.9973 23.7595 42.2902 23.8382 42.4223 24.0674C42.5545 24.2966 42.4759 24.5911 42.2467 24.7233L35.1573 28.8176C35.082 28.8611 35 28.8812 34.918 28.8812Z" fill="white"/>
<path d="M54.1665 24.6815C55.2023 24.0841 56.0456 24.5643 56.0489 25.754L56.064 30.8573C56.0673 32.0469 55.229 33.4926 54.195 34.0899L33.0674 46.2893C32.0317 46.8866 31.1884 46.4114 31.1851 45.2217L31.17 40.1185C31.1666 38.9288 32.0049 37.4781 33.039 36.8808L54.1665 24.6815Z" fill="#162830"/>
<path d="M55.2758 25.4344C56.3115 24.837 57.1548 25.3173 57.1582 26.5069L57.1732 31.6102C57.1766 32.7998 56.3383 34.2455 55.3043 34.8428L34.1767 47.0422C33.141 47.6395 32.2977 47.1643 32.2943 45.9747L32.2793 40.8714C32.2759 39.6817 33.1142 38.2311 34.1482 37.6337L55.2758 25.4344Z" fill="#F65283"/>
<path d="M57.1716 31.6085C57.1716 32.7982 56.3366 34.2455 55.3026 34.8445L34.175 47.0422C33.141 47.6412 32.2993 47.1677 32.291 45.978L32.2759 40.8731C32.2759 40.674 32.2977 40.4748 32.3428 40.2674C33.6362 40.0314 34.9581 39.9344 36.2648 39.9712C37.2403 39.993 38.281 40.0816 39.1377 39.6098C39.7802 39.2551 40.2303 38.6343 40.6001 37.9985C40.7474 37.7392 40.8963 37.4664 41.1322 37.274C41.9219 36.6382 43.1568 37.3041 44.1021 36.9343C45.0626 36.5646 45.3503 35.3163 46.1635 34.6805C47.1608 33.8975 48.7202 34.2154 49.7241 33.439C50.7582 32.6342 50.9355 30.8757 52.1921 30.4992C52.9752 30.2633 53.9356 30.6983 54.5848 30.1963C55.0064 29.8717 55.0951 29.2727 55.316 28.7858C55.6556 28.0396 56.3567 27.5527 57.1548 27.3301L57.1699 31.6068L57.1716 31.6085Z" fill="url(#paint5_linear_2111_3746)"/>
<path d="M45.5227 34.5299C46.212 34.1317 46.7776 34.4429 46.7793 35.2344C46.7809 36.0258 46.2204 36.9979 45.531 37.3961C44.8467 37.791 44.2862 37.4664 44.2845 36.675C44.2828 35.8836 44.8383 34.9248 45.5227 34.5299Z" fill="url(#paint6_linear_2111_3746)"/>
<path d="M46.0481 34.6153C46.7374 34.217 47.303 34.5283 47.3047 35.3197C47.3063 36.1111 46.7458 37.0833 46.0564 37.4815C45.3721 37.8764 44.8116 37.5517 44.8099 36.7603C44.8082 35.9689 45.3637 35.0101 46.0481 34.6153Z" fill="white"/>
<path d="M49.5284 32.2109C50.2178 31.8126 50.7833 32.1239 50.785 32.9153C50.7866 33.7067 50.2261 34.6788 49.5368 35.0771C48.8524 35.4719 48.2919 35.1473 48.2902 34.3559C48.2885 33.5645 48.844 32.6057 49.5284 32.2109Z" fill="url(#paint7_linear_2111_3746)"/>
<path d="M50.0554 32.2962C50.7448 31.898 51.3103 32.2092 51.312 33.0006C51.3137 33.792 50.7532 34.7642 50.0638 35.1624C49.3795 35.5573 48.8189 35.2327 48.8173 34.4413C48.8156 33.6498 49.3711 32.6911 50.0554 32.2962Z" fill="white"/>
<path d="M53.5359 29.8935C54.2252 29.4953 54.7908 29.8065 54.7925 30.598C54.7941 31.3894 54.2336 32.3615 53.5442 32.7597C52.8599 33.1546 52.2994 32.83 52.2977 32.0386C52.296 31.2472 52.8515 30.2884 53.5359 29.8935Z" fill="url(#paint8_linear_2111_3746)"/>
<path d="M54.0613 29.9789C54.7507 29.5806 55.3162 29.8919 55.3179 30.6833C55.3196 31.4747 54.759 32.4468 54.0697 32.8451C53.3853 33.2399 52.8248 32.9153 52.8231 32.1239C52.8215 31.3325 53.377 30.3737 54.0613 29.9789Z" fill="white"/>
<path d="M34.6134 42.6182C34.4477 42.6182 34.2854 42.5329 34.1967 42.3789C34.0646 42.1497 34.1432 41.8552 34.3724 41.723L41.4618 37.6287C41.6927 37.4965 41.9855 37.5752 42.1177 37.8044C42.2499 38.0336 42.1712 38.3281 41.942 38.4603L34.8526 42.5546C34.7773 42.5981 34.6953 42.6182 34.6134 42.6182Z" fill="url(#paint9_linear_2111_3746)"/>
<path d="M34.918 42.7571C34.7523 42.7571 34.59 42.6718 34.5013 42.5178C34.3692 42.2886 34.4478 41.9941 34.677 41.8619L41.7664 37.7676C41.9973 37.6354 42.2901 37.714 42.4223 37.9433C42.5545 38.1725 42.4759 38.467 42.2466 38.5992L35.1572 42.6935C35.0819 42.737 35 42.7571 34.918 42.7571Z" fill="white"/>
<path d="M54.1665 38.559C55.2023 37.9617 56.0456 38.4419 56.0489 39.6316L56.064 44.7349C56.0673 45.9245 55.229 47.3702 54.195 47.9675L33.0674 60.1668C32.0317 60.7642 31.1884 60.289 31.1851 59.0993L31.17 53.9961C31.1666 52.8064 32.0049 51.3557 33.039 50.7584L54.1665 38.559Z" fill="#162830"/>
<path d="M55.2758 39.312C56.3115 38.7146 57.1548 39.1949 57.1582 40.3845L57.1732 45.4878C57.1766 46.6774 56.3383 48.1231 55.3043 48.7204L34.1767 60.9198C33.141 61.5171 32.2977 61.0419 32.2943 59.8523L32.2793 54.749C32.2759 53.5593 33.1142 52.1087 34.1482 51.5113L55.2758 39.312Z" fill="#F65283"/>
<path d="M57.1716 45.4861C57.1716 46.6758 56.3366 48.1231 55.3026 48.7221L34.175 60.9198C33.141 61.5188 32.2993 61.0453 32.291 59.8556L32.2759 54.7507C32.2759 54.5515 32.2977 54.3524 32.3428 54.145C33.6362 53.909 34.9581 53.812 36.2648 53.8488C37.2403 53.8706 38.281 53.9592 39.1377 53.4874C39.7802 53.1327 40.2303 52.5119 40.6001 51.8761C40.7474 51.6167 40.8963 51.344 41.1322 51.1516C41.9219 50.5158 43.1568 51.1817 44.1021 50.8119C45.0626 50.4422 45.3503 49.1939 46.1635 48.5581C47.1608 47.7751 48.7202 48.093 49.7241 47.3166C50.7582 46.5118 50.9355 44.7533 52.1921 44.3768C52.9752 44.1409 53.9356 44.5759 54.5848 44.0739C55.0064 43.7493 55.0951 43.1503 55.316 42.6634C55.6556 41.9172 56.3567 41.4303 57.1548 41.2077L57.1699 45.4844L57.1716 45.4861Z" fill="url(#paint10_linear_2111_3746)"/>
<path d="M45.5227 48.4059C46.212 48.0076 46.7776 48.3189 46.7793 49.1103C46.7809 49.9017 46.2204 50.8738 45.531 51.2721C44.8467 51.6669 44.2862 51.3423 44.2845 50.5509C44.2828 49.7595 44.8383 48.8007 45.5227 48.4059Z" fill="url(#paint11_linear_2111_3746)"/>
<path d="M46.0481 48.4912C46.7374 48.093 47.303 48.4042 47.3047 49.1956C47.3063 49.987 46.7458 50.9592 46.0564 51.3574C45.3721 51.7523 44.8116 51.4277 44.8099 50.6362C44.8082 49.8448 45.3637 48.8861 46.0481 48.4912Z" fill="white"/>
<path d="M49.5284 46.0885C50.2178 45.6902 50.7833 46.0015 50.785 46.7929C50.7866 47.5843 50.2261 48.5564 49.5368 48.9547C48.8524 49.3495 48.2919 49.0249 48.2902 48.2335C48.2885 47.4421 48.844 46.4833 49.5284 46.0885Z" fill="url(#paint12_linear_2111_3746)"/>
<path d="M50.0554 46.1738C50.7448 45.7756 51.3103 46.0868 51.312 46.8782C51.3137 47.6696 50.7532 48.6418 50.0638 49.04C49.3795 49.4349 48.8189 49.1103 48.8173 48.3188C48.8156 47.5274 49.3711 46.5687 50.0554 46.1738Z" fill="white"/>
<path d="M53.5359 43.7694C54.2252 43.3712 54.7908 43.6824 54.7925 44.4738C54.7941 45.2652 54.2336 46.2374 53.5442 46.6356C52.8599 47.0305 52.2994 46.7059 52.2977 45.9144C52.296 45.123 52.8515 44.1643 53.5359 43.7694Z" fill="url(#paint13_linear_2111_3746)"/>
<path d="M54.0613 43.8547C54.7507 43.4565 55.3162 43.7677 55.3179 44.5591C55.3196 45.3506 54.759 46.3227 54.0697 46.7209C53.3853 47.1158 52.8248 46.7912 52.8231 45.9998C52.8215 45.2083 53.377 44.2496 54.0613 43.8547Z" fill="white"/>
<path d="M34.6134 56.4958C34.4477 56.4958 34.2854 56.4105 34.1967 56.2565C34.0646 56.0273 34.1432 55.7328 34.3724 55.6006L41.4618 51.5063C41.6927 51.3741 41.9855 51.4528 42.1177 51.682C42.2499 51.9112 42.1712 52.2057 41.942 52.3379L34.8526 56.4322C34.7773 56.4757 34.6953 56.4958 34.6134 56.4958Z" fill="url(#paint14_linear_2111_3746)"/>
<path d="M34.918 56.6347C34.7523 56.6347 34.59 56.5494 34.5013 56.3954C34.3692 56.1662 34.4478 55.8717 34.677 55.7395L41.7664 51.6452C41.9973 51.513 42.2901 51.5916 42.4223 51.8209C42.5545 52.0501 42.4759 52.3446 42.2466 52.4768L35.1572 56.5711C35.0819 56.6146 35 56.6347 34.918 56.6347Z" fill="white"/>
<path d="M54.1665 52.435C55.2023 51.8376 56.0456 52.3178 56.0489 53.5075L56.064 58.6108C56.0673 59.8004 55.229 61.2461 54.195 61.8434L33.0674 74.0427C32.0317 74.6401 31.1884 74.1649 31.1851 72.9752L31.17 67.872C31.1666 66.6823 32.0049 65.2316 33.039 64.6343L54.1665 52.435Z" fill="#162830"/>
<path d="M55.2758 53.1879C56.3115 52.5906 57.1548 53.0708 57.1582 54.2604L57.1732 59.3637C57.1766 60.5534 56.3383 61.999 55.3043 62.5963L34.1767 74.7957C33.141 75.393 32.2977 74.9178 32.2943 73.7282L32.2793 68.6249C32.2759 67.4353 33.1142 65.9846 34.1482 65.3873L55.2758 53.1879Z" fill="#F65283"/>
<path d="M57.1716 59.3637C57.1716 60.5534 56.3366 62.0007 55.3026 62.5997L34.175 74.7974C33.141 75.3964 32.2993 74.9229 32.291 73.7332L32.2759 68.6283C32.2759 68.4291 32.2977 68.23 32.3428 68.0226C33.6362 67.7866 34.9581 67.6896 36.2648 67.7264C37.2403 67.7481 38.281 67.8368 39.1377 67.365C39.7802 67.0103 40.2303 66.3895 40.6001 65.7537C40.7474 65.4943 40.8963 65.2216 41.1322 65.0292C41.9219 64.3934 43.1568 65.0593 44.1021 64.6895C45.0626 64.3197 45.3503 63.0715 46.1635 62.4357C47.1608 61.6527 48.7202 61.9706 49.7241 61.1942C50.7582 60.3894 50.9355 58.6308 52.1921 58.2544C52.9752 58.0185 53.9356 58.4535 54.5848 57.9515C55.0064 57.6269 55.0951 57.0279 55.316 56.541C55.6556 55.7948 56.3567 55.3079 57.1548 55.0853L57.1699 59.362L57.1716 59.3637Z" fill="url(#paint15_linear_2111_3746)"/>
<path d="M45.5227 62.2835C46.212 61.8852 46.7776 62.1965 46.7793 62.9879C46.7809 63.7793 46.2204 64.7514 45.531 65.1497C44.8467 65.5445 44.2862 65.2199 44.2845 64.4285C44.2828 63.6371 44.8383 62.6783 45.5227 62.2835Z" fill="url(#paint16_linear_2111_3746)"/>
<path d="M46.0481 62.3688C46.7374 61.9706 47.303 62.2818 47.3047 63.0732C47.3063 63.8646 46.7458 64.8368 46.0564 65.235C45.3721 65.6299 44.8116 65.3053 44.8099 64.5138C44.8082 63.7224 45.3637 62.7637 46.0481 62.3688Z" fill="white"/>
<path d="M49.5284 59.9644C50.2178 59.5662 50.7833 59.8774 50.785 60.6688C50.7866 61.4602 50.2261 62.4324 49.5368 62.8306C48.8524 63.2255 48.2919 62.9009 48.2902 62.1094C48.2885 61.318 48.844 60.3593 49.5284 59.9644Z" fill="url(#paint17_linear_2111_3746)"/>
<path d="M50.0554 60.0497C50.7448 59.6515 51.3103 59.9627 51.312 60.7541C51.3137 61.5456 50.7532 62.5177 50.0638 62.9159C49.3795 63.3108 48.8189 62.9862 48.8173 62.1948C48.8156 61.4033 49.3711 60.4446 50.0554 60.0497Z" fill="white"/>
<path d="M53.5359 57.647C54.2252 57.2488 54.7908 57.56 54.7925 58.3514C54.7941 59.1429 54.2336 60.115 53.5442 60.5132C52.8599 60.9081 52.2994 60.5835 52.2977 59.7921C52.296 59.0006 52.8515 58.0419 53.5359 57.647Z" fill="url(#paint18_linear_2111_3746)"/>
<path d="M54.0613 57.7323C54.7507 57.3341 55.3162 57.6453 55.3179 58.4368C55.3196 59.2282 54.759 60.2003 54.0697 60.5985C53.3853 60.9934 52.8248 60.6688 52.8231 59.8774C52.8215 59.086 53.377 58.1272 54.0613 57.7323Z" fill="white"/>
<path d="M34.6134 70.3734C34.4477 70.3734 34.2854 70.2881 34.1967 70.1341C34.0646 69.9049 34.1432 69.6104 34.3724 69.4782L41.4618 65.3839C41.6927 65.2517 41.9855 65.3304 42.1177 65.5596C42.2499 65.7888 42.1712 66.0833 41.942 66.2155L34.8526 70.3098C34.7773 70.3533 34.6953 70.3734 34.6134 70.3734Z" fill="url(#paint19_linear_2111_3746)"/>
<path d="M34.918 70.5123C34.7523 70.5123 34.59 70.4269 34.5013 70.273C34.3692 70.0438 34.4478 69.7493 34.677 69.6171L41.7664 65.5228C41.9973 65.3906 42.2901 65.4692 42.4223 65.6985C42.5545 65.9277 42.4759 66.2222 42.2466 66.3544L35.1572 70.4487C35.0819 70.4922 35 70.5123 34.918 70.5123Z" fill="white"/>
<path d="M72.846 51.5933C71.0741 50.5643 68.6195 50.7082 65.9089 52.2743C60.5245 55.3814 56.1742 62.9142 56.1926 69.0984C56.201 72.1721 57.2869 74.3338 59.0354 75.3495L60.1665 76.007C58.4163 74.9897 67.9185 67.989 67.9101 64.917C67.8934 58.7329 62.4153 64.5539 67.7997 61.4468C70.5102 59.8823 72.2052 51.2218 73.9788 52.2509L72.8477 51.5933H72.846Z" fill="url(#paint20_linear_2111_3746)"/>
<path d="M67.04 52.9302C72.4261 49.8214 76.8032 52.3161 76.8199 58.5003C76.8366 64.6878 72.488 72.2189 67.1036 75.3277C61.7209 78.4349 57.3404 75.9418 57.3237 69.7559C57.307 63.5718 61.6573 56.039 67.04 52.9319V52.9302Z" fill="#F65283"/>
<path d="M76.8201 58.502C76.8385 64.6878 72.4882 72.2189 67.1022 75.3278C61.7194 78.4349 57.3407 75.9418 57.3223 69.756C57.3139 66.515 58.5035 62.9025 60.4127 59.7536C61.778 59.6766 63.1668 59.9008 64.5438 59.9159C66.2722 59.9343 68.1864 59.4992 69.1702 58.0753C69.4246 57.7056 69.6688 57.2371 70.1156 57.1685C70.3816 57.13 70.641 57.2538 70.902 57.3257C72.1904 57.6738 73.472 56.6899 74.2317 55.5923C74.4793 55.2326 74.7286 54.8276 75.1352 54.667C75.3862 54.5733 75.6606 54.5783 75.9266 54.59C75.9651 54.5934 76.0036 54.5934 76.0454 54.5967C76.5424 55.6475 76.8168 56.9593 76.8201 58.502Z" fill="url(#paint21_linear_2111_3746)"/>
<path d="M69.8476 56.0223C69.9179 55.9821 69.9882 55.9754 70.0384 56.0156L72.8259 58.2443C72.9598 58.3514 72.846 58.6994 72.6369 58.8199L71.3251 59.5778C71.2498 59.6213 71.1862 59.7217 71.1728 59.8138L70.1271 67.8652C70.1053 68.0376 69.9949 68.1798 69.8844 68.2434C69.774 68.307 69.6636 68.2919 69.6402 68.1463L68.5509 61.328C68.5392 61.2494 68.4739 61.2243 68.397 61.2678L67.0852 62.0257C66.876 62.1462 66.7606 61.932 66.8944 61.6693L69.6586 56.2348C69.7071 56.1377 69.779 56.0641 69.8493 56.0223H69.8476Z" fill="url(#paint22_linear_2111_3746)"/>
<path d="M64.0165 59.3888C64.1269 59.3252 64.2374 59.3402 64.2608 59.4858L65.3501 66.3041C65.3618 66.3828 65.427 66.4079 65.504 66.3644L66.8158 65.6081C67.0249 65.4876 67.1404 65.7018 67.0082 65.9645L64.2424 71.399C64.1939 71.4961 64.1236 71.5714 64.0533 71.6115C63.983 71.6517 63.9128 71.6584 63.8626 71.6182L61.0767 69.3878C60.9428 69.2808 61.0566 68.9327 61.2658 68.8123L62.5776 68.0543C62.6528 68.0108 62.7181 67.9104 62.7298 67.8167L63.7756 59.7652C63.7973 59.5929 63.9078 59.4507 64.0182 59.3871L64.0165 59.3888Z" fill="url(#paint23_linear_2111_3746)"/>
<path d="M70.3295 56.0909C70.3997 56.0507 70.47 56.044 70.5202 56.0842L73.3078 58.3129C73.4416 58.42 73.3278 58.768 73.1187 58.8885L71.8069 59.6464C71.7316 59.6899 71.668 59.7903 71.6546 59.8824L70.6089 67.9338C70.5871 68.1062 70.4767 68.2484 70.3663 68.312C70.2558 68.3756 70.1454 68.3605 70.122 68.2149L69.0327 61.3966C69.021 61.318 68.9558 61.2929 68.8788 61.3364L67.567 62.0943C67.3578 62.2148 67.2424 62.0006 67.3762 61.738L70.1404 56.3034C70.1889 56.2063 70.2609 56.1327 70.3311 56.0909H70.3295Z" fill="white"/>
<path d="M64.4983 59.4574C64.6088 59.3938 64.7192 59.4088 64.7426 59.5544L65.8319 66.3727C65.8436 66.4514 65.9089 66.4765 65.9858 66.433L67.2976 65.6767C67.5068 65.5562 67.6222 65.7704 67.49 66.0331L64.7242 71.4677C64.6757 71.5647 64.6054 71.64 64.5352 71.6801C64.4649 71.7203 64.3946 71.727 64.3444 71.6868L61.5585 69.4565C61.4247 69.3494 61.5384 69.0013 61.7476 68.8809L63.0594 68.1229C63.1347 68.0794 63.1999 67.979 63.2116 67.8853L64.2574 59.8338C64.2792 59.6615 64.3896 59.5193 64.5 59.4557L64.4983 59.4574Z" fill="white"/>
<defs>
<linearGradient id="paint0_linear_2111_3746" x1="30.4088" y1="33.4256" x2="55.9969" y2="7.90762" gradientUnits="userSpaceOnUse">
<stop stop-color="#EF7C9A"/>
<stop offset="1" stop-color="#EF295A"/>
</linearGradient>
<linearGradient id="paint1_linear_2111_3746" x1="44.0974" y1="23.6868" x2="47.7842" y2="21.3927" gradientUnits="userSpaceOnUse">
<stop stop-color="#EF7C9A"/>
<stop offset="1" stop-color="#EF295A"/>
</linearGradient>
<linearGradient id="paint2_linear_2111_3746" x1="48.1031" y1="21.3677" x2="51.7899" y2="19.0736" gradientUnits="userSpaceOnUse">
<stop stop-color="#EF7C9A"/>
<stop offset="1" stop-color="#EF295A"/>
</linearGradient>
<linearGradient id="paint3_linear_2111_3746" x1="52.1106" y1="19.0503" x2="55.7974" y2="16.7563" gradientUnits="userSpaceOnUse">
<stop stop-color="#EF7C9A"/>
<stop offset="1" stop-color="#EF295A"/>
</linearGradient>
<linearGradient id="paint4_linear_2111_3746" x1="33.5289" y1="28.7423" x2="39.8183" y2="20.7283" gradientUnits="userSpaceOnUse">
<stop stop-color="#EF7C9A"/>
<stop offset="1" stop-color="#EF295A"/>
</linearGradient>
<linearGradient id="paint5_linear_2111_3746" x1="30.4087" y1="47.3014" x2="55.9969" y2="21.7835" gradientUnits="userSpaceOnUse">
<stop stop-color="#EF7C9A"/>
<stop offset="1" stop-color="#EF295A"/>
</linearGradient>
<linearGradient id="paint6_linear_2111_3746" x1="44.0974" y1="37.5643" x2="47.7842" y2="35.2703" gradientUnits="userSpaceOnUse">
<stop stop-color="#EF7C9A"/>
<stop offset="1" stop-color="#EF295A"/>
</linearGradient>
<linearGradient id="paint7_linear_2111_3746" x1="48.1031" y1="35.2452" x2="51.7899" y2="32.9512" gradientUnits="userSpaceOnUse">
<stop stop-color="#EF7C9A"/>
<stop offset="1" stop-color="#EF295A"/>
</linearGradient>
<linearGradient id="paint8_linear_2111_3746" x1="52.1106" y1="32.9279" x2="55.7974" y2="30.6339" gradientUnits="userSpaceOnUse">
<stop stop-color="#EF7C9A"/>
<stop offset="1" stop-color="#EF295A"/>
</linearGradient>
<linearGradient id="paint9_linear_2111_3746" x1="33.5289" y1="42.6182" x2="39.8183" y2="34.6042" gradientUnits="userSpaceOnUse">
<stop stop-color="#EF7C9A"/>
<stop offset="1" stop-color="#EF295A"/>
</linearGradient>
<linearGradient id="paint10_linear_2111_3746" x1="30.4087" y1="61.179" x2="55.9969" y2="35.6611" gradientUnits="userSpaceOnUse">
<stop stop-color="#EF7C9A"/>
<stop offset="1" stop-color="#EF295A"/>
</linearGradient>
<linearGradient id="paint11_linear_2111_3746" x1="44.0974" y1="51.4402" x2="47.7842" y2="49.1462" gradientUnits="userSpaceOnUse">
<stop stop-color="#EF7C9A"/>
<stop offset="1" stop-color="#EF295A"/>
</linearGradient>
<linearGradient id="paint12_linear_2111_3746" x1="48.1031" y1="49.1229" x2="51.7899" y2="46.8288" gradientUnits="userSpaceOnUse">
<stop stop-color="#EF7C9A"/>
<stop offset="1" stop-color="#EF295A"/>
</linearGradient>
<linearGradient id="paint13_linear_2111_3746" x1="52.1106" y1="46.8038" x2="55.7974" y2="44.5097" gradientUnits="userSpaceOnUse">
<stop stop-color="#EF7C9A"/>
<stop offset="1" stop-color="#EF295A"/>
</linearGradient>
<linearGradient id="paint14_linear_2111_3746" x1="33.5289" y1="56.4958" x2="39.8183" y2="48.4818" gradientUnits="userSpaceOnUse">
<stop stop-color="#EF7C9A"/>
<stop offset="1" stop-color="#EF295A"/>
</linearGradient>
<linearGradient id="paint15_linear_2111_3746" x1="30.4087" y1="75.0566" x2="55.9969" y2="49.5387" gradientUnits="userSpaceOnUse">
<stop stop-color="#EF7C9A"/>
<stop offset="1" stop-color="#EF295A"/>
</linearGradient>
<linearGradient id="paint16_linear_2111_3746" x1="44.0974" y1="65.3178" x2="47.7842" y2="63.0238" gradientUnits="userSpaceOnUse">
<stop stop-color="#EF7C9A"/>
<stop offset="1" stop-color="#EF295A"/>
</linearGradient>
<linearGradient id="paint17_linear_2111_3746" x1="48.1031" y1="62.9988" x2="51.7899" y2="60.7047" gradientUnits="userSpaceOnUse">
<stop stop-color="#EF7C9A"/>
<stop offset="1" stop-color="#EF295A"/>
</linearGradient>
<linearGradient id="paint18_linear_2111_3746" x1="52.1106" y1="60.6814" x2="55.7974" y2="58.3873" gradientUnits="userSpaceOnUse">
<stop stop-color="#EF7C9A"/>
<stop offset="1" stop-color="#EF295A"/>
</linearGradient>
<linearGradient id="paint19_linear_2111_3746" x1="33.5289" y1="70.3734" x2="39.8183" y2="62.3594" gradientUnits="userSpaceOnUse">
<stop stop-color="#EF7C9A"/>
<stop offset="1" stop-color="#EF295A"/>
</linearGradient>
<linearGradient id="paint20_linear_2111_3746" x1="54.7894" y1="80.8819" x2="74.6018" y2="61.2894" gradientUnits="userSpaceOnUse">
<stop stop-color="#F9D5E0"/>
<stop offset="1" stop-color="#EF295A"/>
</linearGradient>
<linearGradient id="paint21_linear_2111_3746" x1="55.8599" y1="76.6646" x2="82.5243" y2="57.8283" gradientUnits="userSpaceOnUse">
<stop stop-color="#EF7C9A"/>
<stop offset="1" stop-color="#EF295A"/>
</linearGradient>
<linearGradient id="paint22_linear_2111_3746" x1="66.3836" y1="68.279" x2="77.1165" y2="64.0548" gradientUnits="userSpaceOnUse">
<stop stop-color="#EF7C9A"/>
<stop offset="1" stop-color="#EF295A"/>
</linearGradient>
<linearGradient id="paint23_linear_2111_3746" x1="60.5655" y1="71.6452" x2="71.2975" y2="67.4227" gradientUnits="userSpaceOnUse">
<stop stop-color="#EF7C9A"/>
<stop offset="1" stop-color="#EF295A"/>
</linearGradient>
</defs>
</svg>
