<svg width="90" height="84" viewBox="0 0 90 84" fill="none" xmlns="http://www.w3.org/2000/svg">
<g clip-path="url(#clip0_2111_3695)">
<path d="M34.8661 7.18103C33.9839 7.18103 33.2662 6.46328 33.2662 5.58111C33.2662 4.69895 33.9839 3.9812 34.8661 3.9812C35.7483 3.9812 36.466 4.69895 36.466 5.58111C36.466 6.46328 35.7483 7.18103 34.8661 7.18103ZM34.8661 4.35068C34.1872 4.35068 33.6357 4.90225 33.6357 5.58111C33.6357 6.25997 34.1872 6.81155 34.8661 6.81155C35.545 6.81155 36.0965 6.25997 36.0965 5.58111C36.0965 4.90225 35.545 4.35068 34.8661 4.35068Z" fill="#364F66"/>
<path d="M40.7867 82.835C40.7779 82.835 40.7691 82.835 40.7602 82.8332C40.6594 82.819 40.5887 82.7253 40.6029 82.6246C40.6135 82.5539 40.8645 80.8832 41.8421 80.4819C42.3142 80.2875 42.8551 80.4201 43.4544 80.8726C43.4792 80.8956 44.8245 82.1031 45.7969 81.7707C46.2883 81.6028 46.6189 81.0494 46.7798 80.1301C46.7975 80.0294 46.8876 79.9622 46.9937 79.9799C47.0945 79.9975 47.1616 80.093 47.144 80.1938C46.9583 81.258 46.5447 81.9068 45.9153 82.1225C44.7432 82.5291 43.2794 81.2138 43.2175 81.159C42.7438 80.8019 42.3283 80.687 41.9836 80.8267C41.2004 81.1484 40.9724 82.6652 40.9706 82.6812C40.9564 82.7731 40.8769 82.8403 40.7867 82.8403V82.835Z" fill="#364F66"/>
<path d="M79.9679 63.3354C79.9449 63.3354 79.9202 63.3301 79.8972 63.3213C79.8035 63.2824 79.7575 63.1745 79.7964 63.0808L80.8518 60.5033C80.2773 60.277 78.4864 59.5699 78.1452 59.3931C78.0533 59.3453 78.0179 59.234 78.0657 59.1438C78.1134 59.0536 78.2248 59.0183 78.3149 59.0643C78.6968 59.2623 81.1365 60.2187 81.1612 60.2275C81.2072 60.2452 81.2443 60.2805 81.2637 60.3265C81.2832 60.3725 81.2832 60.4237 81.2655 60.4697L80.1394 63.2223C80.1093 63.2948 80.0404 63.3372 79.9679 63.3372V63.3354Z" fill="#364F66"/>
<path d="M11.2088 34.4627C11.1063 34.4627 11.0232 34.3796 11.0232 34.2771V29.6541C11.0232 29.5516 11.1063 29.4685 11.2088 29.4685C11.3114 29.4685 11.3944 29.5516 11.3944 29.6541V34.2771C11.3944 34.3796 11.3114 34.4627 11.2088 34.4627Z" fill="#364F66"/>
<path d="M9.55233 35.0708C9.44979 35.0708 9.3667 34.9877 9.3667 34.8852V25.0347C9.3667 24.9321 9.44979 24.8491 9.55233 24.8491C9.65486 24.8491 9.73795 24.9321 9.73795 25.0347V34.8852C9.73795 34.9877 9.65486 35.0708 9.55233 35.0708Z" fill="#364F66"/>
<path d="M7.80751 35.8505C7.70498 35.8505 7.62189 35.7674 7.62189 35.6648V27.6918C7.62189 27.5892 7.70498 27.5061 7.80751 27.5061C7.91005 27.5061 7.99314 27.5892 7.99314 27.6918V35.6648C7.99314 35.7674 7.91005 35.8505 7.80751 35.8505Z" fill="#364F66"/>
<path d="M5.94423 36.5046C5.8417 36.5046 5.75861 36.4215 5.75861 36.3189V31.9665C5.75861 31.8639 5.8417 31.7808 5.94423 31.7808C6.04677 31.7808 6.12986 31.8639 6.12986 31.9665V36.3189C6.12986 36.4215 6.04677 36.5046 5.94423 36.5046Z" fill="#364F66"/>
<path d="M81.0428 11.5424C80.1606 11.5424 79.4429 10.8246 79.4429 9.94244C79.4429 9.06027 80.1606 8.34252 81.0428 8.34252C81.925 8.34252 82.6427 9.06027 82.6427 9.94244C82.6427 10.8246 81.925 11.5424 81.0428 11.5424ZM81.0428 8.71201C80.3639 8.71201 79.8124 9.26358 79.8124 9.94244C79.8124 10.6213 80.3639 11.1729 81.0428 11.1729C81.7216 11.1729 82.2732 10.6213 82.2732 9.94244C82.2732 9.26358 81.7216 8.71201 81.0428 8.71201Z" fill="#364F66"/>
<path d="M5.03837 62.851C5.01362 62.851 4.98887 62.8457 4.96589 62.8369C4.87219 62.7962 4.82799 62.6884 4.86865 62.5947C6.39432 59.013 8.71022 55.7018 11.3956 53.2692C11.4009 53.2657 11.4062 53.2604 11.4115 53.2568C12.4068 48.4801 15.5784 43.4965 19.3333 40.8023C19.3033 40.4487 19.2661 39.9219 19.2661 39.365C19.2573 35.5906 20.4365 31.2682 22.5844 27.195C22.6321 27.1049 22.7417 27.0695 22.8337 27.1172C22.9238 27.165 22.9574 27.2763 22.9097 27.3665C20.7883 31.3884 19.6268 35.6489 19.6356 39.365C19.6356 39.9095 19.6727 40.4257 19.701 40.7722C19.7134 40.8164 19.7134 40.8571 19.7134 40.8906C19.7134 40.9508 19.6833 41.0073 19.6356 41.0427C15.8966 43.6821 12.7303 48.6463 11.7598 53.3965C11.7527 53.4319 11.735 53.4655 11.7085 53.4902C11.6838 53.515 11.659 53.5379 11.6307 53.5574C8.99131 55.9528 6.71077 59.2145 5.20808 62.7414C5.17803 62.8121 5.11085 62.8546 5.03837 62.8546V62.851Z" fill="#364F66"/>
<path d="M9.54115 80.344C9.50933 80.344 9.47751 80.3352 9.44746 80.3193C9.44569 80.3193 9.44392 80.3175 9.44215 80.3158L6.46507 78.578C4.2411 77.2892 3.01067 74.602 3.00006 71.008C2.99299 69.1994 3.29529 67.2689 3.89637 65.2677C3.92642 65.1705 4.02719 65.1139 4.12619 65.144C4.22342 65.174 4.27999 65.2766 4.24994 65.3738C3.65947 67.3396 3.36424 69.2348 3.36954 71.0062C3.37838 74.4624 4.5434 77.0364 6.65247 78.2562L8.92947 79.5874C8.87467 78.8962 9.64192 78.0582 10.6089 77.0063C11.8588 75.6451 13.4145 73.9497 13.4092 72.1783C13.4057 71.3333 13.388 70.5377 13.3686 69.7846C13.2537 65.0556 13.1759 61.9265 17.3728 58.1185C17.447 57.7843 17.5655 57.4308 17.7352 57.0401C19.2008 53.6582 23.8273 50.7111 27.5433 48.3457C28.4184 47.7871 29.2475 47.2603 29.9529 46.7776C30.0572 46.7087 30.1544 46.6433 30.2464 46.5779C30.2057 46.1465 30.1863 45.6745 30.1863 45.1388C30.1544 35.5747 32.9335 30.0572 39.784 26.0954C40.7899 25.5155 41.6314 24.7165 42.4446 23.9457C43.6627 22.7895 44.7305 21.7977 45.9821 21.8773C46.5708 20.8236 47.2019 19.8849 47.9091 19.0151C50.0712 16.3333 52.5073 14.9296 55.5957 13.1529L56.3931 12.6932C58.3731 11.5459 59.7502 8.95244 60.9647 6.66306C62.0202 4.67244 62.9324 2.95408 64.0355 2.63763C64.0585 2.63056 64.0815 2.62526 64.1027 2.61995L61.9813 1.39129C59.1191 -0.277573 55.2864 0.104285 51.1938 2.46438C46.9297 4.92348 42.9714 9.18049 40.0456 14.4523C40.035 14.4788 40.0191 14.5035 39.9979 14.5212C39.9572 14.5566 39.9024 14.5778 39.8529 14.5707C37.7669 14.3108 35.3785 14.9172 32.9317 16.328C29.8398 18.1117 26.8291 21.0977 24.4531 24.7341C24.3965 24.819 24.2834 24.8438 24.1967 24.7872C24.1101 24.7306 24.0871 24.6157 24.1437 24.5308C26.5498 20.8466 29.6064 17.8183 32.7461 16.0062C35.2123 14.5849 37.636 13.9573 39.7681 14.1871C42.7204 8.89587 46.7105 4.62117 51.0099 2.14263C55.2227 -0.286413 59.1845 -0.666503 62.1669 1.07131L65.1581 2.80381C65.2465 2.85508 65.2766 2.96822 65.2253 3.05662C65.1723 3.14501 65.0626 3.17506 64.9725 3.12379C64.6861 2.95762 64.4121 2.91342 64.1381 2.99297C63.1852 3.26522 62.3066 4.91994 61.29 6.83631C60.0525 9.16812 58.6506 11.8128 56.5787 13.0132L55.7796 13.4746C52.7265 15.2319 50.3151 16.6197 48.1955 19.2485C47.4795 20.1306 46.8413 21.0835 46.2455 22.1637C46.2102 22.2309 46.1341 22.2662 46.0599 22.2574C44.9055 22.1089 43.8854 23.0847 42.6974 24.2144C41.9072 24.9657 41.0109 25.8161 39.9661 26.4172C33.2482 30.3011 30.5204 35.725 30.554 45.1388C30.554 45.7045 30.577 46.1978 30.6229 46.645C30.63 46.7105 30.6017 46.7741 30.5504 46.8112C30.4285 46.9014 30.2959 46.9933 30.1562 47.0835C29.4491 47.5679 28.6182 48.0965 27.7395 48.6569C24.0659 50.9958 19.4942 53.9092 18.0729 57.1868C17.9049 57.5775 17.7882 57.9275 17.7193 58.2528C17.7122 58.2917 17.691 58.3253 17.6627 58.3518C13.5489 62.0661 13.6231 65.1334 13.7381 69.7758C13.7557 70.5324 13.7752 71.3297 13.7787 72.1783C13.784 74.0929 12.1735 75.8484 10.8812 77.2574C10.0273 78.1873 9.22117 79.0641 9.30249 79.5927C9.32547 79.75 9.43331 79.8826 9.63131 79.9976H9.63485C9.72324 80.0506 9.7533 80.1637 9.70203 80.2521C9.66844 80.3105 9.6048 80.344 9.54292 80.344H9.54115Z" fill="#364F66"/>
<path d="M80.3617 21.5113C79.2762 20.8802 77.9786 20.615 76.5378 20.7529L75.6238 27.8102C77.8125 29.8185 83.5863 26.2863 83.4042 23.281L80.3617 21.5131V21.5113Z" fill="#1C323D"/>
<path d="M77.0187 18.5944L73.9762 16.8265C73.011 16.2661 71.8389 16.061 70.5324 16.2537L70.0074 23.0246C71.2325 26.2333 75.9386 22.8637 77.0205 18.5944H77.0187Z" fill="#1C323D"/>
<path d="M6.16626 73.8825C6.17687 77.595 7.48862 80.2079 9.60299 81.4366L12.6455 83.2044C10.5311 81.9758 16.7894 78.7865 16.7805 75.074C16.7628 68.8635 15.8506 65.3066 20.8024 60.848C20.8802 60.4679 21.0075 60.0949 21.1666 59.7237L14.6626 55.944C9.74088 60.4078 6.14859 67.6967 6.16626 73.8825Z" fill="#162830"/>
<path d="M60.4892 14.6114C64.8594 12.0886 66.378 2.87451 69.2366 4.5363L66.1941 2.76844C63.3355 1.10665 59.3773 1.34177 55.0071 3.86451C50.4902 6.47211 46.4259 11.0067 43.5708 16.1653L51.8974 21.0039C54.2734 18.0658 56.9906 16.6302 60.491 14.6114H60.4892Z" fill="#1C323D"/>
<path d="M43.5637 28.2752C46.1889 26.7583 47.8048 23.7388 49.8926 24.0076C50.5379 22.8408 51.2026 21.8631 51.8956 21.0057L43.569 16.1671C43.569 16.1671 43.5637 16.1759 43.5619 16.1812C41.4758 15.9125 39.0203 16.4782 36.3932 17.9951C28.8338 22.3599 22.7223 32.937 22.7471 41.6261C22.7471 42.1388 22.7718 42.6302 22.8178 43.104L33.5593 49.3463C33.6937 49.2544 33.8227 49.1642 33.9483 49.0758C33.897 48.5773 33.8722 48.0611 33.8705 47.5201C33.8457 38.8311 36.0025 32.64 43.5619 28.2769L43.5637 28.2752Z" fill="#162830"/>
<path d="M22.8231 43.18C18.9055 45.952 15.7145 51.0329 14.7192 55.8874C14.6998 55.9051 14.6803 55.9245 14.6609 55.9422L21.1649 59.7219C22.9946 55.5038 29.8362 51.8885 33.5576 49.3428L22.816 43.1005C22.8178 43.127 22.8196 43.1535 22.8213 43.1782L22.8231 43.18Z" fill="#1C323D"/>
<path d="M58.0479 5.63239C66.7299 0.620495 73.7907 4.63885 73.819 14.6202C73.8225 15.7322 73.7377 16.8707 73.5733 18.0216C76.5857 17.5761 78.8822 19.2449 79.5787 22.519C83.8269 22.1142 86.8199 25.2079 86.8358 30.8315C86.857 38.3025 81.5994 47.4123 75.0954 51.1672C68.5932 54.9204 27.5275 78.631 21.0253 82.3841C14.5214 86.1391 9.22837 83.1213 9.20716 75.6504C9.18948 69.4399 12.8101 62.1156 17.7618 57.6553C18.7572 52.8007 21.9481 47.7199 25.8657 44.9479C25.8145 44.4493 25.7897 43.9331 25.7879 43.3922C25.7632 34.7031 31.8747 24.126 39.4341 19.7611C42.0594 18.2443 44.5149 17.6786 46.6028 17.9473C49.4596 12.7834 53.5275 8.24175 58.0479 5.63239Z" fill="#324566"/>
<path d="M86.836 30.8333C86.859 38.306 81.6013 47.4141 75.0938 51.1655C68.5952 54.9204 27.5295 78.6292 21.0255 82.3859C14.5233 86.1409 9.22857 83.1231 9.20912 75.6521C9.18968 69.4399 12.812 62.1156 17.7638 57.6588C18.7574 52.8043 21.9466 47.7217 25.8642 44.9514C25.8217 44.536 25.797 44.1028 25.7934 43.6556C27.9874 43.4558 30.1777 43.2348 32.3398 42.8512C36.7082 42.0786 41.3277 40.3514 43.5605 36.5169C44.4515 34.986 44.8864 33.2323 45.7385 31.6783C47.3242 28.7825 50.3933 26.753 53.6779 26.4189C55.9461 26.1909 58.4034 26.6929 60.3923 25.5827C64.2851 23.4082 63.1466 17.5053 65.0435 13.4711C66.0371 11.3603 67.8845 9.78509 69.769 8.40439C70.4355 7.91822 71.1197 7.43913 71.8215 6.9954C73.0891 8.86757 73.8104 11.4416 73.8192 14.6202C73.8227 15.7304 73.7414 16.8689 73.5752 18.0233C76.5859 17.5761 78.8806 19.2432 79.5807 22.5208C83.8271 22.1159 86.8218 25.2097 86.8377 30.8333H86.836Z" fill="#26404F"/>
<path d="M59.9571 22.8602C63.256 24.7359 65.3049 28.7755 65.3208 34.5263C65.3367 40.2754 63.3178 46.6645 60.0402 52.3411L55.3112 49.6433C57.3831 46.0546 58.6613 42.015 58.6507 38.3767C58.6401 34.742 57.3442 32.1857 55.2581 30.9977L59.9554 22.862L59.9571 22.8602Z" fill="#162830"/>
<path d="M65.3209 34.5228C65.3386 40.2737 63.3179 46.6627 60.0438 52.3393L56.8263 50.5025C56.8263 49.7971 57.0402 49.1024 57.263 48.4164C57.6714 47.1277 58.1063 45.7912 59.0521 44.8277C59.5347 44.3362 60.1835 43.8536 60.1747 43.1676C60.1747 42.9361 60.1004 42.7133 60.1004 42.4906C60.1199 41.7852 60.8889 41.3025 60.9914 40.5989C61.0374 40.2931 60.9543 39.9873 60.926 39.6708C60.8235 38.4828 61.6491 37.1481 60.972 36.1651C60.8429 35.9707 60.6467 35.7939 60.6007 35.5623C60.5547 35.3113 60.6838 35.0708 60.7669 34.8304C61.2124 33.5133 60.1923 31.9187 60.9242 30.7396C61.1558 30.3595 61.5554 30.0819 61.7039 29.6629C61.8983 29.1149 61.6384 28.5227 61.6102 27.9463C61.573 27.1119 62.0468 26.3517 62.5012 25.6464C62.5754 25.535 62.6497 25.4324 62.7328 25.3405C64.3645 27.5203 65.3103 30.6264 65.3209 34.5228Z" fill="#162830"/>
<path d="M34.3037 37.6696L39.0327 40.3638C36.9607 43.9526 35.6826 47.9957 35.6932 51.6304C35.7038 55.2687 36.9996 57.8215 39.0857 59.0095L34.3885 67.1487C31.0897 65.2695 29.0407 61.2299 29.0248 55.479C29.0089 49.73 31.0278 43.3409 34.3054 37.6678L34.3037 37.6696Z" fill="#162830"/>
<path d="M39.0823 59.0077L36.7452 63.0614C34.6397 62.0962 32.8771 60.1215 32.7657 57.802C32.7286 57.208 32.794 56.5504 32.4033 56.096C32.1806 55.8362 31.8376 55.67 31.7351 55.3535C31.6608 55.1219 31.7351 54.8709 31.8093 54.6393C32.0604 53.8226 32.2089 52.9227 31.9384 52.1077C31.6873 51.3387 31.0668 50.4937 31.5212 49.8166C31.7616 49.4365 32.2442 49.3057 32.6243 49.0652C33.0875 48.7682 33.4128 48.2485 33.487 47.7022C33.533 47.3964 33.4959 47.0711 33.5524 46.7653C33.7098 45.9308 34.4806 45.3651 35.2496 45.0115C35.4264 44.9284 35.6014 44.8542 35.741 44.734C36.084 44.4281 36.13 43.9172 36.1671 43.454C36.3068 42.0999 36.8247 40.5689 38.1064 40.088C38.1984 40.0509 38.2921 40.0226 38.3946 40.0049L39.0346 40.3674C36.9573 43.9561 35.6862 48.001 35.6951 51.6357C35.7039 55.2722 37.0033 57.8215 39.0805 59.0095L39.0823 59.0077Z" fill="#162830"/>
<path d="M47.1136 24.149C52.1167 21.2603 56.6619 20.9774 59.9572 22.8602L55.26 30.9959C53.1756 29.8115 50.3011 29.9882 47.1366 31.8162C43.9704 33.6442 41.1064 36.7804 39.0345 40.3638L34.3055 37.6696C37.5796 31.9948 42.1106 27.0377 47.1136 24.149Z" fill="#162830"/>
<path d="M59.9589 22.8637L55.2564 30.9977C53.1703 29.8097 50.3029 29.9865 47.1313 31.8144C43.9686 33.6424 41.1029 36.7768 39.0345 40.3656L34.3037 37.6661C35.4634 35.6436 36.7893 33.7237 38.2354 31.9523C38.6898 31.9435 39.1353 31.9152 39.5896 31.8692C39.8778 31.841 40.1748 31.8038 40.3958 31.6377C40.7299 31.3778 40.8041 30.8952 41.0269 30.5345C41.8436 29.1803 44.2444 29.8203 45.1725 28.5404C45.5243 28.0666 45.5809 27.4089 46.007 27.0005C46.8785 26.175 48.3812 27.0554 49.5038 26.6205C50.6812 26.1573 50.9693 24.423 52.1662 23.9952C52.9352 23.7265 53.8262 24.1154 54.5864 23.829C55.4403 23.5037 55.7267 22.5667 56.1068 21.7058C57.5264 21.8172 58.8063 22.2061 59.9554 22.8655L59.9589 22.8637Z" fill="#162830"/>
<path d="M47.1597 40.4133C49.366 39.1387 51.1622 40.1605 51.1692 42.6956C51.1763 45.2308 49.3908 48.3227 47.1845 49.5974C44.9782 50.872 43.182 49.8466 43.1749 47.3115C43.1679 44.7764 44.9534 41.688 47.1597 40.4151V40.4133Z" fill="#162830"/>
<path d="M56.4427 28.4272C56.722 28.2663 56.9536 28.5138 56.752 28.9487C54.3495 34.1516 49.6523 44.2849 49.007 45.4022C48.5721 46.1553 48.0011 46.7352 47.4301 47.0658C46.8573 47.3964 46.2863 47.4759 45.8479 47.2267C44.9692 46.7264 44.9657 45.0999 45.8372 43.5919C46.479 42.4764 52.9105 33.3348 56.2199 28.6447C56.2924 28.5404 56.3702 28.4696 56.4444 28.4272H56.4427Z" fill="#162830"/>
<path d="M61.6581 23.0918C64.957 24.9675 67.0059 29.0071 67.0218 34.758C67.0378 40.507 65.0189 46.8961 61.7412 52.5727L57.0122 49.875C59.0841 46.2862 60.3623 42.2466 60.3517 38.6084C60.3411 34.9736 59.0452 32.4173 56.9592 31.2293L61.6564 23.0936L61.6581 23.0918Z" fill="#DBE7FE"/>
<path d="M67.0202 34.7544C67.0396 40.5053 65.0172 46.8943 61.7431 52.5709L58.5256 50.7341C58.5256 50.0287 58.7395 49.334 58.9622 48.648C59.3706 47.3593 59.8055 46.0228 60.7513 45.0593C61.2339 44.5678 61.8827 44.0852 61.8739 43.3993C61.8739 43.1677 61.7997 42.9449 61.7997 42.7222C61.8191 42.0168 62.5881 41.5342 62.6907 40.8306C62.7366 40.5247 62.6535 40.2189 62.6252 39.9024C62.5227 38.7144 63.3483 37.3797 62.6712 36.3968C62.5422 36.2023 62.3459 36.0255 62.3 35.7939C62.254 35.5429 62.3831 35.3024 62.4661 35.062C62.9116 33.745 61.8916 32.1503 62.6235 30.9712C62.8551 30.5911 63.2546 30.3135 63.4031 29.8946C63.5976 29.3465 63.3377 28.7543 63.3094 28.178C63.2723 27.3435 63.7461 26.5833 64.2004 25.878C64.2747 25.7666 64.3489 25.6641 64.432 25.5721C66.0637 27.7519 67.0096 30.858 67.0202 34.7544Z" fill="#C6D7F4"/>
<path d="M36.0047 37.903L40.7337 40.5972C38.6618 44.186 37.3836 48.2291 37.3942 51.8638C37.4048 55.5021 38.7007 58.0548 40.7868 59.2429L36.0896 67.3821C32.7907 65.5029 30.7418 61.4633 30.7259 55.7124C30.71 49.9633 32.7288 43.5743 36.0065 37.9012L36.0047 37.903Z" fill="#DBE7FE"/>
<path d="M40.7833 59.2393L38.4462 63.293C36.3407 62.3278 34.5781 60.3531 34.4667 58.0336C34.4296 57.4396 34.495 56.782 34.1043 56.3276C33.8816 56.0678 33.5386 55.9016 33.4361 55.5851C33.3618 55.3536 33.4361 55.1025 33.5103 54.8709C33.7613 54.0542 33.9098 53.1543 33.6394 52.3393C33.3883 51.5703 32.7678 50.7253 33.2221 50.0482C33.4626 49.6681 33.9452 49.5373 34.3253 49.2969C34.7885 48.9999 35.1138 48.4801 35.188 47.9338C35.234 47.628 35.1968 47.3027 35.2534 46.9969C35.4108 46.1624 36.1815 45.5967 36.9506 45.2431C37.1274 45.1601 37.3024 45.0858 37.442 44.9656C37.785 44.6597 37.831 44.1488 37.8681 43.6857C38.0077 42.3315 38.5257 40.8005 39.8074 40.3196C39.8994 40.2825 39.9931 40.2542 40.0956 40.2366L40.7356 40.599C38.6583 44.1877 37.3872 48.2326 37.3961 51.8673C37.4049 55.5038 38.7043 58.0531 40.7815 59.2411L40.7833 59.2393Z" fill="#C6D7F4"/>
<path d="M48.8146 24.3806C53.8176 21.4919 58.3628 21.209 61.6581 23.0918L56.9609 31.2275C54.8766 30.0431 52.002 30.2198 48.8376 32.0478C45.6713 33.8758 42.8074 37.012 40.7354 40.5954L36.0064 37.9012C39.2805 32.2264 43.8115 27.2693 48.8146 24.3806Z" fill="#F65283"/>
<path d="M61.66 23.0971L56.9575 31.2311C54.8714 30.0431 52.0039 30.2198 48.8324 32.0478C45.6697 33.8758 42.804 37.0102 40.7356 40.599L36.0048 37.8994C37.1645 35.877 38.4904 33.9571 39.9365 32.1857C40.3908 32.1769 40.8363 32.1486 41.2907 32.1026C41.5788 32.0743 41.8758 32.0372 42.0968 31.871C42.4309 31.6111 42.5052 31.1285 42.7279 30.7679C43.5447 29.4137 45.9455 30.0537 46.8736 28.7737C47.2254 28.2999 47.282 27.6423 47.708 27.2339C48.5796 26.4083 50.0823 27.2887 51.2048 26.8538C52.3822 26.3906 52.6704 24.6564 53.8672 24.2286C54.6363 23.9598 55.5273 24.3488 56.2875 24.0624C57.1413 23.7371 57.4277 22.8001 57.8078 21.9392C59.2274 22.0505 60.5073 22.4395 61.6565 23.0989L61.66 23.0971Z" fill="url(#paint0_linear_2111_3695)"/>
<path d="M48.8608 40.6449C51.0671 39.3703 52.8632 40.3921 52.8703 42.9272C52.8773 45.4624 51.0918 48.5543 48.8855 49.829C46.6792 51.1036 44.8831 50.0782 44.876 47.5431C44.8689 45.008 46.6545 41.9196 48.8608 40.6467V40.6449Z" fill="white"/>
<path d="M58.1437 28.6588C58.423 28.4979 58.6546 28.7454 58.4531 29.1803C56.0506 34.3832 51.3533 44.5165 50.7081 45.6338C50.2732 46.3869 49.7022 46.9668 49.1311 47.2974C48.5601 47.628 47.9873 47.7075 47.5489 47.4583C46.6703 46.958 46.6667 45.3315 47.5383 43.8235C48.18 42.708 54.6115 33.5664 57.921 28.8763C57.9934 28.772 58.0712 28.7012 58.1455 28.6588H58.1437Z" fill="#324566"/>
</g>
<defs>
<linearGradient id="paint0_linear_2111_3695" x1="34.0806" y1="40.599" x2="57.8805" y2="14.4212" gradientUnits="userSpaceOnUse">
<stop stop-color="#EF7C9A"/>
<stop offset="1" stop-color="#EF295A"/>
</linearGradient>
<clipPath id="clip0_2111_3695">
<rect width="90" height="84" fill="white"/>
</clipPath>
</defs>
</svg>
