<?xml version="1.0" encoding="UTF-8"?>
<svg width="48px" height="48px" viewBox="0 0 48 48" version="1.1" xmlns="http://www.w3.org/2000/svg" xmlns:xlink="http://www.w3.org/1999/xlink">
    <!-- Generator: sketchtool 63.1 (101010) - https://sketch.com -->
    <title>393793E1-F6EC-4678-9885-E51BBD7C2FF6</title>
    <desc>Created with sketchtool.</desc>
    <g id="New-Requester-Portal" stroke="none" stroke-width="1" fill="none" fill-rule="evenodd">
        <g id="1_ServiceCatalog" transform="translate(-40.000000, -131.000000)" fill-rule="nonzero">
            <g id="Request-a-new-service" transform="translate(40.000000, 131.000000)">
                <g id="Group" opacity="0.01" fill="#FFFFFF">
                    <rect id="Rectangle" x="0" y="0" width="47.7312" height="47.9328"></rect>
                </g>
                <path d="M42.7488,13.9488 C40.9714808,7.13902776 34.74337,2.44633655 27.7075195,2.61565458 C20.6716689,2.78497261 14.6764966,7.77181763 13.2288,14.6592 C12.724925,17.0629704 11.4509231,19.2368625 9.6,20.8512 C5.1052198,24.7267835 3.51332001,30.9992072 5.6159582,36.549172 C7.71859638,42.0991368 13.067029,45.742173 19.001461,45.6665855 C24.9358929,45.590998 30.189802,41.8129187 32.1504,36.2112 C33.0174651,33.8101783 34.6241975,31.7463003 36.7392,30.3168 C41.9962821,26.676061 44.4010487,20.1263373 42.7488,13.9488 Z" id="Path" fill="#EBEFF3"></path>
                <circle id="Oval" fill="#2C5CC5" cx="7.7088" cy="35.2992" r="1.2384"></circle>
                <path d="M16.32,40.656064 C15.2946149,40.6619166 14.309455,40.2574825 13.584,39.5328 C12.8498964,38.8081807 12.4381849,37.818689 12.4415789,36.7872 C12.4625363,32.9186289 15.5906612,29.7862248 19.4592,29.76 L20.6016,29.76 C20.7442456,29.7366286 20.8872365,29.7996855 20.9661776,29.9207734 C21.0451187,30.0418614 21.0451187,30.1981386 20.9661776,30.3192266 C20.8872365,30.4403145 20.7442456,30.5033714 20.6016,30.48 L19.4592,30.48 C15.9711555,30.4852689 13.1433659,33.3087675 13.1328,36.7968 C13.1400273,37.6409408 13.4859019,38.4468286 14.0928,39.0336 C14.6747204,39.6417786 15.4782858,39.988143 16.32,39.9936 L16.32,39.9936 L41.4912,39.888 L41.4912,39.888 C41.6675564,39.9168947 41.7970166,40.0692922 41.7970166,40.248 C41.7970166,40.4267078 41.6675564,40.5791053 41.4912,40.608 L16.32,40.656064 Z" id="Path" fill="#525666"></path>
                <path d="M37.0464,34.0032168 L16.0608,34.0032168 C15.6187333,34.0059364 15.245911,33.6745388 15.1968,33.2352 L12.816,14.1118475 L46.416,14.1118475 C46.6368086,14.1073352 46.8461904,14.2099482 46.9777879,14.3873187 C47.1093853,14.5646892 47.1468841,14.7948283 47.0784,15.0048 L42.4032,30.0576 C41.6752564,32.4046405 39.503736,34.0040937 37.0464,34.0032168 Z" id="Path" fill="#FFFFFF"></path>
                <path d="M36.0576,34.0032 L15.8976,34.0032 C15.4668224,33.9951852 15.1110938,33.6642749 15.072,33.2352 L12.816,14.112 L45.0432,14.112 C45.2589323,14.1165599 45.4597637,14.2230033 45.584646,14.3989738 C45.7095283,14.5749443 45.7437097,14.7996554 45.6768,15.0048 L41.1936,30.0576 C40.5464028,32.3665003 38.4553007,33.9729357 36.0576,34.0032 L36.0576,34.0032 Z" id="Path" fill="#A1C9FF"></path>
                <path d="M28.9344,34.0705374 L15.984,34.0705374 C15.3614884,34.0698258 14.8377503,33.6038226 14.7648,32.9856 L12.384,13.8624 C12.3728611,13.7616256 12.4041638,13.6607614 12.4704,13.584 C12.539021,13.5071995 12.6362486,13.4620582 12.7392,13.4592 L28.8,13.4592 C28.9426456,13.4358286 29.0856365,13.4988855 29.1645776,13.6199734 C29.2435187,13.7410614 29.2435187,13.8973386 29.1645776,14.0184266 C29.0856365,14.1395145 28.9426456,14.2025714 28.8,14.1792 L13.152,14.1792 L15.4752,32.8992 C15.5046251,33.1574984 15.7240363,33.3520706 15.984,33.3504 L28.9344,33.3504 C29.030292,33.350365 29.1221244,33.3891026 29.1890203,33.4578065 C29.2559162,33.5265104 29.2921917,33.619343 29.2897374,33.7152 C29.2922777,33.8102005 29.2557155,33.9021111 29.1885133,33.9693133 C29.1213111,34.0365155 29.0294005,34.0730777 28.9344,34.0705374 L28.9344,34.0705374 Z" id="Path" fill="#525666"></path>
                <path d="M36.9696,34.0704752 L31.2096,34.0704752 C31.0134285,34.0704752 30.8544,33.9113715 30.8544,33.7152 C30.8544,33.5174168 31.0118853,33.3556048 31.2096,33.3504 L36.9696,33.3504 C39.2705281,33.3622582 41.3070692,31.864113 41.9808,29.664 L46.656,14.6112 C46.6951404,14.5106343 46.6767736,14.3967602 46.608,14.3136 C46.5497714,14.2279804 46.4523289,14.1774547 46.3488,14.1792 L32.1696,14.1792 C31.9932436,14.1503053 31.8637834,13.9979078 31.8637834,13.8192 C31.8637834,13.6404922 31.9932436,13.4880947 32.1696,13.4592 L46.3488,13.4592 C46.6759315,13.4708003 46.9787862,13.6348153 47.1672599,13.902448 C47.3557336,14.1700806 47.4081077,14.5104905 47.3088,14.8224 L42.672,29.8752 C41.9051802,32.3787095 39.5878819,34.0835232 36.9696,34.0704752 L36.9696,34.0704752 Z" id="Path" fill="#525666"></path>
                <path d="M14.5344,28.2336 C14.3518157,28.2310891 14.1976753,28.0972303 14.1696,27.9168 L12.2496,12.6336 C12.2572931,11.6365288 11.8659269,10.6777876 11.1626756,9.97092993 C10.4594243,9.26407222 9.50269753,8.86780708 8.5056,8.8704 L4.464,8.8704 C4.28764361,8.84150529 4.15818339,8.68910781 4.15818339,8.5104 C4.15818339,8.33169219 4.28764361,8.17929471 4.464,8.1504 L8.5056,8.1504 C10.9566511,8.1504 12.9451062,10.1345546 12.9504,12.5856 L14.8704,27.8208 C14.8839486,27.9166403 14.8577981,28.0138589 14.7979972,28.0899692 C14.7381962,28.1660795 14.6499248,28.2144888 14.5536,28.224 L14.5344,28.2336 Z" id="Path" fill="#525666"></path>
                <circle id="Oval" fill="#FFFFFF" cx="36.0192" cy="40.7328" r="3.456"></circle>
                <path d="M36.0192,44.544 C33.8984266,44.544 32.1792,42.8247734 32.1792,40.704 C32.1792,38.5832266 33.8984266,36.864 36.0192,36.864 C38.1399734,36.864 39.8592,38.5832266 39.8592,40.704 C39.8592,42.8247734 38.1399734,44.544 36.0192,44.544 Z M36.0192,37.631985 C34.7641772,37.6281145 33.63057,38.3811316 33.1475988,39.5395082 C32.6646277,40.6978847 32.9275441,42.0331656 33.8136066,42.9219798 C34.699669,43.8107941 36.0341282,44.0778496 37.1939968,43.5984726 C38.3538654,43.1190956 39.1104,41.9878288 39.1104,40.7328 C39.1104,39.0240175 37.7279743,37.6372903 36.0192,37.631985 L36.0192,37.631985 Z" id="Shape" fill="#525666"></path>
                <circle id="Oval" fill="#FFFFFF" cx="21.4368" cy="40.7328" r="3.456"></circle>
                <path d="M21.4368,44.544 C19.3160266,44.544 17.5968,42.8247734 17.5968,40.704 C17.5968,38.5832266 19.3160266,36.864 21.4368,36.864 C23.5575734,36.864 25.2768,38.5832266 25.2768,40.704 C25.2768,42.8247734 23.5575734,44.544 21.4368,44.544 Z M21.4368,37.632 C19.7242754,37.632 18.336,39.0202754 18.336,40.7328 C18.336,42.4453246 19.7242754,43.8336 21.4368,43.8336 C23.1493246,43.8336 24.5376,42.4453246 24.5376,40.7328 C24.5376,39.0202754 23.1493246,37.632 21.4368,37.632 L21.4368,37.632 Z" id="Shape" fill="#525666"></path>
                <path d="M39.216,21.6576 L18.4608,21.6576 C18.3181544,21.6809714 18.1751635,21.6179145 18.0962224,21.4968266 C18.0172813,21.3757386 18.0172813,21.2194614 18.0962224,21.0983734 C18.1751635,20.9772855 18.3181544,20.9142286 18.4608,20.9376 L39.216,20.9376 C39.3923564,20.9664947 39.5218166,21.1188922 39.5218166,21.2976 C39.5218166,21.4763078 39.3923564,21.6287053 39.216,21.6576 L39.216,21.6576 Z" id="Path" fill="#FFFFFF"></path>
                <path d="M34.7808,26.4384 L22.8864,26.4384 C22.7100436,26.4095053 22.5805834,26.2571078 22.5805834,26.0784 C22.5805834,25.8996922 22.7100436,25.7472947 22.8864,25.7184 L34.7808,25.7184 C34.9571564,25.7472947 35.0866166,25.8996922 35.0866166,26.0784 C35.0866166,26.2571078 34.9571564,26.4095053 34.7808,26.4384 L34.7808,26.4384 Z" id="Path" fill="#FFFFFF"></path>
                <circle id="Oval" fill="#2C5CC5" cx="36.0096" cy="40.7232" r="1.9776"></circle>
                <circle id="Oval" fill="#2C5CC5" cx="21.5136" cy="40.7712" r="1.9776"></circle>
                <path d="M41.328,11.52 L41.328,11.52 C41.1953438,11.5183663 41.0740319,11.4448439 41.0112,11.328 C40.4261816,10.2581929 39.5466071,9.37861842 38.4768,8.7936 C38.3564807,8.73627669 38.2798451,8.61487677 38.2798451,8.4816 C38.2798451,8.34832323 38.3564807,8.22692331 38.4768,8.1696 C39.5466071,7.58458158 40.4261816,6.70500707 41.0112,5.6352 C41.0797505,5.52636142 41.1993726,5.46033225 41.328,5.46033225 C41.4566274,5.46033225 41.5762495,5.52636142 41.6448,5.6352 C42.2243687,6.70011089 43.0973047,7.57637867 44.16,8.16 C44.2762438,8.2221705 44.3469956,8.34505527 44.3424,8.4768 C44.3433489,8.60512224 44.2731184,8.72340524 44.16,8.784 C43.0872994,9.36842272 42.2044741,10.2479166 41.616,11.3184 C41.5608461,11.4304752 41.4521837,11.5065389 41.328,11.52 L41.328,11.52 Z M39.36,8.4768 C40.1517511,8.99183094 40.828341,9.66515224 41.3472,10.4544 C41.8712582,9.66941247 42.5468839,8.99705067 43.3344,8.4768 C42.5486952,7.95039262 41.8736074,7.27530482 41.3472,6.4896 C40.8259811,7.27955303 40.149953,7.95558113 39.36,8.4768 L39.36,8.4768 Z" id="Shape" fill="#2C5CC5"></path>
                <circle id="Oval" fill="#2C5CC5" cx="22.2336" cy="6.1056" r="1"></circle>
            </g>
        </g>
    </g>
</svg>