<?xml version="1.0" encoding="UTF-8"?>
<svg id="Layer_2" xmlns="http://www.w3.org/2000/svg" xmlns:xlink="http://www.w3.org/1999/xlink" viewBox="0 0 295.38 123.83">
  <defs>
    <style>
      .cls-1 {
        filter: url(#drop-shadow-1);
      }

      .cls-1, .cls-2 {
        fill: #ef295a;
      }

      .cls-3 {
        fill: #1b314d;
      }
    </style>
    <filter id="drop-shadow-1" filterUnits="userSpaceOnUse">
      <feOffset dx="0" dy="5"/>
      <feGaussianBlur result="blur" stdDeviation="4"/>
      <feFlood flood-color="#000" flood-opacity=".4"/>
      <feComposite in2="blur" operator="in"/>
      <feComposite in="SourceGraphic"/>
    </filter>
  </defs>
  <g id="Layer_1-2" data-name="Layer_1">
    <g>
      <g>
        <path class="cls-2" d="M45.89,94.51c-11.05,0-19.41-2.69-25.06-8.09-5.66-5.39-8.49-13.26-8.49-23.59v-21.39l16.04-14.24-16.04-4V6.46L28.38,0v62.69c0,6.15,1.34,10.54,4.01,13.17,2.67,2.63,7.17,3.94,13.5,3.94v14.7Z"/>
        <path class="cls-1" d="M43.5,27.16s-4.82,2.88-4.82,6.87c0,4.35,4.82,7.35,4.82,7.35H12.34l.02-14.22h31.13Z"/>
      </g>
      <path class="cls-3" d="M50.48,23.93c0-2.14.75-3.98,2.26-5.52,1.5-1.54,3.36-2.32,5.58-2.32s4.08.77,5.58,2.32c1.5,1.54,2.26,3.38,2.26,5.52,0,2.3-.75,4.2-2.26,5.7-1.5,1.5-3.37,2.26-5.58,2.26s-4.08-.75-5.58-2.26c-1.5-1.5-2.26-3.4-2.26-5.7ZM51.19,35.14h14.25v59.36h-14.25v-59.36Z"/>
      <path class="cls-3" d="M70.56,11.4h14.25v60.2l26.83-36.45h16.98l-21.96,29.68,21.49,29.68h-16.86l-13.06-18.17-13.42,18.17h-14.25V11.4Z"/>
      <path class="cls-3" d="M153.4,82.52c6.01,0,10.49-2.14,13.42-6.41h15.55c-1.98,6.02-5.48,10.77-10.51,14.25-5.03,3.48-11.14,5.22-18.34,5.22-4.59,0-8.79-.73-12.59-2.2s-7.05-3.54-9.74-6.23c-2.69-2.69-4.77-5.94-6.23-9.74-1.47-3.8-2.2-7.99-2.2-12.59s.73-8.76,2.2-12.53c1.46-3.76,3.54-6.96,6.23-9.62,2.69-2.65,5.94-4.71,9.74-6.17,3.8-1.46,7.99-2.2,12.59-2.2s8.77.73,12.53,2.2c3.76,1.47,6.98,3.52,9.68,6.17,2.69,2.65,4.77,5.86,6.23,9.62,1.46,3.76,2.2,7.94,2.2,12.53,0,.87-.02,1.68-.06,2.43-.04.75-.1,1.52-.18,2.32h-46.42c.79,4.12,2.57,7.3,5.34,9.56,2.77,2.26,6.29,3.38,10.57,3.38ZM168.36,56.52c-1.27-2.93-3.19-5.18-5.76-6.77-2.57-1.58-5.64-2.38-9.2-2.38s-6.61.79-9.14,2.38c-2.53,1.58-4.43,3.84-5.7,6.77h29.8Z"/>
      <path class="cls-3" d="M217.53,95.34c-9.82,0-17.24-2.39-22.26-7.18-5.03-4.79-7.54-11.77-7.54-20.96V11.4h14.25v55.68c0,5.46,1.19,9.36,3.56,11.7,2.38,2.34,6.37,3.5,11.99,3.5v13.06ZM215.51,35.14v13.06h-22.68v-13.06h22.68Z"/>
      <path class="cls-3" d="M221.4,11.4h14.25v83.11h-14.25V11.4Z"/>
      <path class="cls-3" d="M237.21,35.14h14.84l14.25,41.08,14.25-41.08h14.84l-21.01,59.36c-1.19,3.48-2.4,6.96-3.62,10.45-1.23,3.48-2.83,6.63-4.81,9.44-1.98,2.81-4.53,5.08-7.66,6.83-3.13,1.74-7.18,2.61-12.17,2.61v-13.06c1.98,0,3.82-.55,5.52-1.66,1.7-1.11,3.13-2.53,4.27-4.27,1.15-1.74,1.9-3.66,2.26-5.76.36-2.1.18-4.14-.54-6.12l-20.42-57.82Z"/>
    </g>
  </g>
</svg>