<svg width="24" height="24" viewBox="0 0 24 24" fill="none" xmlns="http://www.w3.org/2000/svg">
<path fill-rule="evenodd" clip-rule="evenodd" d="M9.93994 3.25H14.06C15.9013 3.24998 17.3595 3.24997 18.5006 3.40311C19.6748 3.56068 20.6251 3.89264 21.3746 4.64075C22.4888 5.7529 22.6946 7.32752 22.7496 9.47524C22.7684 10.2115 22.1859 10.6634 21.699 10.7908C21.16 10.9317 20.7648 11.4214 20.7648 12C20.7648 12.5786 21.16 13.0683 21.699 13.2092C22.1859 13.3366 22.7684 13.7885 22.7496 14.5248C22.6946 16.6725 22.4888 18.2471 21.3746 19.3592C20.6251 20.1074 19.6748 20.4393 18.5006 20.5969C17.3595 20.75 15.9013 20.75 14.06 20.75H9.93995C8.09863 20.75 6.64046 20.75 5.49932 20.5969C4.32514 20.4393 3.37488 20.1074 2.62538 19.3592C1.51119 18.2471 1.30539 16.6725 1.25039 14.5248C1.23153 13.7885 1.81403 13.3366 2.30098 13.2092C2.83993 13.0683 3.23518 12.5786 3.23518 12C3.23518 11.4214 2.83994 10.9317 2.30098 10.7908C1.81403 10.6634 1.23153 10.2115 1.25039 9.47524C1.30539 7.32752 1.51119 5.7529 2.62538 4.64075C3.37488 3.89264 4.32514 3.56068 5.49932 3.40311C6.64046 3.24997 8.09863 3.24998 9.93994 3.25ZM5.69883 4.88978C4.69047 5.0251 4.1093 5.27894 3.68506 5.70239C3.05724 6.32906 2.81739 7.27767 2.75419 9.35995C3.89766 9.69337 4.73518 10.7475 4.73518 12C4.73518 13.2525 3.89766 14.3066 2.75419 14.6401C2.81739 16.7223 3.05724 17.6709 3.68506 18.2976C4.1093 18.7211 4.69047 18.9749 5.69883 19.1102C6.72862 19.2484 8.08601 19.25 9.99628 19.25H14.0037C15.9139 19.25 17.2713 19.2484 18.3011 19.1102C19.3095 18.9749 19.8906 18.7211 20.3149 18.2976C20.9427 17.6709 21.1826 16.7223 21.2458 14.6401C20.1023 14.3066 19.2648 13.2525 19.2648 12C19.2648 10.7475 20.1023 9.69337 21.2458 9.35995C21.1826 7.27767 20.9427 6.32906 20.3149 5.70239C19.8906 5.27894 19.3095 5.0251 18.3011 4.88978C17.2713 4.75159 15.9139 4.75 14.0037 4.75H9.99628C8.08601 4.75 6.72862 4.75159 5.69883 4.88978ZM12 10.0345C11.9418 10.1351 11.8772 10.251 11.801 10.3877L11.7027 10.564C11.6958 10.5765 11.6883 10.5901 11.6804 10.6047C11.6018 10.7483 11.4718 10.9861 11.2549 11.1507C11.0336 11.3188 10.7673 11.3766 10.6116 11.4104C10.596 11.4138 10.5815 11.4169 10.5683 11.4199L10.3773 11.4631C10.2022 11.5028 10.0595 11.5351 9.93748 11.5658C10.0168 11.6634 10.1199 11.7847 10.254 11.9415L10.3842 12.0937C10.3934 12.1045 10.4034 12.1161 10.4141 12.1284C10.5221 12.2527 10.6963 12.4535 10.7769 12.7126C10.8565 12.9687 10.8291 13.2324 10.8117 13.3988C10.81 13.4154 10.8084 13.431 10.807 13.4456L10.7873 13.6487C10.7691 13.8369 10.7549 13.9872 10.7454 14.1094C10.8496 14.0635 10.9682 14.0089 11.109 13.9441L11.2877 13.8618C11.3001 13.8561 11.3135 13.8498 11.3281 13.8429C11.4716 13.7752 11.7213 13.6575 12 13.6575C12.2786 13.6575 12.5283 13.7752 12.6718 13.8429C12.6864 13.8498 12.6999 13.8561 12.7122 13.8618L12.891 13.9441C13.0318 14.0089 13.1503 14.0635 13.2545 14.1094C13.2451 13.9872 13.2309 13.8369 13.2127 13.6487L13.193 13.4456C13.1916 13.4311 13.1899 13.4154 13.1882 13.3988C13.1709 13.2324 13.1434 12.9687 13.223 12.7126C13.3036 12.4535 13.4779 12.2527 13.5858 12.1284C13.5965 12.1161 13.6066 12.1045 13.6158 12.0937L13.7459 11.9415C13.88 11.7847 13.9831 11.6634 14.0625 11.5658C13.9405 11.5351 13.7978 11.5028 13.6226 11.4631L13.4317 11.4199C13.4185 11.4169 13.404 11.4138 13.3884 11.4104C13.2327 11.3766 12.9664 11.3188 12.745 11.1507C12.5282 10.9861 12.3981 10.7483 12.3196 10.6047C12.3116 10.5901 12.3042 10.5765 12.2972 10.564L12.1989 10.3877C12.1228 10.251 12.0581 10.1351 12 10.0345ZM11.0135 8.79963C11.1856 8.57481 11.4983 8.25 12 8.25C12.5017 8.25 12.8143 8.57481 12.9865 8.79963C13.1508 9.01421 13.3163 9.31124 13.486 9.61577C13.4937 9.62961 13.5014 9.64347 13.5091 9.65734L13.6074 9.83369C13.6302 9.87459 13.6482 9.90677 13.6639 9.9343C13.6912 9.94071 13.723 9.94792 13.7627 9.95691L13.9536 10.0001C13.9693 10.0036 13.9849 10.0072 14.0005 10.0107C14.3283 10.0848 14.6541 10.1584 14.9042 10.2569C15.1804 10.3658 15.5547 10.5777 15.6989 11.0416C15.8406 11.4973 15.6618 11.8834 15.5056 12.1315C15.3611 12.3611 15.1414 12.6179 14.9165 12.8807C14.9063 12.8926 14.8961 12.9045 14.8859 12.9164L14.7558 13.0686C14.7213 13.1089 14.6953 13.1394 14.6734 13.1657C14.6764 13.202 14.6805 13.2443 14.686 13.3009L14.7057 13.504C14.7072 13.5195 14.7087 13.5349 14.7102 13.5504C14.7443 13.9023 14.7774 14.2424 14.7653 14.5145C14.7525 14.7997 14.6841 15.2315 14.2969 15.5254C13.8975 15.8286 13.4564 15.7626 13.1767 15.6824C12.9189 15.6086 12.6144 15.4682 12.3077 15.3269C12.293 15.3201 12.2783 15.3134 12.2636 15.3066L12.0849 15.2243C12.0514 15.2089 12.0239 15.1963 12 15.1854C11.976 15.1963 11.9485 15.2089 11.9151 15.2243L11.7364 15.3066C11.7217 15.3134 11.707 15.3201 11.6923 15.3269C11.3856 15.4682 11.081 15.6086 10.8233 15.6824C10.5436 15.7626 10.1024 15.8286 9.70304 15.5254C9.31587 15.2315 9.24741 14.7997 9.2347 14.5145C9.22258 14.2424 9.25561 13.9023 9.28979 13.5504C9.29129 13.5349 9.29279 13.5195 9.29429 13.504L9.31397 13.3009C9.31945 13.2443 9.32354 13.202 9.32652 13.1657C9.30463 13.1394 9.27864 13.1089 9.24415 13.0686L9.11401 12.9164C9.10383 12.9045 9.09365 12.8926 9.08348 12.8807C8.85857 12.6179 8.63888 12.3611 8.49434 12.1315C8.33815 11.8834 8.15931 11.4973 8.30103 11.0416C8.44529 10.5777 8.8196 10.3658 9.09574 10.2569C9.34582 10.1584 9.67161 10.0848 9.99943 10.0107C10.0151 10.0072 10.0307 10.0036 10.0463 10.0001L10.2372 9.95691C10.277 9.94792 10.3087 9.94071 10.3361 9.9343C10.3518 9.90677 10.3697 9.87459 10.3925 9.83369L10.4908 9.65734C10.4986 9.64347 10.5063 9.62961 10.514 9.61576C10.6837 9.31124 10.8491 9.01421 11.0135 8.79963Z" fill="#475467"/>
</svg>
